<svg width="22" height="20" viewBox="0 0 22 20" fill="none" xmlns="http://www.w3.org/2000/svg">
<path fill-rule="evenodd" clip-rule="evenodd" d="M10.3545 0.664599C10.7628 0.477686 11.2372 0.477686 11.6456 0.664599C11.9986 0.826181 12.1932 1.10673 12.2914 1.26064C12.3929 1.41975 12.497 1.62244 12.5986 1.82C12.6037 1.83009 12.6089 1.84017 12.6141 1.85023L14.7543 6.01258L19.5763 6.6892C19.8033 6.721 20.0362 6.75364 20.2252 6.79725C20.4079 6.83944 20.7458 6.93069 21.0147 7.20318C21.3258 7.51841 21.4721 7.95157 21.4129 8.38207C21.3617 8.7542 21.1439 9.01844 21.0217 9.15555C20.8954 9.29728 20.7267 9.45489 20.5624 9.60851L17.0745 12.8698L17.8975 17.4761C17.9364 17.6933 17.9762 17.9161 17.9916 18.1021C18.0064 18.282 18.0207 18.6189 17.834 18.9489C17.6181 19.3306 17.2342 19.5983 16.7893 19.6775C16.4047 19.7459 16.0755 19.6287 15.9018 19.5595C15.7223 19.488 15.5138 19.3827 15.3107 19.2801L11 17.1038L6.68936 19.2801C6.4862 19.3827 6.27778 19.488 6.09823 19.5595C5.9246 19.6287 5.59531 19.7459 5.21071 19.6775C4.76584 19.5983 4.38196 19.3306 4.16601 18.9489C3.97931 18.6189 3.99365 18.282 4.00849 18.1021C4.02383 17.9161 4.06369 17.6933 4.10254 17.4761L4.9255 12.8698L1.46283 9.63203C1.45448 9.62421 1.4461 9.61639 1.43771 9.60855C1.27335 9.45492 1.10469 9.29729 0.978377 9.15555C0.856176 9.01844 0.638332 8.7542 0.587141 8.38207C0.527921 7.95157 0.674223 7.51841 0.985315 7.20318C1.25423 6.93069 1.59214 6.83944 1.7749 6.79725C1.96382 6.75364 2.19673 6.721 2.42372 6.6892C2.43531 6.68757 2.44688 6.68595 2.45842 6.68433L7.24576 6.01258L9.38595 1.85023C9.39112 1.84017 9.3963 1.83009 9.40149 1.82C9.50302 1.62244 9.60718 1.41975 9.70866 1.26064C9.80681 1.10673 10.0014 0.826181 10.3545 0.664599ZM11 3.04886L8.99269 6.95283C8.98885 6.9603 8.98448 6.96899 8.97956 6.97876C8.93191 7.07347 8.83325 7.26956 8.67679 7.43123C8.54472 7.56769 8.38633 7.67826 8.21039 7.7568C8.00195 7.84985 7.77722 7.8795 7.66869 7.89382C7.65749 7.89529 7.64753 7.89661 7.63895 7.89781L3.14844 8.52791L6.39633 11.5648C6.40255 11.5706 6.40982 11.5773 6.418 11.5848C6.49724 11.6577 6.66134 11.8085 6.77331 12.0016C6.86783 12.1645 6.92847 12.3436 6.95186 12.5287C6.97956 12.7481 6.93924 12.9627 6.91977 13.0664C6.91776 13.0771 6.91597 13.0866 6.9145 13.0948L6.1482 17.384L10.1622 15.3575C10.1699 15.3536 10.1788 15.349 10.1887 15.3439C10.2854 15.2941 10.4855 15.1909 10.7114 15.1484C10.902 15.1125 11.0981 15.1125 11.2887 15.1484C11.5145 15.1909 11.7147 15.2941 11.8113 15.3439C11.8213 15.349 11.8302 15.3536 11.8378 15.3575L15.8518 17.384L15.0855 13.0948C15.0841 13.0866 15.0823 13.0771 15.0803 13.0664C15.0608 12.9627 15.0205 12.7481 15.0482 12.5287C15.0716 12.3436 15.1322 12.1645 15.2267 12.0016C15.3387 11.8085 15.5028 11.6577 15.582 11.5848C15.5902 11.5773 15.5975 11.5706 15.6037 11.5648L18.8516 8.52791L14.3611 7.89781C14.3525 7.89661 14.3426 7.89529 14.3314 7.89382C14.2228 7.8795 13.9981 7.84985 13.7897 7.7568C13.6137 7.67826 13.4553 7.56769 13.3233 7.43123C13.1668 7.26956 13.0681 7.07347 13.0205 6.97877C13.0156 6.96899 13.0112 6.9603 13.0074 6.95283L11 3.04886Z" fill="white"/>
</svg>
