<svg width="19" height="18" viewBox="0 0 19 18" fill="none" xmlns="http://www.w3.org/2000/svg">
<path d="M13.9381 6.29618L12.3125 7.73286V9.76626L13.9381 11.2029C14.0379 11.2912 14.1633 11.3503 14.2987 11.3728C14.4341 11.3953 14.5736 11.3802 14.6999 11.3295C14.8262 11.2787 14.9338 11.1945 15.0094 11.0872C15.0849 10.98 15.1251 10.8544 15.125 10.7261V6.77303C15.1251 6.64468 15.0849 6.51911 15.0094 6.41187C14.9338 6.30463 14.8262 6.22042 14.6999 6.16967C14.5736 6.11892 14.4341 6.10385 14.2987 6.12634C14.1633 6.14883 14.0379 6.20788 13.9381 6.29618Z" fill="white"/>
<path fill-rule="evenodd" clip-rule="evenodd" d="M4.5 6.75C4.5 5.64543 5.39543 4.75 6.5 4.75H9.5C10.6046 4.75 11.5 5.64543 11.5 6.75V10.75C11.5 11.8546 10.6046 12.75 9.5 12.75H6.5C5.39543 12.75 4.5 11.8546 4.5 10.75V6.75ZM6.5 6.08H9.5C9.87003 6.08 10.17 6.37997 10.17 6.75V10.75C10.17 11.12 9.87003 11.42 9.5 11.42H6.5C6.12997 11.42 5.83 11.12 5.83 10.75V6.75C5.83 6.37997 6.12997 6.08 6.5 6.08Z" fill="white"/>
<path fill-rule="evenodd" clip-rule="evenodd" d="M9.5 0C14.6778 0 18.875 3.91718 18.875 8.74956C18.875 13.5819 14.6778 17.4991 9.5 17.4991C8.00375 17.501 6.5289 17.1674 5.19969 16.5262L1.61282 17.4597C1.4127 17.5119 1.20133 17.5134 1.00037 17.4642C0.799413 17.415 0.616085 17.3168 0.469173 17.1797C0.322261 17.0426 0.217048 16.8715 0.164315 16.6839C0.111581 16.4963 0.113222 16.2991 0.16907 16.1123L1.17032 12.7674C0.481588 11.5257 0.123061 10.1477 0.125008 8.74956C0.125008 3.91718 4.32219 0 9.5 0ZM3.16962 4.23446C2.10747 5.53095 1.53176 7.11752 1.53126 8.74956C1.52902 10.0166 1.87539 11.263 2.53719 12.3693L2.67876 12.6055L1.63532 16.0913L5.37219 15.1192L5.62532 15.2505C7.15338 16.044 8.9187 16.3465 10.6491 16.1111C12.3795 15.8758 13.979 15.1157 15.2008 13.9482C16.4227 12.7806 17.1991 11.2704 17.4104 9.65029C17.6217 8.03021 17.2561 6.39025 16.37 4.98324C15.4839 3.57624 14.1265 2.48032 12.5071 1.86445C10.8877 1.24858 9.09619 1.14696 7.40878 1.57525C5.72137 2.00354 4.23176 2.93797 3.16962 4.23446Z" fill="white"/>
</svg>
