<svg width="200" height="200" viewBox="0 0 200 200" fill="none" xmlns="http://www.w3.org/2000/svg">
<path fill-rule="evenodd" clip-rule="evenodd" d="M104.988 23.6891C130.179 9.21536 161.032 17.3211 175.568 42.3777C180.166 50.3036 182.578 59.0424 183.09 68.7553C183.731 80.8924 181.576 94.0064 176.54 112.879L176.386 113.452C174.671 119.846 163.945 156.518 160.721 168.567L157.772 179.593C157.137 181.965 154.712 183.386 152.329 182.802L152.231 182.777L141.16 179.806C129.064 176.56 91.7885 167.468 85.3669 165.75L84.219 165.441C65.5979 160.405 53.2568 155.734 43.119 149.18C34.9232 143.881 28.5243 137.433 23.9262 129.508C9.3899 104.451 17.7627 73.8069 42.9531 59.3332C54.3764 52.7696 67.9837 50.7266 80.6499 53.0288C84.9775 40.9614 93.5585 30.2565 104.988 23.6891Z" fill="white" fill-opacity="0.1"/>
<path fill-rule="evenodd" clip-rule="evenodd" d="M119.899 103.365C118.941 105.181 116.358 116.052 117.347 126.616C118.594 139.934 123.661 153.343 124.03 153.963C124.124 154.122 124.038 154.388 124.035 154.605C123.854 154.523 123.614 154.489 123.501 154.351C122.727 153.401 121.994 152.419 121.221 151.468C120.408 150.469 119.533 149.518 118.743 148.501C117.662 147.11 116.569 145.719 115.599 144.25C114.187 142.112 112.809 139.945 111.547 137.716C110.196 135.33 109.331 132.742 109.038 130.003C108.864 128.385 108.641 126.741 108.753 125.131C108.922 122.717 109.519 120.352 110.595 118.166C111.568 116.19 112.67 114.278 113.733 112.348C115.231 109.63 116.732 106.913 118.259 104.211C119.718 101.632 120.486 102.251 119.899 103.365Z" fill="#E7EAEE"/>
<path fill-rule="evenodd" clip-rule="evenodd" d="M131.82 97.282C131.82 97.282 135.377 97.394 137.682 96.3446C139.988 95.2951 141.953 92.669 141.953 92.669C141.953 92.669 136.14 85.7722 133.573 81.6345C131.006 77.4968 131.383 75.6326 131.383 75.6326C131.383 75.6326 130.519 81.6706 131.383 83.4215C132.904 86.5016 136.996 87.0274 137.034 88.9178C137.124 93.3655 131.82 97.282 131.82 97.282Z" fill="#E7EAEE"/>
<ellipse cx="111.867" cy="59.0445" rx="3.60001" ry="1.58428" fill="#FFB61D"/>
<ellipse cx="93.992" cy="60.6235" rx="2.26956" ry="2.20318" fill="#FFB61D"/>
<ellipse cx="72.1255" cy="76.6235" rx="2.26956" ry="2.20318" fill="#FFB61D"/>
<path fill-rule="evenodd" clip-rule="evenodd" d="M52.8137 62.8465C52.5416 64.4882 53.3754 66.2597 52.9804 67.8771C52.6531 69.2178 52.22 70.5325 51.8461 71.8622C51.816 71.9693 51.8818 72.1034 51.9029 72.225C51.9919 72.1457 52.1172 72.0836 52.164 71.9845C52.4311 71.4181 52.6958 70.8494 52.9318 70.2695C54.1755 67.2132 55.436 64.1634 56.6377 61.0905C57.2348 59.5638 57.7506 58.0027 58.2441 56.4386C58.7107 54.9592 62.3233 56.2117 62.1007 57.5251C62.0657 57.7315 62.089 57.9478 62.0854 58.1595C62.2297 58.0157 62.408 57.893 62.5124 57.7244C62.9866 56.959 63.4723 56.1979 63.894 55.4035C64.8005 53.696 68.1444 52.1744 67.3739 53.9392C66.9393 54.9347 66.2996 55.8399 65.769 56.7951C65.6824 56.9509 65.6829 57.1551 65.6431 57.3369C65.7721 57.2353 65.9232 57.1522 66.0267 57.0291C66.7889 56.1224 67.5373 55.204 68.2986 54.2965C69.1599 53.2695 70.1028 52.302 70.8814 51.2163C72.5163 48.9367 76.7756 46.3841 76.2658 47.3866C75.5286 48.8365 74.0261 51.9926 74.1346 51.8855C74.309 51.7132 74.4298 51.488 74.5852 51.2948C76.4202 49.0157 77.9366 46.569 78.9321 43.7868C79.4314 42.3914 79.4277 42.2618 80.8827 42.3814C81.8039 42.4571 82.7314 42.6676 83.6136 42.9502C84.6194 43.2723 85.5722 43.7569 86.5619 44.1345C86.7582 44.2094 87.0173 44.1198 87.2475 44.106C87.2299 43.9073 87.2195 43.7076 87.1929 43.5101C87.1466 43.1659 87.0775 42.8245 87.0405 42.4795C86.933 41.4792 86.8215 40.4787 86.7519 39.4755C86.7412 39.3207 86.9133 39.1101 87.0586 39.0056C87.1322 38.9527 87.3611 39.0453 87.4734 39.1322C87.6779 39.2904 87.8174 39.5972 88.0369 39.6615C89.9287 40.2151 90.5733 41.0205 89.5331 39.6615C89.173 39.191 89.5312 33.2358 85.7064 33.9973C85.3543 34.0674 88.3628 37.9032 88.0369 38.0151C87.6233 38.1571 83.5157 35.6813 83.1241 35.8832C82.3624 36.276 84.4177 40.4066 83.6136 40.9802C82.6852 41.6425 78.523 39.3007 77.3 40.117C76.6662 40.5401 71.1276 49.0933 70.1628 49.5594C69.3646 49.945 73.8549 40.6223 73.2817 40.9802C72.0809 41.7302 62.5124 55.4035 62.0854 55.4035C61.6583 55.4035 66.2828 44.3873 65.088 45.1429C63.4523 46.1774 60.309 54.9124 58.911 55.5096C57.7011 56.0265 59.2738 47.9986 57.3779 49.1092C55.6803 50.1037 52.9009 62.3206 52.8137 62.8465Z" fill="#E7EAEE"/>
<path fill-rule="evenodd" clip-rule="evenodd" d="M154.861 61.1251C154.913 62.7199 154.884 64.2445 155.033 65.7516C155.424 69.7165 156.514 73.4522 158.834 76.7668C159.746 78.0696 160.464 79.5192 161.457 80.7515C162.694 82.2854 164.114 83.6719 165.472 85.1067C166.784 86.494 168.131 87.8495 169.437 89.2423C170.309 90.172 171.15 91.1321 171.983 92.0972C173.522 93.8801 175.096 95.6365 176.564 97.477C178.688 100.141 180.362 103.104 181.455 106.315C182.331 108.888 182.847 111.585 183.482 114.237C184.014 116.453 183.989 118.791 184.901 120.925C185.441 122.187 186.055 123.419 186.568 124.692C186.744 125.128 187.226 125.664 186.601 126.115C186.405 126.257 186.015 126.335 185.822 126.235C185.196 125.907 184.537 125.567 184.038 125.08C182.253 123.338 180.361 121.68 179.107 119.467C179.059 119.381 179.007 119.288 178.932 119.229C178.819 119.142 178.684 119.082 178.558 119.01C178.582 119.136 178.574 119.279 178.634 119.385C179.567 121.059 180.455 122.762 181.467 124.388C182.225 125.605 183.148 126.719 183.991 127.883C184.103 128.039 184.219 128.212 184.264 128.394C184.415 129.006 184.136 129.293 183.585 128.999C182.766 128.562 181.958 128.062 181.253 127.462C179.044 125.582 176.879 123.649 174.714 121.717C174.319 121.364 174.016 120.911 173.65 120.523C173.568 120.436 173.399 120.431 173.27 120.388C173.287 120.508 173.266 120.653 173.326 120.745C175.131 123.519 176.941 126.288 178.755 129.056C179.965 130.902 181.185 132.742 182.386 134.593C182.474 134.73 182.448 134.941 182.475 135.118C182.283 135.119 182.051 135.191 181.908 135.108C181.148 134.667 180.342 134.268 179.679 133.705C178.061 132.335 176.521 130.874 174.935 129.466C173.777 128.437 172.499 127.526 171.45 126.399C169.996 124.838 168.366 123.401 167.374 121.452C167.34 121.386 167.284 121.319 167.221 121.283C167.083 121.204 166.934 121.146 166.79 121.079C166.829 121.208 166.858 121.341 166.908 121.466C167.596 123.189 168.405 124.874 168.947 126.641C169.632 128.873 170.182 131.156 170.634 133.448C170.978 135.186 171.118 136.968 171.275 138.738C171.431 140.489 171.496 142.248 171.599 144.004C171.703 145.76 171.809 147.516 171.9 149.273C171.907 149.405 171.769 149.54 171.763 149.676C171.743 150.129 171.786 150.756 171.21 150.725C170.541 150.688 170.667 150.007 170.663 149.517C170.656 148.657 170.677 147.796 170.658 146.937C170.616 145.107 170.628 143.272 170.487 141.449C170.297 138.997 170.04 136.546 169.7 134.11C169.515 132.788 169.123 131.491 168.778 130.196C168.227 128.133 167.719 126.053 167.038 124.033C166.462 122.325 165.66 120.695 164.972 119.024C164.661 118.267 164.442 117.466 164.079 116.736C163.016 114.593 161.992 112.421 160.776 110.365C159.822 108.753 158.645 107.264 157.488 105.783C156.778 104.874 155.975 104.017 155.112 103.251C153.682 101.981 152.168 100.806 150.693 99.5857C149.139 98.2989 147.59 97.0063 146.04 95.7138C145.921 95.6142 145.831 95.4757 145.705 95.3882C144.809 94.768 144.794 94.8404 144.052 95.7495C142.925 97.1293 141.529 98.2174 140.002 99.145C138.127 100.285 136.098 100.972 133.945 101.33C131.627 101.714 129.291 101.912 126.945 101.782C125.651 101.71 124.322 101.618 123.193 100.854C122.861 100.63 122.593 100.301 122.325 99.9943C122.072 99.7051 121.886 99.6871 121.695 100.042C121.098 101.151 120.485 102.251 119.898 103.365C117.734 107.471 115.489 111.525 113.018 115.461C111.735 117.504 110.942 119.804 110.397 122.196C109.977 124.038 109.913 125.871 109.977 127.719C110.073 130.468 110.759 133.09 111.83 135.628C113.187 138.845 115.237 141.618 117.287 144.394C118.838 146.495 120.446 148.553 121.973 150.671C122.728 151.718 123.369 152.85 124.029 153.963C124.123 154.122 124.037 154.388 124.035 154.604C123.854 154.522 123.613 154.489 123.501 154.351C122.727 153.401 121.993 152.419 121.22 151.468C120.407 150.469 119.533 149.518 118.743 148.501C117.661 147.109 116.568 145.719 115.598 144.25C114.186 142.112 112.809 139.945 111.547 137.716C110.195 135.33 109.331 132.742 109.037 130.003C108.864 128.385 108.64 126.741 108.753 125.131C108.921 122.717 109.518 120.351 110.594 118.166C111.567 116.19 112.669 114.277 113.733 112.347C115.231 109.629 116.731 106.913 118.259 104.211C119.717 101.631 121.264 99.1002 122.665 96.4903C123.263 95.3747 123.763 94.1464 123.999 92.9104C124.287 91.3984 124.386 89.8186 124.318 88.279C124.248 86.6753 123.892 85.0828 123.638 83.4891C123.546 82.9107 123.394 82.3412 123.258 81.7704C123.145 81.2958 123.016 81.086 122.377 81.2713C120.922 81.693 119.422 81.9887 117.923 82.2242C116.919 82.382 115.877 82.4457 114.865 82.3757C113.646 82.2914 112.447 82.1466 111.259 81.66C109.556 80.9625 108.796 79.6152 108.257 78.0649C107.621 76.2384 107.1 74.3721 106.519 72.5265C106.288 71.7938 105.964 71.1579 105.258 70.7009C104.403 70.1474 104.257 69.2361 104.869 68.3875C105.216 67.9071 104.994 67.7538 104.722 67.5504C103.916 66.9495 103.9 66.1724 104.806 65.6805C105.62 65.2387 106.123 63.5927 105.872 63.0206C105.708 62.6467 105.347 62.3347 105.016 62.0661C104.741 61.8424 104.375 61.7333 104.06 61.5547C102.617 60.7377 102.421 59.1438 103.192 57.511C103.524 56.8097 103.947 56.14 104.407 55.5138C105.127 54.5338 105.434 53.3913 105.39 52.2582C105.308 50.1497 104.965 48.0527 104.821 45.9447C104.755 44.9836 104.908 44.008 104.956 43.0386C104.986 42.415 104.921 41.8922 104.243 41.5374C101.977 40.353 100.351 38.5561 99.5918 36.101C99.115 34.5598 99.2765 32.9735 99.5556 31.3822C99.9067 29.3796 101.169 27.9343 102.35 26.4372C103.865 24.5164 105.708 22.951 107.764 21.6203C109.367 20.5825 111.127 19.997 112.981 19.6774C115.009 19.3278 117.041 18.975 119.085 18.7556C120.348 18.6199 121.643 18.8078 122.914 18.7161C126.982 18.4227 130.812 19.4812 134.64 20.6337C136.696 21.2526 138.705 21.9789 140.422 23.2823C142.165 24.6062 143.931 25.9367 145.475 27.477C147.099 29.097 148.33 31.0589 149.448 33.0849C151.247 36.3444 152.305 39.8634 153.107 43.4534C153.599 45.6563 153.827 47.9254 154.061 50.1764C154.296 52.4238 154.388 54.6859 154.549 56.9411C154.647 58.3102 154.756 59.6783 154.861 61.1251ZM139.764 71.9193C137.817 70.6263 136.12 69.098 134.794 67.1345C133.415 65.0932 132.768 62.7572 131.865 60.5218C130.615 57.4303 130.11 54.1436 129.369 50.9201C128.874 48.7621 128.173 46.6767 127.157 44.7193C125.871 42.2419 124.599 39.7589 122.723 37.6278C121.595 36.3459 120.421 35.2319 118.738 34.7858C118.077 34.6104 117.401 34.4881 116.733 34.3385C114.804 33.9067 112.883 33.9108 110.953 34.3672C109.342 34.7481 108.029 35.557 106.955 36.817C106.379 37.4928 106.211 38.2911 106.067 39.109C106.045 39.2336 106.21 39.404 106.319 39.5256C106.336 39.5448 106.555 39.4427 106.618 39.3529C108.362 36.8678 110.851 37.2776 112.988 38.5675C114.07 39.2206 115.149 39.8832 116.27 40.465C117.854 41.2878 119.519 41.9611 121.068 42.8424C122.868 43.8665 124.208 45.3305 124.679 47.4435C124.897 48.4181 125.151 49.3847 125.395 50.3531C125.786 51.8985 126.675 53.105 127.808 54.2151C128.793 55.1806 129.364 56.3888 129.384 57.8607C129.408 59.5392 128.851 61.0854 128.358 62.6118C127.853 64.1733 127.796 65.6584 128.41 67.0995C129.288 69.1614 130.342 71.1483 131.315 73.1705C131.973 74.5398 132.523 75.9714 133.291 77.2758C135.288 80.6694 137.154 84.1446 139.861 87.0846C141.262 88.606 142.737 90.0067 144.439 91.1512C147.687 93.3343 151.177 95.1015 154.705 96.7656C157.96 98.3012 161.366 99.4888 164.973 99.9087C167.355 100.186 169.752 100.339 172.142 100.547C172.772 100.602 173.408 100.619 174.031 100.718C174.329 100.766 174.615 100.945 174.881 101.107C174.995 101.177 175.043 101.355 175.121 101.484C174.987 101.537 174.85 101.64 174.718 101.634C174.009 101.6 173.302 101.526 172.593 101.489C170.472 101.378 168.35 101.293 166.231 101.167C165.047 101.097 163.825 101.125 162.692 100.83C159.585 100.019 156.5 99.0912 153.617 97.6406C152.166 96.9103 150.82 95.97 149.368 95.2416C145.568 93.3359 141.927 91.2186 139.25 87.8111C137.951 86.1573 136.749 84.4249 135.543 82.7C135.043 81.9848 134.656 81.1916 134.199 80.4456C134.13 80.3343 133.957 80.2873 133.832 80.2105C133.847 80.3334 133.827 80.4739 133.881 80.5765C134.518 81.7994 135.079 83.0739 135.831 84.2222C136.97 85.9593 138.218 87.6272 139.473 89.2844C140.025 90.014 140.634 90.7384 141.346 91.3023C143.117 92.704 144.972 93.9993 146.774 95.3623C148.01 96.2978 149.235 97.2513 150.43 98.2392C152.165 99.6736 153.9 101.112 155.574 102.616C156.49 103.44 157.278 104.407 158.131 105.302C159.664 106.91 160.82 108.783 161.893 110.706C163.192 113.032 164.34 115.447 165.728 117.715C168.065 121.533 170.976 124.884 174.37 127.821C176.386 129.566 178.304 131.425 180.272 133.227C180.413 133.357 180.594 133.443 180.757 133.55C180.713 133.354 180.724 133.119 180.617 132.967C179.29 131.062 177.921 129.186 176.612 127.27C174.966 124.859 173.507 122.355 172.331 119.66C171.674 118.153 170.511 116.865 169.562 115.488C169.043 114.734 168.49 114.004 167.969 113.252C167.909 113.165 167.954 113.005 167.95 112.879C168.061 112.903 168.211 112.89 168.276 112.958C169.317 114.034 170.381 115.091 171.371 116.212C172.913 117.958 174.318 119.832 175.937 121.5C177.611 123.224 179.471 124.767 181.251 126.388C181.305 126.438 181.366 126.491 181.433 126.513C181.584 126.56 181.741 126.588 181.895 126.624C181.853 126.467 181.83 126.301 181.762 126.157C181.709 126.046 181.584 125.973 181.514 125.868C180.681 124.623 179.688 123.453 179.058 122.112C177.821 119.477 176.788 116.746 175.665 114.056C175.415 113.456 175.126 112.871 174.898 112.263C174.835 112.095 174.928 111.868 174.949 111.669C175.112 111.77 175.328 111.834 175.429 111.978C176.147 113.006 176.867 114.034 177.537 115.093C178.107 115.996 178.583 116.958 179.148 117.865C180.69 120.344 182.806 122.337 184.788 124.443C184.9 124.561 185.079 124.616 185.226 124.701C185.209 124.486 185.267 124.221 185.163 124.064C184.248 122.69 183.707 121.158 183.351 119.575C183.005 118.034 182.885 116.441 182.536 114.901C181.721 111.306 181.229 107.611 179.423 104.305C178.587 102.775 177.829 101.197 176.913 99.7176C176.272 98.682 175.434 97.7666 174.664 96.8135C174.092 96.105 173.507 95.4053 172.893 94.7332C172.351 94.1405 171.727 93.6215 171.2 93.0175C169.633 91.224 168.149 89.356 166.533 87.6087C164.816 85.7514 162.581 84.415 161.241 82.1588C159.755 79.6585 158.091 77.2646 156.595 74.7704C154.986 72.0895 154.294 69.086 153.947 66.0225C153.714 63.9686 153.711 61.8884 153.61 59.8197C153.503 57.647 153.416 55.4732 153.29 53.3017C153.219 52.0655 153.14 50.8257 152.972 49.6001C152.703 47.638 152.395 45.6797 152.037 43.7318C151.398 40.2547 150.271 36.9294 148.58 33.8265C147.017 30.9588 145.082 28.3957 142.438 26.3691C139.774 24.3273 136.98 22.6342 133.734 21.6732C132.362 21.2669 130.948 21.0744 129.602 20.6878C127.821 20.1765 126.034 20.0493 124.243 20.0168C121.995 19.9761 119.736 20.1218 117.493 20.3174C115.818 20.4635 114.147 20.7498 112.499 21.091C109.212 21.7714 106.621 23.4533 105.278 26.6467C104.607 28.245 104.016 29.8944 103.59 31.5719C103.358 32.4867 103.544 33.5086 103.556 34.482C103.557 34.6031 103.651 34.723 103.703 34.8435C103.803 34.7183 103.957 34.6074 103.995 34.4657C104.56 32.3247 105.686 30.5898 107.405 29.1506C109.629 27.2885 112.264 26.3759 115.003 25.9918C117.614 25.6256 120.279 25.8595 122.827 26.8407C123.888 27.2491 125.057 27.3685 126.167 27.658C126.518 27.7497 126.837 27.9667 127.171 28.1264C126.857 28.2796 126.555 28.4742 126.224 28.5721C125.985 28.6431 125.693 28.6389 125.449 28.5764C124.603 28.3607 123.764 28.1183 122.93 27.8616C120.923 27.2439 118.917 26.6486 116.773 26.8606C116.113 26.9258 115.42 26.8298 114.79 26.9934C113.387 27.3577 111.973 27.7392 110.641 28.2992C109.081 28.9558 107.731 29.953 106.657 31.3208C105.663 32.588 105.135 34.0443 104.832 35.5683C104.656 36.4548 104.786 37.4053 104.815 38.3258C104.82 38.4719 105.024 38.6117 105.135 38.7545C105.18 38.6015 105.271 38.4458 105.262 38.296C105.193 37.1041 105.792 36.2264 106.526 35.3714C107.804 33.8838 109.617 33.4269 111.341 32.8237C113.072 32.2181 114.877 32.2473 116.629 32.6983C118.143 33.0883 119.693 33.4607 121.007 34.3922C122.919 35.7481 124.217 37.6568 125.424 39.5924C126.587 41.4576 127.618 43.4185 128.547 45.4122C129.215 46.8483 129.703 48.3847 130.122 49.9171C130.612 51.7083 130.867 53.5638 131.358 55.3548C131.978 57.6162 132.721 59.8444 133.432 62.0802C134.307 64.8322 135.504 67.4039 137.702 69.3821C138.417 70.0262 139.157 70.6439 139.895 71.2623C140.163 71.4865 140.271 71.6857 139.764 71.9193ZM105.27 56.6667C105.049 56.9924 104.803 57.3047 104.61 57.6463C103.786 59.1011 103.663 60.2187 105.333 60.9989C106.023 61.321 106.766 61.856 106.706 62.8095C106.666 63.4378 106.496 64.0599 106.361 64.6795C106.266 65.1135 106.292 65.1096 106.732 65.071C107.764 64.9807 108.81 64.9569 109.625 65.7455C109.785 65.9008 109.751 66.2574 109.807 66.5211C109.631 66.4954 109.455 66.4711 109.28 66.4437C109.084 66.4132 108.888 66.3859 108.694 66.3468C107.707 66.1476 106.727 65.7336 105.712 66.1436C105.429 66.2578 105.207 66.5231 104.957 66.7191C105.148 66.8963 105.314 67.12 105.536 67.2389C105.808 67.3848 106.133 67.4291 106.424 67.5449C106.573 67.6042 106.698 67.7237 106.834 67.816C106.749 67.9323 106.673 68.0585 106.575 68.163C106.272 68.4838 105.927 68.7715 105.67 69.1244C105.572 69.2587 105.611 69.5651 105.698 69.7374C105.766 69.8715 106.041 70.0285 106.161 69.9882C107.12 69.6663 108.073 69.3211 109.009 68.9357C109.342 68.7981 109.616 68.5196 109.931 68.3274C110.029 68.2676 110.171 68.2801 110.292 68.2594C110.287 68.401 110.331 68.5715 110.268 68.6796C109.619 69.795 108.635 70.4542 107.372 70.6544C106.958 70.7201 106.652 70.8486 106.895 71.2548C107.963 73.0378 108.253 75.0768 108.892 77.0013C109.239 78.0458 109.605 79.2484 110.359 79.9565C111.667 81.1841 113.503 81.2929 115.247 81.2878C116.143 81.2852 117.052 81.1659 117.929 80.9767C119.258 80.6901 120.61 80.4122 121.867 79.916C123.119 79.4218 124.282 78.6888 125.457 78.0144C127.187 77.0217 128.886 75.9738 130.616 74.9817C131.084 74.7137 131.009 74.4105 130.804 74.0725C130.133 72.9667 129.412 71.8903 128.77 70.7683C127.736 68.9622 126.978 67.0283 127.055 64.9286C127.095 63.8311 127.548 62.7492 127.808 61.6586C127.849 61.4853 127.854 61.3032 127.875 61.1252C127.731 61.2695 127.539 61.3892 127.45 61.562C126.96 62.5148 126.327 63.3391 125.403 63.9024C125.025 64.1325 124.614 64.3074 124.218 64.5074C124.426 64.0776 124.562 63.5882 124.857 63.229C125.86 62.0057 126.911 60.8327 127.396 59.2693C127.818 57.9101 127.86 56.5928 127.166 55.3188C126.749 54.5528 126.163 54.3982 125.492 54.9308C125.064 55.2701 124.754 55.7562 124.38 56.1653C124.297 56.2555 124.163 56.2985 124.052 56.3632C123.997 56.2558 123.895 56.148 123.896 56.0409C123.898 55.8474 123.896 55.5975 124.008 55.4711C124.437 54.9877 124.911 54.5435 125.369 54.0857C125.589 53.8654 125.91 53.6976 125.61 53.2966C124.646 52.007 124.395 50.4621 124.022 48.9472C123.764 47.8988 123.518 46.7503 122.908 45.9061C121.645 44.1589 119.733 43.18 117.774 42.357C115.973 41.6003 114.283 40.6721 112.665 39.5623C111.836 38.9936 110.77 38.67 109.766 38.5022C109.318 38.4273 108.73 38.9658 108.257 39.2999C106.259 40.7137 106.018 42.8227 106.146 45.0094C106.244 46.6851 106.56 48.3481 106.656 50.0239C106.721 51.1686 106.707 52.3521 106.483 53.4694C106.269 54.5418 105.739 55.5513 105.27 56.6667ZM124.199 80.9147C124.273 81.1969 124.371 81.4753 124.416 81.762C124.715 83.6469 125.053 85.5278 125.27 87.4224C125.362 88.2183 125.147 89.0443 125.146 89.8568C125.145 91.7656 124.725 93.6003 124.234 95.4247C124.122 95.8382 124.216 96.1165 124.65 96.2252C125.217 96.3673 125.782 96.5305 126.357 96.6298C127.312 96.7944 128.269 96.9642 129.233 97.043C130.634 97.1575 132.072 97.4055 133.439 97.208C135.102 96.9676 136.755 96.4452 138.321 95.8162C139.582 95.3095 140.697 94.4366 141.386 93.1935C141.514 92.9641 141.486 92.4708 141.321 92.2854C140.076 90.8862 138.663 89.6223 137.526 88.1439C136.092 86.2789 134.747 84.3197 133.595 82.2709C132.681 80.6453 132.055 78.8454 131.424 77.0792C131.15 76.3132 131.061 76.1782 130.366 76.6168C128.53 77.7762 126.673 78.9015 124.839 80.0642C124.582 80.2269 124.41 80.5236 124.199 80.9147ZM132.882 100.548C133.334 100.443 133.782 100.321 134.238 100.238C138.214 99.5118 141.424 97.5025 144.001 94.4295C144.044 94.3783 144.082 94.2451 144.062 94.2306C143.727 93.9822 143.41 93.6656 143.031 93.5402C142.824 93.472 142.48 93.6928 142.252 93.8583C142.061 93.9974 141.964 94.2594 141.798 94.4422C140.551 95.8176 139.01 96.6867 137.217 97.1603C135.479 97.6193 133.779 98.3048 131.943 98.1888C130.414 98.0923 128.888 97.9167 127.368 97.721C126.469 97.6051 125.563 97.4507 124.697 97.1896C123.656 96.8759 123.674 96.8189 123.237 97.8336C122.833 98.7726 123.229 99.9878 124.128 100.214C125.297 100.508 126.501 100.799 127.695 100.825C129.369 100.861 131.048 100.652 132.882 100.548ZM102.298 30.6981C102.39 30.3978 102.463 30.0901 102.577 29.7986C102.945 28.8586 103.332 27.9259 103.701 26.9864C103.741 26.8855 103.715 26.7588 103.72 26.644C103.609 26.6933 103.469 26.7154 103.394 26.7973C103.193 27.0179 103.023 27.266 102.836 27.4998C101.513 29.1562 100.609 30.9792 100.412 33.1333C100.154 35.9584 101.525 37.9859 103.521 39.7285C103.594 39.7916 103.766 39.7405 103.892 39.7426C103.882 39.6257 103.901 39.4964 103.858 39.3939C103.632 38.8628 103.383 38.3418 103.156 37.8113C102.2 35.5757 101.624 33.2918 102.298 30.6981Z" fill="white"/>
<path fill-rule="evenodd" clip-rule="evenodd" d="M101.672 81.6186C101.949 83.4333 102.164 85.1825 102.52 86.9026C102.834 88.4229 103.272 89.9208 103.722 91.4084C103.908 92.0246 104.18 92.6593 104.578 93.1519C104.854 93.4933 105.395 93.7384 105.848 93.7979C107.84 94.0595 109.857 94.1524 111.84 94.4671C114.609 94.9068 117.356 95.4853 120.11 96.016C120.465 96.0843 120.834 96.172 121.142 96.3465C121.329 96.4522 121.411 96.7424 121.54 96.9496C121.364 97.0539 121.183 97.2559 121.012 97.2471C119.516 97.1692 118.019 97.0817 116.527 96.9407C115.337 96.8281 114.152 96.6445 112.967 96.4778C111.935 96.3328 110.907 96.1658 109.876 96.0113C108.82 95.853 107.731 95.8089 106.717 95.5095C105.757 95.2262 105.515 95.6515 105.086 96.3765C104.085 98.0664 103.025 99.7498 101.77 101.253C100.342 102.964 98.7016 104.513 96.7028 105.588C94.4526 106.798 92.1006 107.527 89.5018 106.966C88.6596 106.784 87.8015 106.675 86.9608 106.487C85.311 106.118 84.1712 105.04 83.2109 103.723C82.7712 103.12 82.3202 102.524 81.859 101.937C81.5808 101.583 81.3128 101.557 80.8845 101.832C79.2235 102.899 77.484 103.845 75.8467 104.945C74.4229 105.901 73.0428 106.94 71.7417 108.058C69.8568 109.676 67.987 111.325 66.2434 113.092C63.4215 115.951 60.9463 119.119 58.8459 122.538C57.3956 124.898 56.3612 127.486 55.3278 130.07C54.489 132.167 53.942 134.327 53.5338 136.511C53.2503 138.029 53.3847 139.624 53.3334 141.185C53.3292 141.315 53.3411 141.446 53.3316 141.576C53.1473 144.091 53.6851 146.521 54.2888 148.926C54.9026 151.37 55.6919 153.77 56.3288 156.209C56.559 157.091 57.1483 157.282 57.8733 157.328C59.8363 157.452 61.8003 157.58 63.766 157.638C65.8763 157.7 67.9238 157.272 69.9646 156.758C71.4259 156.39 72.9471 156.255 74.3108 155.535C74.3976 155.489 74.5575 155.582 74.6834 155.61C74.6456 155.755 74.6545 155.972 74.5621 156.031C74.093 156.332 73.6261 156.677 73.1064 156.85C71.3164 157.446 69.52 158.035 67.6956 158.51C66.5732 158.802 65.3992 158.918 64.2409 159.044C63.2517 159.151 62.2521 159.19 61.2565 159.201C60.627 159.208 59.9962 159.108 59.3661 159.055C58.9633 159.021 58.7334 158.973 58.9428 159.581C59.9815 162.596 60.8849 165.657 61.9605 168.658C62.5848 170.4 63.4316 172.063 64.1999 173.751C65.6274 176.889 66.9911 180.059 68.5361 183.137C69.5273 185.113 70.7936 186.95 71.9404 188.847C72.4074 189.619 72.9057 190.373 73.3407 191.163C73.4384 191.34 73.3308 191.63 73.3177 191.869C73.0354 191.821 72.641 191.874 72.4907 191.707C71.9248 191.079 71.3687 190.422 70.9349 189.7C69.4456 187.22 67.8588 184.782 66.5937 182.19C65.1914 179.316 64.0879 176.296 62.8803 173.329C62.054 171.299 61.2073 169.272 60.4912 167.202C59.9369 165.6 59.5519 163.937 59.1281 162.292C58.8699 161.289 58.7615 160.239 58.4113 159.273C58.3072 158.986 57.6223 158.805 57.1852 158.762C55.6782 158.614 55.382 158.423 54.8711 156.915C54.1816 154.88 53.4451 152.857 52.847 150.795C52.5187 149.663 52.3379 148.467 52.2575 147.289C52.0884 144.808 51.8953 142.315 51.968 139.835C52.0244 137.907 52.3884 135.976 52.7589 134.074C53.3222 131.183 54.6991 128.578 55.8264 125.885C57.1379 122.752 58.9991 119.957 61.1707 117.394C63.4574 114.696 65.8223 112.042 68.3651 109.589C71.5798 106.487 75.1514 103.798 78.9881 101.479C80.1209 100.795 81.2172 100.046 82.2971 99.2799C82.5211 99.121 82.709 98.7617 82.725 98.4839C82.8151 96.9174 82.976 95.338 82.861 93.7817C82.7608 92.4265 82.3237 91.0968 82.042 89.7545C81.8816 88.99 81.2446 88.8105 80.6386 88.6772C75.9078 87.6363 71.7346 85.4052 67.7885 82.69C66.9288 82.0985 66.1352 81.41 65.2675 80.8319C64.9616 80.6281 64.5271 80.5476 64.1477 80.5369C62.8884 80.5015 61.6188 80.6168 60.3691 80.5012C58.5824 80.336 57.0042 79.5294 55.5979 78.4564C54.7657 77.8216 54.1273 76.9383 54.2919 75.8138C54.4626 74.6473 55.0754 73.7099 56.2024 73.1968C56.5384 73.0438 56.879 72.901 57.2175 72.7535C56.7807 72.4234 56.3759 71.8702 55.9015 71.8022C53.9986 71.5294 52.5923 70.3915 51.1302 69.3236C51.0678 69.278 50.9949 69.2242 50.967 69.1574C50.5234 68.0953 50.4373 68.9353 50.2533 69.288C49.2472 71.2178 48.2417 73.1479 47.227 75.0731C47.1463 75.2263 47.0214 75.3852 46.8755 75.4689C46.5855 75.6352 46.2664 75.751 45.9593 75.8877C45.8937 75.4979 45.6767 75.0577 45.7871 74.7266C46.4892 72.6228 47.3478 70.5685 47.9881 68.4476C48.5306 66.6508 48.9582 64.8027 49.2383 62.9474C49.6092 60.491 49.7897 58.0057 50.0457 55.5322C50.1108 54.9034 50.1612 54.2726 50.1978 53.6415C50.2072 53.479 50.1386 53.3119 50.1058 53.1469C49.9821 53.2776 49.7833 53.3899 49.7461 53.5418C49.2514 55.566 48.2554 57.3757 47.221 59.1416C46.2286 60.8357 45.1003 62.4619 43.9112 64.0263C42.2396 66.2256 40.0129 67.8451 37.8377 69.5065C37.279 69.9333 36.77 70.4304 36.1868 70.8181C35.7409 71.1145 35.1325 71.329 34.7843 70.7585C34.6085 70.4704 34.6328 69.841 34.8377 69.5738C36.7715 67.0523 38.1417 64.2524 39.0923 61.2385C39.7569 59.1314 40.3327 57.0035 40.512 54.7846C40.6312 53.3082 40.8722 51.8405 40.962 50.3631C41.1112 47.9062 41.2187 45.4455 41.2782 42.9848C41.3569 39.7338 41.6247 36.5118 42.8666 33.4716C43.745 31.3213 44.8653 29.2985 46.3573 27.4823C47.8485 25.667 49.6214 24.1896 51.6412 23.0562C52.761 22.4279 54.0465 22.0242 55.307 21.7375C56.4783 21.471 57.7174 21.3905 58.9233 21.4122C61.2378 21.4537 63.5108 21.8454 65.7464 22.4762C67.9826 23.1071 70.2049 23.7669 72.276 24.84C72.8174 25.1205 73.2991 25.5142 73.8203 25.8362C74.1318 26.0287 74.4506 26.2832 74.788 25.8307C76.1957 23.9434 79.3737 24.1508 81.0231 25.7027C81.9688 26.5925 82.7919 27.6267 83.8018 28.4306C85.1494 29.5034 86.1341 30.8569 87.0777 32.2414C88.294 34.026 89.3502 35.9209 89.8881 38.0303C90.1002 38.8619 90.1051 39.7663 90.0777 40.6336C90.0453 41.6619 90.7375 42.218 91.3292 42.8531C91.3612 42.8875 91.6445 42.754 91.7508 42.6418C92.2898 42.072 92.8819 41.7427 93.7204 41.6997C94.9891 41.6346 95.8723 42.2383 96.3182 43.2528C96.9762 44.7496 97.4968 46.326 97.892 47.9142C98.3665 49.8214 98.6636 51.7739 99.0059 53.7124C99.1619 54.5962 99.1242 55.5292 99.3819 56.3768C99.8651 57.9658 100.522 59.501 101.065 61.0731C101.771 63.1195 102.248 65.224 102.448 67.3812C102.586 68.8731 102.747 70.3705 102.748 71.8656C102.751 74.2107 102.227 76.4853 101.68 78.761C101.47 79.6375 101.663 80.6111 101.672 81.6186ZM69.4455 48.0628C68.9851 48.6797 68.5662 49.3337 68.0561 49.9063C66.7053 51.4225 65.3636 52.9525 63.9242 54.3823C62.8686 55.4309 61.669 56.3354 60.5216 57.2898C60.3202 57.4574 60.0599 57.5542 59.8268 57.6837C59.8656 57.3835 59.8115 57.0241 59.9588 56.7931C60.6988 55.6321 61.5746 54.5513 62.2459 53.3545C63.2257 51.6078 64.0756 49.7881 64.9672 47.9928C65.0317 47.8628 64.9848 47.6775 64.9897 47.5179C64.8823 47.6236 64.7489 47.713 64.6713 47.8373C63.5597 49.6176 62.4173 51.3802 61.359 53.1918C59.8916 55.7036 58.1117 57.97 56.146 60.0999C56.0465 60.2077 55.8631 60.2382 55.7188 60.3047C55.6802 60.1082 55.5573 59.8788 55.619 59.7216C55.7946 59.274 56.0494 58.8579 56.2658 58.4257C57.4273 56.1065 58.6961 53.8107 58.1703 51.0615C58.1107 50.7501 57.8891 50.4696 57.7427 50.1747C57.64 50.3978 57.5233 50.6157 57.4367 50.8448C56.4565 53.4369 55.4598 56.0229 54.512 58.6268C53.9176 60.2596 53.3787 61.9137 52.864 63.5734C52.7716 63.8711 52.8058 64.3192 52.9738 64.5678C53.874 65.8998 54.8213 67.2009 55.7793 68.4927C56.6259 69.6344 57.4353 70.8163 58.3914 71.8612C59.7772 73.3758 61.2168 74.8546 62.7506 76.2168C64.3979 77.6798 66.1279 79.0634 67.9164 80.3504C70.7027 82.3552 73.6361 84.1087 76.8489 85.3953C79.463 86.4422 82.134 87.2155 84.9326 87.3729C86.4689 87.4592 88.0462 87.3262 89.5676 87.0696C93.777 86.3598 96.8407 83.9693 98.8424 80.2517C100.454 77.2578 100.793 73.9549 100.88 70.6213C100.895 70.0451 100.81 69.4619 100.728 68.8883C100.488 67.2187 100.272 65.5437 99.9618 63.8866C99.4613 61.2093 98.6531 58.6198 97.4417 56.1742C96.2836 53.8363 95.1956 51.4517 93.8642 49.214C91.4426 45.144 88.2451 41.6711 84.9852 38.2638C84.8912 38.1656 84.7661 38.0973 84.6555 38.0151C84.5915 38.1711 84.444 38.3479 84.4769 38.4797C84.7004 39.3735 84.9048 40.2796 85.2326 41.1369C85.4293 41.6513 85.9005 42.0574 86.1227 42.5669C86.2217 42.7939 86.0736 43.374 85.929 43.4155C85.505 43.5373 84.9801 43.5986 84.5771 43.454C82.446 42.6891 80.3455 41.8398 78.2233 41.0492C77.2734 40.6953 76.8726 40.9814 76.4694 41.902C75.8987 43.2051 75.3218 44.5258 74.5606 45.7199C73.68 47.1012 72.6721 48.4214 71.576 49.6389C70.7774 50.5259 69.7586 51.2195 68.8068 51.9592C68.6467 52.0836 68.328 52.0041 68.0826 52.0188C68.1263 51.7886 68.1155 51.5274 68.2252 51.3349C68.4445 50.9504 68.7403 50.6106 68.9862 50.2401C70.3732 48.15 71.8251 46.097 72.7958 43.7633C72.8831 43.5533 72.8656 43.2998 72.8968 43.0665C72.7309 43.2259 72.5283 43.3612 72.405 43.5486C71.436 45.0216 70.4822 46.5046 69.4455 48.0628ZM41.7563 56.6666C41.652 57.1441 41.537 57.6195 41.4452 58.0993C40.9738 60.5627 40.1924 62.9302 39.1429 65.2005C38.7466 66.0579 38.1548 66.8238 37.674 67.6442C37.5752 67.8129 37.5742 68.039 37.528 68.2386C37.7092 68.1646 37.9438 68.1398 38.0635 68.0094C39.8905 66.0203 42.1627 64.5161 43.8331 62.3237C46.1824 59.2404 47.8466 55.8416 49.27 52.2838C49.6456 51.3449 50.0495 50.4143 50.5064 49.5133C50.6122 49.3047 50.9884 49.2332 51.2401 49.0987C51.3119 49.3557 51.4398 49.6112 51.447 49.87C51.5443 53.3722 51.3905 56.8639 50.8171 60.3227C50.5449 61.9643 50.1756 63.5928 49.7806 65.2102C49.4532 66.5509 49.0202 67.8656 48.6463 69.1953C48.6162 69.3024 48.6819 69.4365 48.7031 69.5581C48.7921 69.4789 48.9174 69.4167 48.9641 69.3176C49.2313 68.7512 49.4959 68.1825 49.7319 67.6026C50.9757 64.5463 52.2362 61.4965 53.4379 58.4236C54.035 56.8969 54.5508 55.3358 55.0442 53.7717C55.5109 52.2923 55.8634 50.7767 56.3365 49.2996C56.6536 48.3096 58.2263 47.8662 58.7067 48.6349C59.1321 49.3153 59.5539 50.1594 59.5351 50.9203C59.5025 52.2371 59.1234 53.5448 58.9008 54.8582C58.8658 55.0646 58.8891 55.2809 58.8855 55.4926C59.0298 55.3488 59.2082 55.226 59.3126 55.0575C59.7867 54.2921 60.2724 53.531 60.6941 52.7366C61.6006 51.0291 62.4774 49.3057 63.3516 47.5813C63.7331 46.8288 64.0677 46.0526 64.4433 45.2969C64.7169 44.7463 65.1981 44.7531 65.6826 44.9348C66.105 45.0931 66.4882 45.3617 66.2877 45.892C65.6059 47.6944 64.9445 49.5075 64.1741 51.2723C63.7394 52.2678 63.0997 53.173 62.5691 54.1282C62.4825 54.284 62.483 54.4882 62.4432 54.67C62.5722 54.5684 62.7233 54.4853 62.8268 54.3622C63.589 53.4555 64.3374 52.5371 65.0987 51.6295C65.96 50.6026 66.9029 49.6351 67.6815 48.5494C69.3164 46.2698 70.8586 43.9239 72.463 41.6221C72.6562 41.345 72.9695 41.0839 73.2818 40.98C73.5151 40.9023 73.8464 41.0659 74.1132 41.1737C74.1946 41.2066 74.2744 41.4345 74.2402 41.5333C73.8698 42.604 73.5757 43.7172 73.0659 44.7197C72.3286 46.1696 71.4268 47.5356 70.6073 48.9443C70.528 49.0807 70.5334 49.2663 70.4995 49.429C70.6469 49.3613 70.8261 49.3257 70.9346 49.2186C71.1091 49.0463 71.2298 48.8211 71.3853 48.6279C73.2203 46.3488 74.7367 43.9021 75.7322 41.1199C76.2314 39.7245 76.2277 39.5949 77.6827 39.7145C78.6039 39.7902 79.5315 40.0007 80.4137 40.2832C81.4194 40.6054 82.3722 41.09 83.362 41.4676C83.5583 41.5425 83.8174 41.4529 84.0475 41.4391C84.0299 41.2404 84.0195 41.0407 83.9929 40.8431C83.9466 40.499 83.8776 40.1576 83.8405 39.8126C83.733 38.8123 83.6216 37.8118 83.5519 36.8086C83.5412 36.6538 83.7133 36.4431 83.8586 36.3387C83.9322 36.2858 84.1612 36.3784 84.2734 36.4652C84.478 36.6235 84.6175 36.9303 84.8369 36.9945C86.7287 37.5481 87.9459 38.9385 89.138 40.3716C89.2278 40.4795 89.3673 40.546 89.4838 40.6317C89.4988 40.4688 89.557 40.2961 89.5222 40.1447C89.1421 38.4906 88.4814 36.9689 87.4412 35.6099C86.1274 33.8934 84.9384 32.0723 83.526 30.4434C82.573 29.3444 81.3592 28.4583 80.2013 27.5548C79.3503 26.8908 78.4704 26.2196 77.2288 26.54C76.0163 26.8529 75.7379 27.4177 76.4062 28.4299C76.4864 28.5514 76.6038 28.6764 76.6163 28.808C76.6335 28.9906 76.5677 29.1811 76.5374 29.3682C76.3637 29.2875 76.088 29.2507 76.0316 29.1196C75.2949 27.4061 73.7492 26.6283 72.2041 25.9539C70.5506 25.2321 68.8195 24.6731 67.0933 24.1363C63.7849 23.1075 60.4023 22.399 56.9219 22.6781C55.5565 22.7877 54.1589 23.153 52.8911 23.6793C50.6316 24.6173 48.8253 26.2132 47.195 28.0449C45.5481 29.8952 44.4746 32.0651 43.6748 34.3343C42.8289 36.734 42.521 39.2791 42.5369 41.8432C42.5456 43.2426 42.5761 44.6434 42.5298 46.0414C42.4586 48.1891 42.3622 50.3371 42.2138 52.4806C42.1206 53.8279 41.9127 55.1672 41.7563 56.6666ZM102.454 91.5524C101.482 88.5204 100.827 85.425 100.569 82.2477C100.553 82.0389 100.431 81.8386 100.358 81.6344C100.222 81.7761 100.037 81.8947 99.9586 82.063C99.1673 83.7534 97.857 84.9857 96.4472 86.1465C93.865 88.2728 90.8125 89.1691 87.5685 89.4045C86.09 89.5118 84.5836 89.2276 83.0889 89.1349C82.9556 89.1267 82.7941 89.195 82.688 89.2804C82.6315 89.3259 82.621 89.5102 82.6659 89.5878C83.9319 91.7749 84.2046 94.1908 84.306 96.6468C84.3177 96.932 84.2407 97.2416 84.3265 97.4995C84.6561 98.4907 84.5316 99.3364 83.675 100.007C83.4187 100.208 83.1276 100.38 82.9229 100.625C82.7722 100.805 82.591 101.179 82.6719 101.299C83.35 102.305 83.9058 103.534 84.8507 104.183C85.9656 104.949 87.1804 105.703 88.6634 105.902C90.8356 106.194 92.8601 105.93 94.815 104.98C96.7472 104.041 98.3917 102.75 99.8942 101.201C101.304 99.7462 102.456 98.1266 103.492 96.4198C103.882 95.7785 104.263 95.0435 103.727 94.1795C103.235 93.3878 102.923 92.4846 102.454 91.5524ZM63.1889 78.8809C61.6874 77.4316 60.1913 75.9766 58.6804 74.5373C58.3374 74.2105 57.9803 73.7667 57.5642 73.6755C56.6656 73.4784 55.8863 74.1727 55.4437 75.2105C55.1927 75.7994 55.5268 76.7979 56.1815 77.1715C56.9525 77.6114 57.7467 78.0808 58.5924 78.304C59.9901 78.6729 61.4367 78.8577 62.8649 79.1073C62.936 79.1197 63.0283 79.0113 63.1889 78.8809ZM94.6317 47.437C95.0904 48.2606 95.5407 49.0891 96.0144 49.9039C96.1109 50.0698 96.2952 50.1846 96.439 50.3229C96.4623 50.1246 96.5399 49.9148 96.5005 49.7299C96.1501 48.0847 95.8366 46.428 95.3903 44.8083C95.1563 43.959 94.9894 43.0086 93.9157 42.6247C93.1079 42.3358 92.632 42.7594 92.1535 43.2069C91.6834 43.6466 92.1802 43.9478 92.4056 44.2719C93.1212 45.3012 93.8375 46.3299 94.6317 47.437ZM53.6449 70.1204C54.1654 70.4324 54.6789 70.7571 55.2108 71.0481C55.3625 71.131 55.5677 71.1159 55.7484 71.1457C55.6776 70.9651 55.6383 70.7629 55.5313 70.6071C54.4746 69.0675 53.4129 67.5313 52.3345 66.0069C52.1922 65.8058 51.9708 65.4144 51.7591 66.017C51.5366 66.6501 51.2376 67.256 50.9934 67.8821C50.9498 67.9939 50.9585 68.2174 51.03 68.2691C51.866 68.8734 52.7185 69.4548 53.6449 70.1204Z" fill="white"/>
<path fill-rule="evenodd" clip-rule="evenodd" d="M84.9333 147.636C84.7864 147.026 84.4471 146.463 84.531 145.971C84.7278 144.817 85.7524 144.82 86.7878 145.364C87.1592 145.56 87.4405 145.92 87.7862 146.173C87.9314 146.28 88.1368 146.304 88.3148 146.366C88.2812 146.188 88.3094 145.95 88.2041 145.842C87.444 145.06 87.1008 144.078 87.0348 143.048C87.0033 142.557 87.2556 141.938 87.5882 141.561C87.9685 141.13 88.8895 141.358 89.4565 141.92C91.5461 143.99 93.6158 146.08 95.7065 148.15C95.9466 148.387 96.2552 148.572 96.5607 148.724C97.2413 149.061 97.6301 148.896 97.9177 148.193C98.4417 146.912 100.11 145.653 101.333 145.778C102.723 145.921 103.39 146.695 102.68 148.091C102.326 148.787 101.8 149.394 101.37 150.053C100.277 151.728 100.568 152.98 102.17 154.219C105.159 156.53 108.762 157.43 112.189 158.743C113.702 159.323 115.247 159.722 116.884 159.684C118.112 159.655 119.382 159.842 120.558 159.588C122.03 159.27 123.076 158.1 123.981 156.962C124.986 155.698 126.009 154.375 126.653 152.915C127.576 150.825 128.245 148.611 128.868 146.406C129.405 144.501 129.78 142.544 130.126 140.593C130.375 139.188 130.438 137.751 130.619 136.333C130.804 134.878 131.011 133.425 131.263 131.981C131.295 131.799 131.654 131.674 131.861 131.522C131.935 131.736 132.089 131.958 132.07 132.163C131.974 133.183 131.845 134.2 131.706 135.216C131.454 137.064 131.204 138.913 130.921 140.757C130.685 142.296 130.502 143.852 130.12 145.355C129.632 147.275 128.991 149.157 128.373 151.042C127.532 153.603 126.096 155.797 124.314 157.821C123.417 158.84 122.418 159.634 121.228 160.203C120.733 160.439 120.152 160.579 119.602 160.604C117.448 160.701 115.29 160.647 113.219 159.98C111.522 159.433 109.871 158.746 108.191 158.148C105.638 157.239 103.203 156.103 101.048 154.435C99.974 153.603 99.5948 151.966 100.307 150.504C100.701 149.697 101.26 148.972 101.652 148.165C101.839 147.78 102.368 147.279 101.731 146.854C101.227 146.519 100.714 146.682 100.195 146.983C99.0944 147.623 98.6547 148.78 97.9489 149.726C97.502 150.325 96.919 150.552 96.4098 150.089C94.9404 148.751 93.526 147.352 92.1039 145.963C91.0442 144.927 90.012 143.864 88.9506 142.83C88.8319 142.715 88.5452 142.618 88.4392 142.682C88.3091 142.761 88.1887 143.05 88.2346 143.193C88.5212 144.089 88.7656 145.015 89.1972 145.841C89.706 146.814 90.3407 147.734 91.0157 148.604C91.5018 149.23 92.1393 149.74 92.7175 150.292C92.8792 150.447 93.0912 150.552 93.2383 150.717C93.3075 150.795 93.278 150.961 93.2932 151.087C93.1787 151.084 93.0373 151.123 92.9536 151.071C91.4199 150.111 89.8758 149.167 88.3726 148.161C87.7054 147.715 87.1355 147.125 86.495 146.635C86.3355 146.513 86.0735 146.525 85.8586 146.476C85.863 146.669 85.7973 146.903 85.883 147.049C86.6119 148.289 87.3431 149.528 88.1227 150.736C89.1603 152.344 90.4921 153.651 92.2109 154.54C92.3157 154.594 92.3332 154.817 92.3912 154.961C92.2469 154.991 92.0784 155.084 91.9626 155.04C91.5584 154.885 91.1695 154.689 90.78 154.497C89.7401 153.986 88.7065 153.462 87.6602 152.964C87.5311 152.902 87.3404 152.97 87.1783 152.978C87.2708 153.159 87.3187 153.397 87.4638 153.511C87.987 153.924 88.524 154.326 89.0901 154.677C90.6641 155.652 92.2301 156.646 93.8508 157.538C94.6018 157.952 95.537 158.039 96.272 158.472C97.1275 158.976 97.9181 159.635 98.6214 160.341C99.3618 161.085 99.9246 162.002 100.638 162.776C101.972 164.221 103.303 165.675 104.734 167.02C107.191 169.33 110.089 170.86 113.402 171.571C115.102 171.935 116.787 172.483 118.505 172.624C121.307 172.855 124.177 173.31 126.909 172.312C128.099 171.877 129.161 171.045 130.214 170.299C131.039 169.716 131.819 169.043 132.516 168.311C133.492 167.285 134.444 166.22 135.278 165.078C136.54 163.352 137.79 161.603 138.863 159.759C140.028 157.758 141.043 155.663 142.017 153.56C142.978 151.485 143.794 149.343 144.697 147.241C145.514 145.337 146.321 143.427 147.211 141.557C147.732 140.463 148.361 139.414 149.03 138.403C149.342 137.933 149.284 137.63 148.891 137.375C146.958 136.119 144.988 134.94 142.789 134.169C140.88 133.5 139.034 132.647 137.114 132.016C135.637 131.53 134.099 131.196 132.567 130.913C130.465 130.523 129.921 129.872 129.818 127.695C129.65 124.144 130.385 120.791 131.821 117.569C132.184 116.754 132.543 115.933 132.983 115.16C133.107 114.942 133.523 114.759 133.789 114.78C134.37 114.824 134.226 115.221 134.058 115.598C133.508 116.83 132.927 118.05 132.44 119.307C131.684 121.26 130.94 123.213 130.749 125.34C130.627 126.704 130.405 128.053 130.943 129.364C131.044 129.609 131.341 129.888 131.589 129.937C133.116 130.239 134.669 130.416 136.185 130.757C137.962 131.156 139.777 131.513 141.457 132.185C144.428 133.372 147.353 134.702 149.923 136.672C150.079 136.792 150.257 136.883 150.409 137.007C151.403 137.816 151.58 137.736 152.373 136.675C153.319 135.409 153.671 133.93 154.155 132.48C155.031 129.856 155.698 127.191 156.123 124.456C156.57 121.584 156.094 118.852 155.083 116.172C154.725 115.224 154.365 114.271 154.114 113.293C154.04 113.007 154.243 112.471 154.485 112.325C154.827 112.119 155.182 112.361 155.337 112.809C155.895 114.428 156.565 116.014 157.025 117.659C157.415 119.054 157.691 120.504 157.796 121.945C157.879 123.088 157.732 124.277 157.496 125.406C157.119 127.212 156.684 129.02 156.084 130.762C155.489 132.488 154.749 134.18 153.901 135.797C153.376 136.798 152.564 137.659 151.81 138.522C151.618 138.742 151.111 138.877 150.829 138.79C150.276 138.62 150.061 138.809 149.846 139.266C148.439 142.256 146.98 145.222 145.603 148.225C144.319 151.029 143.179 153.899 141.86 156.685C140.305 159.97 138.275 162.977 136.074 165.862C135.142 167.083 134.225 168.341 133.128 169.402C131.332 171.138 129.382 172.718 126.921 173.456C124.951 174.047 122.942 174.053 120.918 173.768C120.216 173.669 119.496 173.697 118.795 173.595C117.573 173.419 116.349 173.234 115.144 172.969C112.486 172.385 109.914 171.534 107.552 170.157C106.535 169.564 105.526 168.92 104.632 168.16C103.374 167.091 102.183 165.933 101.042 164.738C99.8112 163.451 98.7117 162.037 97.4716 160.759C96.9347 160.206 96.2173 159.804 95.532 159.423C93.8825 158.507 92.147 157.733 90.5534 156.732C89.1456 155.846 87.8826 154.731 86.5568 153.716C86.4953 153.669 86.4446 153.607 86.3903 153.551C85.9863 153.132 85.4374 152.639 85.816 152.088C85.9816 151.847 86.7591 152.026 87.2588 152.016C87.4496 152.012 87.6406 152.013 87.8314 152.012C87.7334 151.864 87.6363 151.716 87.5373 151.569C86.6695 150.284 85.8014 148.999 84.9333 147.636Z" fill="white"/>
<path fill-rule="evenodd" clip-rule="evenodd" d="M71.7535 141.73C71.4748 140.825 71.2273 139.962 71.0034 139.093C70.9651 138.944 71.0279 138.769 71.044 138.606C71.1892 138.695 71.4196 138.751 71.4663 138.876C71.855 139.915 72.2282 140.961 72.5711 142.016C73.3777 144.498 74.1673 146.986 74.959 149.473C75.443 150.994 75.8624 152.537 76.4109 154.034C77.1483 156.046 78.0023 158.015 78.7702 160.016C80.0218 163.278 81.1876 166.574 82.5004 169.811C83.2875 171.752 84.3086 173.597 85.1795 175.505C85.6889 176.622 86.1011 177.782 86.5747 178.916C86.7761 179.397 86.6828 179.827 86.2225 179.994C85.7968 180.149 85.4496 179.962 85.2117 179.459C84.107 177.125 82.8881 174.844 81.821 172.494C80.7562 170.149 79.7682 167.765 78.8454 165.36C77.4985 161.85 76.1976 158.32 74.9634 154.769C74.4225 153.212 74.0699 151.588 73.6755 149.984C73.0291 147.355 72.4176 144.717 71.7956 142.081C71.7722 141.983 71.7926 141.873 71.7535 141.73Z" fill="white"/>
<path fill-rule="evenodd" clip-rule="evenodd" d="M108.36 53.6554C107.867 53.2834 108.183 52.9122 108.415 52.7755C109.053 52.3992 109.729 51.97 110.437 51.8565C111.503 51.6858 112.609 51.7355 113.697 51.7617C113.946 51.7677 114.244 52.0154 114.416 52.2336C114.558 52.4144 114.675 52.8146 114.576 52.9408C114.421 53.1396 114.009 53.3538 113.821 53.2774C112.354 52.6804 111.005 52.9083 109.752 53.7837C109.23 54.1482 108.822 54.1506 108.36 53.6554Z" fill="white"/>
<path fill-rule="evenodd" clip-rule="evenodd" d="M112.466 48.4535C111.049 48.2618 109.71 47.9699 108.483 48.8956C108.171 49.1307 107.76 49.2557 107.421 48.8141C107.056 48.3374 107.509 48.1513 107.74 47.9562C108.921 46.9608 110.327 46.7793 111.802 46.9384C112.109 46.9715 112.44 47.0546 112.695 47.2163C113.018 47.4207 113.275 47.7292 113.561 47.9928C113.222 48.1464 112.883 48.2999 112.466 48.4535Z" fill="white"/>
<path fill-rule="evenodd" clip-rule="evenodd" d="M123.143 65.4664C122.826 64.628 122.944 63.8752 123.428 63.1974C123.547 63.031 123.79 62.9366 123.995 62.8566C124.091 62.8192 124.231 62.895 124.351 62.9194C124.299 63.0267 124.255 63.1388 124.194 63.2403C123.88 63.7599 123.61 64.1638 123.988 64.8975C124.363 65.6246 124.57 65.2129 124.898 65.0391C125.171 64.8946 125.438 64.7397 125.708 64.5895C125.561 64.9295 125.488 65.3348 125.254 65.5975C124.543 66.3982 123.651 66.3334 123.143 65.4664Z" fill="white"/>
<path fill-rule="evenodd" clip-rule="evenodd" d="M124.825 57.5272C124.6 57.5893 124.454 57.6513 124.307 57.7134C124.308 57.5363 124.248 57.2387 124.32 57.203C124.635 57.0458 125.001 56.8439 125.323 56.8809C125.928 56.9505 126.08 57.5365 126.047 58.0045C126.011 58.5148 125.756 59.013 125.57 59.5067C125.535 59.6004 125.351 59.7247 125.283 59.7005C125.163 59.6577 124.984 59.4957 124.998 59.4119C125.066 59.0087 125.16 58.6038 125.302 58.2208C125.461 57.7945 125.518 57.4832 124.825 57.5272Z" fill="white"/>
<path fill-rule="evenodd" clip-rule="evenodd" d="M86.6147 74.5395C84.9258 75.2107 83.2758 75.8422 81.4682 75.8302C81.39 75.8297 81.301 75.8548 81.2357 75.8259C80.9559 75.7017 80.6831 75.5618 80.4077 75.4276C80.6939 75.301 80.9704 75.1411 81.2681 75.0545C82.0373 74.8306 82.8563 74.7319 83.5824 74.4155C85.128 73.7422 86.6771 73.0486 88.1333 72.2053C90.0629 71.0878 91.3184 69.4134 91.6599 67.1458C91.7116 66.8027 91.6995 66.4307 91.8365 66.1258C91.9482 65.8773 92.2386 65.7091 92.4497 65.5052C92.6036 65.7097 92.904 65.9259 92.8887 66.1169C92.7323 68.0764 92.3651 69.9308 90.9576 71.4938C89.7353 72.851 88.2368 73.7121 86.6147 74.5395Z" fill="white"/>
<path fill-rule="evenodd" clip-rule="evenodd" d="M61.9372 64.2538C61.7286 64.8963 61.5501 65.4747 61.2944 66.0167C61.2093 66.1971 60.9261 66.2839 60.7334 66.4135C60.7175 66.177 60.6022 65.8817 60.7016 65.7135C61.3991 64.5341 61.01 63.3027 60.9467 62.0833C60.9256 61.6782 60.9209 61.2561 61.0082 60.864C61.4847 58.7241 62.4766 56.926 64.4124 55.7354C64.908 55.4306 65.4174 55.3973 65.6015 55.8652C65.728 56.1867 65.5063 56.8764 65.2127 57.0928C63.7707 58.1557 62.9161 59.603 62.4021 61.2425C62.1092 62.177 62.0833 63.1952 61.9372 64.2538Z" fill="white"/>
<path fill-rule="evenodd" clip-rule="evenodd" d="M85.4028 51.5824C85.5593 51.871 85.7843 52.2413 85.6802 52.4283C85.5357 52.6878 85.1568 52.9393 84.8561 52.9687C83.262 53.1245 82.4605 53.909 82.4349 55.4775C82.4244 56.1187 82.1471 56.577 81.5043 56.5656C80.8965 56.5548 80.6248 56.0329 80.5618 55.4871C80.3874 53.9775 81.3775 52.3009 83.1039 51.7517C83.8141 51.5257 84.5494 51.1569 85.4028 51.5824Z" fill="white"/>
<path fill-rule="evenodd" clip-rule="evenodd" d="M68.8596 66.7961C68.2395 67.2768 68.362 67.9133 68.3494 68.5157C68.3373 69.0897 68.1531 69.4449 67.46 69.4359C66.8947 69.4285 66.6908 69.1547 66.6343 68.6887C66.3796 66.5877 67.4346 65.1132 69.3239 64.4941C69.7669 64.3488 70.4219 64.4263 70.8202 64.6659C71.4523 65.0463 71.2232 65.6727 70.4532 65.9834C69.9181 66.1993 69.4157 66.4963 68.8596 66.7961Z" fill="white"/>
<path fill-rule="evenodd" clip-rule="evenodd" d="M83.2515 65.7793C83.8309 66.7057 83.928 67.6059 83.3688 68.525C82.9124 69.275 81.8254 69.634 81.3464 69.1932C80.8589 68.7445 80.9198 68.3957 81.5825 67.8393C82.4211 67.1352 82.4203 67.0533 81.9658 66.0768C81.3321 64.7154 80.1412 63.8408 79.1651 62.7771C79.0341 62.6343 78.9809 62.4201 78.8916 62.2389C79.1249 62.2512 79.4403 62.1696 79.5786 62.2905C80.7894 63.3493 81.9695 64.4433 83.1537 65.5322C83.1988 65.5737 83.1939 65.6696 83.2515 65.7793Z" fill="white"/>
<path fill-rule="evenodd" clip-rule="evenodd" d="M83.0563 46.2635C82.0796 46.3161 81.1304 46.0529 80.3095 46.6007C79.8914 46.8798 79.5719 47.3149 79.1407 47.5627C78.8729 47.7166 78.4793 47.6518 78.1422 47.6851C78.1116 47.3507 77.9294 46.909 78.077 46.7006C78.6666 45.8678 79.5236 45.2939 80.5327 45.191C82.2411 45.0168 83.9075 45.3226 85.5072 45.9697C85.8641 46.1141 86.2562 46.1714 86.6135 46.3149C86.7928 46.3868 86.9306 46.5624 87.0871 46.6912C86.9062 46.7572 86.7192 46.8917 86.5458 46.8759C86.1071 46.8358 85.6746 46.7276 85.2394 46.6478C84.5379 46.5192 83.8361 46.3916 83.0563 46.2635Z" fill="white"/>
<path fill-rule="evenodd" clip-rule="evenodd" d="M89.1178 76.2605C89.9324 75.4458 90.5181 75.3142 91.0781 75.8039C91.1705 75.8846 91.2153 76.0197 91.2821 76.1298C91.1759 76.1864 91.0655 76.2984 90.9642 76.2907C90.2285 76.2347 89.6442 76.3983 89.412 77.204C89.3874 77.2893 89.1767 77.4078 89.1196 77.3788C89.0034 77.3197 88.8491 77.1608 88.8605 77.0599C88.8894 76.8015 89.0004 76.5524 89.1178 76.2605Z" fill="white"/>
</svg>
