<svg width="200" height="200" viewBox="0 0 200 200" fill="none" xmlns="http://www.w3.org/2000/svg">
<path fill-rule="evenodd" clip-rule="evenodd" d="M18.3704 154.119C17.9626 152.243 17.5154 150.376 17.1249 148.496C16.9361 147.587 16.8281 146.661 16.6997 145.74C16.4602 144.023 16.2235 142.306 16.0047 140.586C15.9278 139.981 15.8726 139.37 15.8657 138.761C15.8095 133.826 15.6753 128.889 15.7615 123.956C15.8014 121.672 16.2751 119.395 16.5591 117.115C16.9326 114.117 17.7174 111.213 18.6228 108.34C19.9258 104.206 21.2452 100.076 22.5603 95.9457C23.2668 93.7266 24.0255 91.5226 24.6676 89.2851C24.9639 88.2526 25.0837 87.161 25.1982 86.0872C25.3071 85.0664 25.4235 84.0223 25.3256 83.0088C25.1425 81.1126 24.8274 79.2278 24.5281 77.3445C24.2727 75.7369 23.974 74.1358 23.6737 72.5358C23.2071 70.0507 23.0693 67.5428 23.1195 65.021C23.159 63.0318 23.0977 61.0321 23.2846 59.0563C23.5549 56.2003 23.9659 53.3387 25.0935 50.6733C25.9562 48.6339 26.9123 46.619 28.0117 44.699C29.0977 42.8022 30.3872 41.0183 31.6426 39.2235C32.4083 38.1287 33.2197 37.0538 34.115 36.0645C35.4943 34.5403 36.9202 33.0524 38.4041 31.6302C40.7214 29.4092 43.3174 27.5369 46.0763 25.9042C48.68 24.3633 51.4355 23.142 54.3293 22.2478C56.3101 21.6357 58.3079 21.0772 60.2791 20.4366C61.6895 19.9782 63.0413 19.3229 64.4683 18.9372C66.2392 18.4585 68.0491 18.0908 69.8636 17.8163C71.7259 17.5345 73.6125 17.4066 75.4911 17.2422C76.869 17.1215 78.2501 17.0215 79.6319 16.9648C81.4722 16.8892 83.3144 16.8441 85.1562 16.8234C87.2421 16.8 89.3291 16.7829 91.4142 16.8295C93.0051 16.865 94.5955 16.9812 96.183 17.1028C98.3173 17.2662 100.45 17.4513 102.581 17.6615C104.158 17.8171 105.737 17.9832 107.303 18.2246C109.435 18.5533 111.561 18.9286 113.679 19.3375C116.667 19.9142 119.667 20.4499 122.622 21.1695C125.744 21.9296 128.866 22.7494 131.797 24.1101C134.432 25.3336 137.072 26.558 139.636 27.9225C141.971 29.1656 144.202 30.6039 146.487 31.9427C147.364 32.4566 148.276 32.9104 149.146 33.4353C149.729 33.7872 150.317 34.1611 150.815 34.6198C153.08 36.7035 155.324 38.81 157.554 40.9307C158.629 41.9535 159.658 43.0257 160.708 44.0755C161.886 45.254 163.121 46.3825 164.229 47.6238C165.636 49.1995 166.927 50.8787 168.293 52.4916C170.13 54.6607 171.363 57.1907 172.695 59.6693C173.6 61.352 174.163 63.1583 174.824 64.9297C175.276 66.1403 175.793 67.3596 175.999 68.621C176.313 70.5466 177.454 72.076 178.138 73.8147C178.839 75.5963 179.398 77.4344 179.994 79.2564C180.503 80.8151 181.031 82.3712 181.446 83.956C181.827 85.415 182.071 86.91 182.369 88.3905C182.599 89.5296 182.838 90.6672 183.034 91.8121C183.173 92.6242 183.243 93.4478 183.348 94.2657C183.532 95.7008 183.731 97.1341 183.902 98.5707C184.016 99.5298 184.119 100.492 184.178 101.456C184.253 102.667 184.28 103.882 184.324 105.096C184.373 106.449 184.508 107.806 184.446 109.154C184.301 112.331 179.071 125.103 176.96 128.237C175.735 130.054 174.556 131.901 173.299 133.696C171.654 136.047 169.97 138.373 168.27 140.685C166.234 143.453 164.188 146.215 162.096 148.941C161.107 150.229 160.024 151.447 158.942 152.659C158.038 153.673 157.131 154.696 156.124 155.604C154.16 157.377 152.134 159.082 150.116 160.796C147.457 163.054 144.539 164.963 141.524 166.682C139.063 168.084 136.459 169.264 133.836 170.344C129.882 171.973 125.864 173.448 121.859 174.952C118.798 176.102 115.737 177.256 112.638 178.295C110.017 179.173 107.362 179.967 104.685 180.653C102.419 181.234 100.105 181.641 97.8009 182.06C96.1871 182.354 94.5572 182.571 92.9273 182.76C91.3388 182.945 89.7418 183.058 88.1472 183.185C87.3075 183.252 86.4653 183.306 85.6233 183.324C82.8284 183.382 80.0332 183.443 77.2378 183.459C75.8618 183.466 74.4819 183.42 73.1097 183.318C71.1833 183.174 69.2538 183.018 67.3413 182.754C65.1597 182.452 62.9972 182.015 60.8231 181.657C59.034 181.362 57.2322 181.138 55.4503 180.806C52.3914 180.236 49.3292 179.67 46.2959 178.981C43.8681 178.43 41.4509 177.793 39.083 177.026C35.316 175.807 31.7862 174.061 28.5991 171.691C27.5306 170.896 26.4738 170.046 25.5749 169.07C23.4332 166.747 21.711 164.125 20.4662 161.136C19.5135 158.827 18.886 156.491 18.3704 154.119Z" fill="white" fill-opacity="0.1"/>
<ellipse cx="97.6001" cy="63.7332" rx="1.86667" ry="1.86667" fill="#FFB61D"/>
<ellipse cx="78.1333" cy="62.1333" rx="1.86667" ry="1.86667" fill="#FFB61D"/>
<path fill-rule="evenodd" clip-rule="evenodd" d="M124.128 111.645L124.127 111.645C123.767 111.862 123.407 112.078 123.02 112.225C122.083 112.58 121.134 112.901 120.175 113.226L120.174 113.226L120.174 113.226L120.174 113.226L120.173 113.226L120.173 113.226L120.173 113.227L120.172 113.227L120.172 113.227L120.172 113.227L120.171 113.227L120.171 113.227L120.171 113.227L120.17 113.227L120.17 113.228C119.564 113.432 118.954 113.639 118.342 113.856C118.157 113.928 117.994 113.975 117.836 114.021L117.836 114.021C117.799 114.032 117.762 114.043 117.726 114.054C117.179 114.216 116.633 114.381 116.087 114.545L116.08 114.547L116.08 114.547L116.08 114.547L116.079 114.547L116.079 114.547L116.079 114.547L116.078 114.547L116.078 114.547L116.078 114.548L116.077 114.548L116.077 114.548L116.077 114.548L116.076 114.548L116.076 114.548L116.076 114.548C114.701 114.962 113.327 115.375 111.945 115.763C111.385 115.92 110.922 115.744 110.618 115.139C109.862 113.634 109.053 112.156 108.239 110.682C108.182 110.579 108.043 110.523 107.903 110.466L107.903 110.466C107.838 110.44 107.774 110.414 107.717 110.383C107.696 110.455 107.662 110.532 107.629 110.61C107.556 110.778 107.484 110.945 107.537 111.047C108.444 112.791 109.376 114.523 110.351 116.231C110.472 116.442 110.908 116.635 111.149 116.588C112.429 116.336 113.699 116.027 114.961 115.693C115.448 115.564 115.929 115.413 116.41 115.262L116.411 115.262L116.411 115.262L116.411 115.262L116.411 115.262L116.412 115.262L116.412 115.262L116.412 115.262L116.412 115.261L116.412 115.261L116.413 115.261L116.413 115.261L116.413 115.261L116.413 115.261L116.414 115.261L116.414 115.261C117.109 115.043 117.803 114.826 118.513 114.674C120.948 114.153 123.277 113.4 125.367 112.008C126.117 111.508 126.323 110.743 125.958 109.951C125.831 109.674 125.701 109.398 125.571 109.122L125.571 109.122C125.123 108.171 124.675 107.219 124.324 106.232C123.249 103.209 122.039 100.244 120.614 97.3714C119.712 95.5537 118.754 93.7598 117.737 92.0046C116.377 89.6594 114.953 87.3164 112.767 85.6477C111.248 84.4888 109.622 83.3973 107.894 82.6052C105.367 81.4474 102.591 81.1938 99.83 81.0013C99.2658 80.962 98.6727 80.7503 98.1743 80.4723C97.175 79.9147 96.769 78.9271 96.3602 77.9326C96.3154 77.8237 96.2707 77.7148 96.2251 77.6063C96.0234 77.1266 96.348 77.0368 96.5523 76.9945C97.0784 76.8857 97.6342 76.7994 98.1631 76.8529C98.9871 76.9361 99.4405 76.5524 99.7429 75.8692C100.485 74.1932 101.134 72.4887 101.625 70.715C102.304 68.2593 102.884 65.8038 102.822 63.2303C102.795 62.1148 102.801 60.9985 102.807 59.8823C102.811 59.3002 102.814 58.7182 102.812 58.1362C102.812 57.9774 102.793 57.8113 102.774 57.6457C102.735 57.3128 102.697 56.982 102.812 56.7167C103.097 56.0642 103.565 55.4788 104.02 54.9161C104.379 54.471 104.754 54.0388 105.129 53.6066L105.13 53.6065C105.584 53.0828 106.039 52.5592 106.465 52.0128C106.808 51.5729 107.064 51.0125 106.718 50.4282C106.381 49.8576 105.84 49.6259 105.211 49.7678C105.103 49.7921 104.995 49.815 104.886 49.838C104.096 50.0052 103.297 50.1742 102.739 50.8747C102.471 51.2113 102.316 51.2124 102.247 50.7243C102.195 50.3618 102.122 50.0024 102.049 49.643L102.049 49.6428C101.973 49.2706 101.897 48.8983 101.845 48.5227C101.781 48.06 101.738 47.5944 101.695 47.1288L101.695 47.1286C101.654 46.678 101.612 46.2273 101.552 45.7793C101.467 45.1503 101.372 44.5226 101.276 43.895L101.276 43.8948C101.131 42.9448 100.986 41.995 100.879 41.0408C100.816 40.4741 100.659 40.0202 100.278 39.6072C100.081 39.3929 99.8806 39.1806 99.6802 38.9683L99.6802 38.9682C99.0659 38.3175 98.4508 37.6658 97.9209 36.9519C96.4588 34.9817 94.3823 33.9484 92.2274 33.0113C90.8389 32.4075 89.4032 31.9756 87.8764 31.8884C87.2045 31.8501 86.5332 31.8022 85.8618 31.7543L85.8618 31.7543C85.1762 31.7054 84.4906 31.6566 83.8045 31.6178C83.24 31.5859 82.6661 31.5632 82.1087 31.6334C81.8315 31.6683 81.5542 31.8899 81.3256 32.0842C81.0998 32.276 80.885 32.4812 80.6702 32.6863C80.3936 32.9505 80.1171 33.2146 79.8175 33.4497C79.5018 33.6976 79.1674 33.9252 78.8334 34.1525C78.285 34.5257 77.7378 34.8981 77.2763 35.3583C76.7458 35.8872 76.322 36.5247 75.8991 37.161L75.899 37.161C75.7434 37.3952 75.5878 37.6292 75.427 37.8577C74.2337 39.5531 73.3169 41.3854 72.8121 43.4024C72.4997 44.6509 72.2352 45.9119 71.9725 47.1721L71.9309 47.3715C71.7383 48.2941 71.5452 49.2188 71.4239 50.1518L71.4185 50.1931C71.3226 50.9322 71.3154 50.9883 70.6064 50.7261C69.8743 50.4554 69.2433 50.6383 68.7279 51.1349C68.2214 51.623 68.1657 52.2813 68.3417 52.9449C68.8574 54.8885 70.3429 55.7022 72.1186 56.187C72.2736 56.2293 72.4448 56.3805 72.5187 56.5266C73.2843 58.0409 73.3174 59.6517 72.8328 61.2136C72.3866 62.6519 71.858 64.0646 71.3294 65.4774L71.3294 65.4776C71.0962 66.1009 70.863 66.7242 70.6368 67.3496C70.404 67.9939 70.2763 68.5845 70.8098 69.2084C71.9572 70.5504 73.0531 71.9394 73.8809 73.5136C74.2091 74.1378 74.7129 74.5872 75.3886 74.7228C76.0323 74.852 76.1196 75.1703 76.1954 75.7742C76.2953 76.5702 76.5602 77.4067 76.9903 78.0736C77.1268 78.2853 77.495 78.3426 77.8718 78.4012C78.0713 78.4322 78.2732 78.4636 78.4445 78.5185C78.5844 78.5633 78.8065 78.7498 78.7893 78.8256C78.7587 78.9604 78.7289 79.0958 78.6992 79.2313L78.6991 79.2316C78.5563 79.8816 78.4128 80.535 78.1715 81.1486C77.6432 82.4921 76.5195 83.3326 75.4289 84.1484C75.2798 84.2599 75.1314 84.3709 74.9852 84.4827C73.081 85.9385 70.8159 86.7379 68.5401 87.4278C67.4711 87.7519 66.3866 88.0246 65.302 88.2973L65.3019 88.2973L65.3018 88.2974L65.3017 88.2974L65.3015 88.2974L65.3014 88.2975L65.3013 88.2975L65.3012 88.2975L65.301 88.2976L65.3009 88.2976L65.3008 88.2976L65.3006 88.2977L65.3005 88.2977L65.3004 88.2977L65.3003 88.2978C64.5963 88.4748 63.8923 88.6518 63.1924 88.8429C62.7563 88.962 62.3253 89.1028 61.8946 89.2436L61.8945 89.2436L61.8944 89.2436C61.2556 89.4524 60.6173 89.6611 59.9634 89.7982C57.4515 90.3252 55.2358 91.4092 53.2896 93.0693C51.9815 94.1851 51.2793 95.6856 50.5732 97.1945L50.4702 97.4144C49.5159 99.4483 48.6792 101.617 48.5613 103.818C48.5283 104.435 48.5754 105.056 48.6226 105.678C48.6465 105.992 48.6703 106.306 48.6838 106.62C48.7141 107.326 48.7401 108.032 48.7661 108.738C48.8226 110.274 48.8791 111.81 48.9804 113.342C49.0368 114.197 49.1888 115.046 49.3406 115.894C49.3842 116.138 49.4278 116.381 49.4691 116.624C49.5814 117.287 49.7068 117.947 49.8322 118.607C49.9159 119.048 49.9995 119.488 50.0793 119.929C50.1313 120.217 50.1872 120.504 50.243 120.792L50.2431 120.792C50.3933 121.565 50.5436 122.338 50.62 123.119C50.6901 123.836 50.6697 124.563 50.6493 125.288C50.6433 125.503 50.6373 125.718 50.6336 125.932C50.6271 126.31 50.6931 126.616 51.1469 126.513C51.5953 126.412 52.036 126.276 52.4764 126.139C52.6148 126.097 52.7532 126.054 52.8918 126.012C53.3593 125.872 53.6457 126.036 53.706 126.517C53.7656 126.992 53.8182 127.469 53.8707 127.945C53.9504 128.668 54.0302 129.391 54.1347 130.111C54.3887 131.859 54.6682 133.605 54.9696 135.347C55.5229 138.543 56.3205 141.683 57.3683 144.751C58.2999 147.478 59.3076 150.18 60.3249 152.877C60.9109 154.43 61.5376 155.968 62.1643 157.505L62.1644 157.505C62.3245 157.898 62.4847 158.291 62.6441 158.685C63.2902 160.278 63.9503 161.865 64.6112 163.452C64.7646 163.821 64.9162 164.19 65.0677 164.559C65.5122 165.642 65.9567 166.724 66.4475 167.786C66.8735 168.707 67.3576 169.601 67.8415 170.496C67.9843 170.76 68.1271 171.023 68.2683 171.288C68.3122 171.37 68.4004 171.429 68.4886 171.487C68.5295 171.514 68.5704 171.542 68.6069 171.571C68.6245 171.523 68.645 171.475 68.6655 171.426C68.7134 171.314 68.7613 171.201 68.7723 171.085C68.7809 170.994 68.7293 170.895 68.68 170.8L68.6653 170.771C68.6574 170.756 68.6497 170.741 68.6426 170.726C68.478 170.381 68.3077 170.038 68.1374 169.695L68.1373 169.695C67.7804 168.977 67.4235 168.258 67.1188 167.519C66.063 164.955 65.0503 162.374 64.0412 159.791C63.5878 158.631 63.1445 157.467 62.7013 156.302C62.2649 155.156 61.8285 154.01 61.3824 152.867C61.1051 152.157 60.8119 151.452 60.5187 150.747C59.9939 149.486 59.4693 148.225 59.0359 146.933C58.1159 144.189 57.2927 141.41 56.5473 138.614C56.1273 137.038 55.8386 135.426 55.5505 133.817C55.4987 133.528 55.4469 133.238 55.3943 132.949C55.249 132.15 55.1565 131.341 55.064 130.533L55.0639 130.533C55.0324 130.257 55.0008 129.981 54.9671 129.705C54.8208 128.508 54.683 127.309 54.5489 126.11C54.5042 125.711 54.6812 125.521 55.0889 125.392C56.6499 124.898 58.2034 124.381 59.757 123.863L59.7571 123.863L59.7572 123.863L59.7573 123.863L59.7574 123.863L59.7575 123.863L59.7576 123.863L59.7578 123.863L59.7579 123.863L59.758 123.862L59.7581 123.862L59.7583 123.862L59.7585 123.862L59.7588 123.862L59.7591 123.862C60.3105 123.678 60.8619 123.495 61.4136 123.312C61.824 123.176 62.2611 123.046 62.7103 122.912C64.3738 122.416 66.2046 121.87 67.4706 120.805C67.544 120.743 67.7358 120.708 67.7818 120.753C67.8645 120.834 67.923 120.989 67.9142 121.107C67.8705 121.698 67.8175 122.289 67.7644 122.88L67.7644 122.88C67.6598 124.045 67.5552 125.21 67.5224 126.378C67.4808 127.858 67.5519 129.343 67.6228 130.826L67.6228 130.826L67.6229 130.826L67.6229 130.827L67.6229 130.828L67.6229 130.828C67.6323 131.023 67.6416 131.218 67.6507 131.413C67.6944 132.354 67.7646 133.302 67.9333 134.226C68.3627 136.579 69.2536 138.781 70.2997 140.919C70.4518 141.23 70.6327 141.529 70.8132 141.828C71.0833 142.275 71.3528 142.72 71.5242 143.203C71.7862 143.94 72.0633 144.672 72.3403 145.404C73.1011 147.414 73.8621 149.425 74.3138 151.54C74.4559 152.205 74.6219 152.866 74.7878 153.526L74.7878 153.526C74.9719 154.259 75.156 154.991 75.3076 155.731C75.5413 156.871 75.7233 158.022 75.9052 159.173L75.9053 159.173C75.9472 159.438 75.9891 159.703 76.0316 159.968C76.0835 160.291 76.1414 160.615 76.1993 160.938L76.1994 160.938L76.1994 160.938L76.1994 160.938L76.1994 160.938L76.1995 160.939L76.1995 160.939L76.1995 160.939L76.1995 160.939L76.1995 160.939L76.1996 160.939L76.1996 160.939L76.1996 160.939L76.1996 160.94L76.1997 160.94C76.3571 161.819 76.5148 162.699 76.5528 163.583C76.6283 165.343 76.6523 167.105 76.6763 168.867C76.6891 169.808 76.7019 170.748 76.7226 171.689C76.7257 171.829 76.7852 171.968 76.8448 172.107C76.8725 172.171 76.9002 172.236 76.9222 172.301C76.9591 172.235 77.0049 172.171 77.0506 172.106L77.0508 172.106C77.15 171.965 77.2492 171.825 77.2577 171.68C77.3037 170.886 77.3308 170.092 77.3578 169.298L77.3578 169.298L77.3578 169.297L77.3579 169.297L77.3579 169.297L77.3579 169.297L77.3579 169.297L77.3579 169.297L77.3579 169.297L77.3579 169.296L77.3579 169.296L77.3579 169.296L77.3579 169.296L77.3579 169.296L77.3579 169.296C77.3753 168.784 77.3928 168.272 77.4153 167.761C77.426 167.517 77.4514 167.273 77.4768 167.029C77.5149 166.664 77.5529 166.299 77.5414 165.935C77.5294 165.553 77.5185 165.172 77.5077 164.79L77.5077 164.79L77.5077 164.79C77.458 163.045 77.4083 161.298 77.2444 159.563C77.1344 158.399 76.8588 157.248 76.5844 156.102L76.5841 156.101C76.5315 155.881 76.479 155.662 76.4276 155.442C76.3045 154.916 76.1843 154.389 76.0641 153.862C75.6379 151.992 75.2114 150.121 74.6513 148.291C73.7314 145.286 72.4828 142.403 71.0483 139.596C70.3962 138.32 69.8497 136.958 69.4835 135.575C68.7645 132.858 68.7022 130.051 68.6403 127.259L68.6344 126.996C68.6056 125.711 68.6585 124.424 68.7113 123.138L68.7113 123.137C68.7294 122.698 68.7474 122.259 68.7622 121.821C68.7816 121.244 68.8258 120.669 68.8701 120.093C68.8798 119.967 68.8895 119.841 68.8989 119.715C68.9418 119.142 68.9942 118.569 69.0465 117.996L69.0465 117.996L69.0465 117.996L69.0465 117.996L69.0465 117.996L69.0465 117.996L69.0465 117.996L69.0465 117.996L69.0466 117.996L69.0466 117.995L69.0466 117.995L69.0466 117.995L69.0466 117.995L69.0466 117.995L69.0466 117.995L69.0466 117.995C69.1611 116.742 69.2755 115.489 69.2911 114.236C69.3037 113.227 69.2382 112.218 69.1727 111.208L69.1727 111.208C69.1185 110.372 69.0642 109.535 69.0542 108.699C69.0402 107.518 68.6995 106.427 68.3586 105.335C68.2504 104.989 68.1422 104.642 68.0445 104.293C68.0069 104.159 67.868 104.053 67.7292 103.947C67.6649 103.898 67.6006 103.849 67.5463 103.797C67.5251 103.873 67.4946 103.951 67.4641 104.028C67.3975 104.198 67.3308 104.367 67.3612 104.517C67.4222 104.817 67.5132 105.113 67.6041 105.409C67.7312 105.822 67.8581 106.234 67.9019 106.656C68.0981 108.546 68.2841 110.445 68.3145 112.343C68.3273 113.137 68.2652 113.934 68.2033 114.73L68.2033 114.73C68.1341 115.618 68.065 116.505 68.0998 117.389C68.1494 118.651 67.5059 119.321 66.6443 119.961C65.5109 120.803 63.892 121.29 62.4387 121.726L62.4386 121.727L62.4384 121.727L62.4383 121.727L62.438 121.727L62.4377 121.727L62.4371 121.727L62.4365 121.727C62.0522 121.843 61.6795 121.955 61.3305 122.069C59.1582 122.78 56.9988 123.53 54.8395 124.28C53.9479 124.59 53.0563 124.9 52.1638 125.207L52.1488 125.212C51.8504 125.315 51.6043 125.399 51.6047 124.89C51.6052 124.269 51.5408 123.647 51.4767 123.028L51.4733 122.994C51.4369 122.642 51.4011 122.289 51.3654 121.937L51.3654 121.936C51.2273 120.574 51.0891 119.211 50.9094 117.853C50.7997 117.024 50.6663 116.198 50.5331 115.372C50.3738 114.384 50.2145 113.397 50.0954 112.405C49.928 111.01 49.8286 109.6 49.8173 108.196C49.8058 106.773 49.8496 105.35 49.8934 103.928C49.9106 103.369 49.9277 102.811 49.9416 102.252C49.9787 100.754 50.7144 99.3793 51.4319 98.0387L51.432 98.0386C51.7004 97.5371 51.9662 97.0404 52.192 96.5437C53.3371 94.0244 55.4935 92.6353 57.9207 91.654C59.0873 91.1824 60.3042 90.8339 61.5204 90.4857L61.521 90.4855C61.9676 90.3576 62.4141 90.2298 62.858 90.0959C63.8527 89.7958 64.8498 89.5035 65.847 89.2113L65.8477 89.211C67.8154 88.6343 69.7831 88.0576 71.7312 87.4209C73.4687 86.8531 75.1233 86.0397 76.4917 84.7806C76.8665 84.4356 77.051 84.4969 77.3816 84.8129C78.46 85.8436 79.5642 86.8478 80.668 87.8517L80.6685 87.8522L80.6688 87.8524L80.6691 87.8527L80.6694 87.853L80.6697 87.8533L80.6702 87.8537L80.6703 87.8538L80.6705 87.8539L80.671 87.8544L80.8612 88.0274C82.745 89.7409 84.8417 91.1418 87.173 92.1636C87.5184 92.315 88.0841 92.2939 88.4051 92.1072C89.1288 91.6862 89.8057 91.1827 90.4812 90.6802L90.4814 90.6801L90.4814 90.68L90.4815 90.68L90.4815 90.68L90.4816 90.6799L90.4816 90.6799L90.6409 90.5615C90.727 90.4975 90.8132 90.4337 90.8994 90.3701C91.1798 90.1636 91.4607 89.9577 91.7416 89.7517C92.9091 88.8955 94.077 88.0392 95.2125 87.1422C96.4187 86.1893 97.2818 84.9339 98.1419 83.6829L98.1421 83.6825L98.1424 83.6822L98.1427 83.6818L98.1429 83.6814L98.1432 83.681L98.1434 83.6807L98.1437 83.6803L98.144 83.6799L98.1442 83.6795C98.281 83.4806 98.4177 83.2817 98.5557 83.0842C98.6102 83.0062 98.4179 82.6042 98.2946 82.5793C97.8112 82.4814 97.5893 82.7963 97.3566 83.1266L97.3565 83.1268C97.3123 83.1895 97.2677 83.2528 97.2208 83.314C97.0277 83.5658 96.8393 83.8244 96.6505 84.0835C96.0657 84.8862 95.4777 85.6932 94.7387 86.3163C93.5593 87.3106 92.3206 88.2339 91.0815 89.1575L91.0814 89.1576C90.2004 89.8143 89.3192 90.4711 88.4591 91.1537C87.9238 91.5784 87.5298 91.5473 87.0124 91.2553C86.899 91.1913 86.7856 91.1276 86.6722 91.0639C85.4653 90.386 84.2684 89.7137 83.2243 88.7542C81.8823 87.5211 80.4739 86.3599 79.0659 85.199L79.0658 85.199L79.0649 85.1982L79.064 85.1975L79.0631 85.1967L79.0628 85.1965L79.0626 85.1963L79.0623 85.1961L79.0621 85.1959L79.0618 85.1957L79.0616 85.1954L79.0613 85.1952L79.061 85.195L79.0608 85.1948L79.0605 85.1946C78.6597 84.8641 78.2588 84.5337 77.8596 84.2016C77.4878 83.8923 77.5546 83.701 77.8743 83.4086C78.9459 82.4284 79.5208 81.2158 79.6766 79.7527C79.6861 79.6635 79.6893 79.5653 79.6926 79.4633V79.4633C79.7076 79.002 79.725 78.463 80.3421 78.3191C80.9352 78.1808 81.3774 78.5684 81.7314 78.998C81.9588 79.274 82.1758 79.5586 82.3927 79.8432L82.3928 79.8432C82.6627 80.1972 82.9325 80.5512 83.2222 80.8883L83.2766 80.9517C83.8302 81.5976 84.44 82.309 85.4025 81.9762C86.7482 81.5108 88.1066 81.4242 89.5052 81.4077C89.9027 81.403 90.4549 81.1057 90.6587 80.7728C90.9956 80.2223 91.2446 79.6179 91.4935 79.0137L91.4935 79.0136L91.4935 79.0135L91.4936 79.0135L91.4936 79.0135L91.4936 79.0134L91.4936 79.0134L91.4937 79.0133L91.4937 79.0133L91.4937 79.0132L91.4937 79.0132L91.4938 79.0131L91.4938 79.0131L91.4938 79.013L91.4938 79.013L91.4938 79.0129C91.59 78.7795 91.6861 78.546 91.7874 78.3157C92.1443 77.5037 92.5155 77.2003 93.4093 77.5257C93.7976 77.6672 94.3116 77.7797 94.663 77.64C95.3589 77.3632 95.4905 77.6987 95.6857 78.1964L95.7098 78.2578C96.1656 79.4121 96.6292 80.5697 97.729 81.3225C98.454 81.8188 99.2748 81.9561 100.096 82.0936L100.097 82.0938L100.098 82.0939L100.099 82.0941C100.174 82.1067 100.25 82.1193 100.325 82.1322C101.038 82.2543 101.753 82.3638 102.467 82.4732L102.468 82.4732L102.468 82.4733L102.469 82.4734L102.469 82.4734L102.469 82.4735L102.47 82.4736L102.47 82.4737L102.471 82.4737L102.471 82.4738L102.472 82.4739L102.472 82.4739L102.472 82.474L102.473 82.4741L102.473 82.4741C103.504 82.6319 104.535 82.7897 105.558 82.9851C108.224 83.494 110.509 84.8635 112.468 86.6354C113.836 87.8732 114.94 89.4318 116.018 90.9517L116.049 90.9955C116.831 92.0993 117.468 93.312 118.1 94.5174C118.173 94.6564 118.246 94.7952 118.319 94.9339C118.515 95.3064 118.713 95.6784 118.911 96.0505L118.912 96.0526C119.818 97.7558 120.724 99.4612 121.492 101.225C122.381 103.267 123.191 105.343 124.001 107.419L124.002 107.42L124.002 107.42C124.395 108.428 124.789 109.436 125.191 110.44C125.325 110.775 125.369 110.989 124.96 111.181C124.674 111.316 124.401 111.48 124.128 111.645ZM71.9473 66.1317L71.9474 66.1317L71.9474 66.1316L71.9474 66.1315L71.9475 66.1314L71.9475 66.1313L71.9475 66.1313L71.9476 66.1312L71.9476 66.1311L71.9476 66.131L71.9477 66.1309L71.9477 66.1309L71.9477 66.1308L71.9478 66.1307C72.0472 65.9065 72.1467 65.6823 72.2477 65.4589C73.0395 63.6355 73.723 61.9525 73.8213 60.0262C73.9127 58.2341 73.4531 56.5999 72.9848 54.9346L72.9848 54.9346L72.9848 54.9345L72.9036 54.6454C72.7568 54.1213 72.6829 53.5773 72.609 53.0329L72.609 53.0329L72.609 53.0329L72.609 53.0328L72.609 53.0328L72.609 53.0328L72.609 53.0328L72.609 53.0327L72.609 53.0327L72.609 53.0327L72.609 53.0326L72.6089 53.0326L72.6089 53.0326L72.6089 53.0326L72.6089 53.0325C72.5459 52.5681 72.4828 52.1033 72.3743 51.6501C72.1226 50.5984 72.3265 49.5999 72.5303 48.6025C72.6356 48.087 72.7408 47.5719 72.783 47.0498C72.9138 45.433 73.2931 43.8893 73.8412 42.3863C74.552 40.4375 75.6394 38.6896 76.8263 36.9907C77.7299 35.6973 78.9063 34.7772 80.2432 33.9939C80.7785 33.6803 81.3207 33.2879 81.6835 32.8002C81.9569 32.4327 82.1851 32.2985 82.6064 32.3043C83.0679 32.3106 83.5302 32.3037 83.9923 32.2967C84.7642 32.2851 85.5358 32.2734 86.3036 32.3239C89.1055 32.5081 91.771 33.2061 94.1508 34.7566L94.2641 34.8304C95.135 35.3974 96.0218 35.9747 96.7576 36.6937C97.6955 37.6101 98.5386 38.6256 99.3795 39.6384L99.3795 39.6384C99.5109 39.7967 99.6423 39.9549 99.7739 40.1127C99.9213 40.2892 99.96 40.569 99.9962 40.8301C100.003 40.8816 100.01 40.9323 100.018 40.9814C100.216 42.233 100.402 43.4864 100.589 44.7397L100.589 44.7404L100.589 44.7411L100.59 44.7418L100.59 44.7424L100.59 44.7431L100.59 44.7438L100.59 44.7445L100.59 44.7452L100.59 44.7459L100.59 44.7466L100.59 44.7472L100.59 44.7479L100.591 44.7486L100.591 44.7494L100.675 45.3155C100.714 45.5768 100.754 45.8379 100.793 46.0991L100.793 46.0998L100.793 46.1001L100.794 46.1004C100.913 46.8905 101.033 47.6807 101.136 48.4731C101.171 48.7434 101.206 49.0137 101.242 49.284C101.452 50.8929 101.662 52.5021 101.826 54.1158C101.916 55.01 101.937 55.9118 101.959 56.8125V56.8126L101.959 56.8129C101.964 57.0107 101.968 57.2085 101.974 57.4062C101.985 57.8199 101.997 58.2337 102.009 58.6475L102.009 58.6481L102.009 58.6487L102.009 58.6494L102.009 58.65L102.009 58.6506L102.009 58.6512L102.01 58.6519L102.01 58.6525L102.01 58.6531L102.01 58.6538L102.01 58.6544L102.01 58.655L102.01 58.6556V58.6557V58.6559V58.656V58.6562V58.6563V58.6565V58.6566V58.6568V58.6569V58.6571V58.6572V58.6574V58.6575C102.058 60.299 102.106 61.9407 102.107 63.5823C102.108 66.0341 101.568 68.4106 100.842 70.7318C100.396 72.1588 99.8378 73.5517 99.2808 74.9427C99.182 75.1894 99.0832 75.436 98.9851 75.6828C98.9049 75.8845 98.5939 76.0702 98.3593 76.1203C97.7099 76.2591 97.0465 76.3518 96.384 76.4009C96.1162 76.4207 95.7853 76.3491 95.5753 76.1942C95.3157 76.0028 95.2687 75.9989 95.1268 76.2981C94.7914 77.0049 94.3881 77.174 93.6107 76.8983C92.9199 76.6533 92.2459 76.5656 91.7261 77.1367C91.4383 77.4528 91.2476 77.8643 91.061 78.2667C91.027 78.3402 90.993 78.4135 90.9586 78.4858C90.8681 78.6763 90.814 78.884 90.7599 79.0919L90.7598 79.092L90.7598 79.092L90.7598 79.0921L90.7598 79.0922L90.7597 79.0923L90.7597 79.0924L90.7597 79.0925L90.7597 79.0926L90.7596 79.0927L90.7596 79.0928L90.7596 79.0929L90.7596 79.093C90.7316 79.2002 90.7037 79.3076 90.6706 79.4127C90.3477 80.4403 89.9378 80.7959 88.8882 80.7276C87.7439 80.6531 86.6345 80.817 85.5796 81.183C84.6912 81.4912 84.2757 81.0112 83.8286 80.4946L83.8284 80.4944C83.7828 80.4417 83.7368 80.3886 83.69 80.3359C83.5631 80.1932 83.4366 80.0499 83.31 79.9065C82.6979 79.213 82.085 78.5187 81.4195 77.8803C81.1703 77.6413 80.6898 77.5445 80.3192 77.5534C79.9326 77.5627 79.5479 77.6279 79.1625 77.6933C78.9122 77.7357 78.6617 77.7782 78.4102 77.8054C77.8737 77.8634 77.4525 77.5628 77.2932 77.109C77.0706 76.475 76.9458 75.7953 76.8695 75.1249C76.8147 74.6431 76.6418 74.2772 76.184 74.1946C75.056 73.9911 74.4344 73.2826 73.8977 72.3218C73.5178 71.6418 73.0335 71.0197 72.5496 70.3981L72.5496 70.3981L72.5496 70.3981L72.5496 70.398L72.5496 70.398L72.5495 70.398L72.5495 70.398L72.5495 70.3979L72.5495 70.3979L72.5495 70.3979L72.5495 70.3979L72.5494 70.3979L72.5494 70.3978L72.5494 70.3978L72.5494 70.3978L72.5494 70.3978C72.3652 70.1611 72.181 69.9246 72.0027 69.6849C71.8846 69.5262 71.7553 69.3759 71.6259 69.2256C71.5055 69.0856 71.385 68.9456 71.2736 68.7988C71.025 68.4712 71.0126 68.1336 71.2034 67.7479C71.4662 67.2165 71.7068 66.6741 71.9473 66.1317ZM102.417 52.9969L102.395 52.6183C102.253 51.7921 102.654 51.5299 103.198 51.2169C103.96 50.7789 104.712 50.404 105.598 50.4669C106.024 50.4971 106.382 50.7083 106.023 51.2179C105.413 52.0822 104.791 52.938 104.155 53.7827C103.867 54.1657 103.559 54.5344 103.252 54.9029C103.144 55.0325 103.036 55.1621 102.929 55.2923C102.891 55.3381 102.844 55.3764 102.798 55.4148L102.797 55.4148C102.776 55.4326 102.754 55.4503 102.733 55.4688C102.715 55.4438 102.695 55.4191 102.676 55.3944C102.627 55.3317 102.579 55.269 102.538 55.2014C102.525 55.1796 102.528 55.1483 102.532 55.1165C102.533 55.1074 102.533 55.0984 102.534 55.0894C102.535 55.0808 102.535 55.0724 102.534 55.0643C102.496 54.3856 102.457 53.707 102.419 53.0283L102.418 53.0273L102.418 53.0262L102.418 53.0251L102.418 53.024L102.418 53.023L102.418 53.0219L102.418 53.0208L102.418 53.0197L102.418 53.0187L102.418 53.0176L102.418 53.0165L102.417 52.9969ZM72.1605 55.4566C72.1413 55.4879 72.1221 55.5192 72.1081 55.5495C71.7288 55.3687 71.3771 55.1527 71.0288 54.9388C70.724 54.7517 70.4219 54.5661 70.1063 54.4073C69.393 54.0483 69.1421 53.3962 68.9137 52.7481C68.6508 52.0023 69.2358 51.2899 70.0289 51.2953L70.1352 51.2958H70.1352C70.4179 51.2968 70.7049 51.2978 70.9768 51.3574C71.5108 51.4745 71.5638 51.8884 71.6148 52.2872C71.6307 52.4109 71.6464 52.5333 71.6762 52.6448C71.8668 53.3583 72.0061 54.0859 72.1452 54.8127L72.1452 54.8128L72.1452 54.8128L72.1452 54.8129L72.1452 54.8129L72.1453 54.813L72.1453 54.813L72.1453 54.8131L72.1453 54.8131L72.1453 54.8131L72.1453 54.8132L72.1453 54.8132L72.1453 54.8133L72.1453 54.8133L72.1454 54.8134C72.1741 54.9638 72.2029 55.1142 72.2322 55.2644C72.2433 55.3217 72.2019 55.3891 72.1605 55.4566ZM114.446 121.156L114.447 121.158L114.449 121.162L114.453 121.168C115.554 122.931 116.659 124.699 117.783 126.487C118.071 126.774 118.354 127.059 118.635 127.342L118.635 127.342L118.635 127.342L118.636 127.343L118.636 127.343L118.636 127.343L118.636 127.343L118.637 127.344L118.637 127.344L118.637 127.344L118.637 127.344L118.64 127.347C119.257 127.967 119.862 128.576 120.476 129.176C121.953 130.62 123.711 130.974 125.691 130.52C127.411 130.125 128.982 129.427 130.366 128.333C130.585 128.159 130.812 127.99 131.038 127.821C131.704 127.324 132.373 126.824 132.882 126.198C134.044 124.769 135.113 123.243 136.046 121.656C137.292 119.537 138.531 117.387 139.482 115.128C140.369 113.023 141.107 110.854 141.844 108.686L141.845 108.684C142.12 107.877 142.394 107.069 142.677 106.265L142.802 105.909L142.988 105.383C143.571 103.727 144.155 102.071 144.673 100.395C144.924 99.5807 145.135 98.754 145.347 97.9275C145.619 96.8634 145.892 95.7997 146.248 94.7643C146.657 93.5755 147.165 92.4212 147.673 91.2665C147.936 90.6687 148.199 90.0707 148.449 89.4679C148.71 88.8372 148.972 88.2069 149.234 87.5766L149.236 87.571L149.238 87.5654C150.244 85.1434 151.251 82.7214 152.205 80.2792C152.584 79.311 152.849 78.2974 153.113 77.2858L153.113 77.2857C153.183 77.0195 153.252 76.7533 153.324 76.4882C153.357 76.3679 153.292 76.2215 153.227 76.075C153.197 76.0072 153.168 75.9394 153.147 75.8742C153.077 75.8965 153.003 75.9131 152.928 75.9298C152.766 75.9659 152.604 76.002 152.49 76.0964C151.777 76.6892 151.283 77.4398 150.958 78.3162C150.791 78.7652 150.567 79.1938 150.344 79.621C150.297 79.7097 150.251 79.7985 150.205 79.8873C150.177 79.9413 150.102 79.971 150.027 80.0007C150.006 80.0089 149.985 80.0172 149.965 80.0259C149.956 80.0301 149.946 80.0345 149.937 80.039L149.927 80.0442C149.927 80.0144 149.924 79.984 149.921 79.9535L149.921 79.9532C149.915 79.8875 149.91 79.8218 149.927 79.7628C150.061 79.3002 150.201 78.839 150.341 78.3778L150.341 78.3774L150.341 78.3769L150.341 78.3765L150.341 78.376L150.341 78.3755L150.342 78.3751L150.342 78.3746L150.342 78.3742L150.342 78.3737L150.342 78.3733L150.342 78.3728L150.343 78.3721L150.343 78.3713L150.343 78.3705L150.343 78.3703L150.343 78.3701L150.343 78.3699L150.343 78.3697L150.343 78.3695L150.343 78.3693L150.343 78.3691L150.343 78.369L150.343 78.3688L150.343 78.3686L150.344 78.3684L150.344 78.3682L150.344 78.368L150.344 78.3679C150.642 77.3842 150.94 76.4005 151.188 75.4044C151.392 74.5889 151.457 73.7319 151.512 72.8888C151.551 72.2786 150.993 71.9254 150.503 72.2431C150.248 72.4079 150.038 72.6416 149.829 72.875C149.744 72.9691 149.66 73.0632 149.572 73.1526C149.503 73.2234 149.441 73.3009 149.379 73.3785L149.379 73.3786C149.35 73.4141 149.322 73.4495 149.293 73.4843C149.278 73.4439 149.262 73.4037 149.246 73.3636C149.209 73.2752 149.173 73.1869 149.156 73.0949C149.098 72.7908 149.054 72.4836 149.014 72.1765C148.937 71.5973 148.603 71.0449 148.092 71.0333C147.744 71.0253 147.249 71.5302 147.053 71.9222C146.458 73.1117 145.934 74.3419 145.461 75.5861C145.093 76.5532 144.766 77.5357 144.439 78.5183L144.438 78.5185C144.289 78.9662 144.14 79.414 143.987 79.8603C143.954 79.9574 143.915 80.0525 143.876 80.1477C143.858 80.1918 143.84 80.2359 143.822 80.2802C143.786 80.2529 143.746 80.2277 143.707 80.2025C143.622 80.1481 143.537 80.0936 143.481 80.0179C142.898 79.229 142.065 78.8135 141.219 78.3915L141.116 78.3402C140.344 77.9546 139.581 78.0605 138.904 78.3948C137.988 78.8475 138.02 80.4907 138.825 81.227C140.066 82.3621 140.925 83.7137 141.292 85.3704C141.789 87.6202 141.318 89.6536 139.988 91.5161L139.791 91.7925L139.79 91.7928C139.127 92.72 138.464 93.6483 137.854 94.61C136.292 97.0745 134.745 99.5494 133.233 102.045L133.143 102.194C131.745 104.501 130.346 106.811 129.055 109.177C128.47 110.248 127.997 111.379 127.524 112.509C127.356 112.908 127.189 113.307 127.017 113.703C126.864 114.057 126.755 114.182 126.463 113.822C126.244 113.552 125.993 113.3 125.72 113.088C125.635 113.023 125.508 113.014 125.38 113.006C125.322 113.002 125.265 112.998 125.211 112.988C125.207 113.028 125.198 113.073 125.189 113.118C125.169 113.216 125.15 113.313 125.189 113.357C125.241 113.415 125.293 113.474 125.345 113.533L125.345 113.534L125.345 113.534L125.345 113.534L125.345 113.534L125.345 113.534L125.345 113.534L125.345 113.534L125.345 113.534L125.345 113.534L125.345 113.534L125.346 113.534L125.346 113.534L125.346 113.534L125.346 113.534L125.346 113.534C125.615 113.841 125.888 114.152 126.215 114.383C127.235 115.104 127.356 115.02 127.807 113.831C127.837 113.753 127.866 113.675 127.896 113.596L127.976 113.383L127.976 113.382C128.366 112.343 128.759 111.297 129.292 110.333C130.74 107.714 132.268 105.139 133.806 102.572C135.326 100.033 136.874 97.5098 138.459 95.0112C138.817 94.4469 139.215 93.906 139.613 93.3657C140.17 92.609 140.726 91.8531 141.17 91.0352C142.823 87.9955 142.581 84.9709 140.657 82.1082C140.466 81.8242 140.218 81.5772 139.971 81.3307L139.971 81.3306C139.698 81.0588 139.426 80.7876 139.231 80.4679C139.022 80.1235 138.998 79.4993 139.176 79.1427C139.295 78.9022 139.967 78.732 140.297 78.8348C141.882 79.3289 143.389 79.9712 143.722 81.9021C143.738 81.9926 143.843 82.0675 143.949 82.1425C143.998 82.1774 144.047 82.2122 144.087 82.2486C144.106 82.2197 144.127 82.1916 144.149 82.1635C144.196 82.1027 144.242 82.042 144.263 81.9733C144.46 81.3292 144.648 80.6828 144.837 80.0364L144.925 79.7352C145.068 79.2472 145.206 78.7575 145.344 78.2679L145.344 78.2676L145.344 78.2673L145.344 78.267L145.344 78.2667L145.344 78.2664L145.344 78.2661L145.344 78.2658L145.344 78.2654L145.344 78.2651L145.345 78.2648L145.345 78.2645L145.345 78.2642L145.345 78.2639L145.345 78.2636L145.345 78.2634L145.345 78.2631L145.345 78.2629L145.345 78.2627L145.345 78.2624L145.345 78.2622L145.345 78.262L145.345 78.2618L145.346 78.2615L145.346 78.2613L145.346 78.2611L145.346 78.2608L145.346 78.2606L145.346 78.2604C145.671 77.1082 145.995 75.9561 146.381 74.8245C146.622 74.1145 146.974 73.4409 147.325 72.7689L147.325 72.7684L147.325 72.7678L147.325 72.7673L147.326 72.7668L147.326 72.7662L147.326 72.7657L147.326 72.7652L147.327 72.7646L147.327 72.7641L147.327 72.7635L147.328 72.763L147.328 72.7625C147.436 72.5559 147.543 72.3494 147.648 72.1421C147.72 71.9984 147.91 71.8985 148.067 71.8233C148.108 71.8038 148.294 71.9462 148.304 72.0279C148.322 72.1689 148.347 72.3123 148.371 72.4562L148.371 72.4564L148.372 72.4565L148.372 72.4566L148.372 72.4568L148.372 72.4569L148.372 72.457L148.372 72.4572L148.372 72.4573L148.372 72.4575L148.372 72.4576L148.372 72.4577L148.372 72.4578L148.372 72.4579L148.372 72.458C148.441 72.8607 148.511 73.2673 148.428 73.6373C148.258 74.388 148.026 75.1242 147.793 75.8607L147.793 75.8609L147.793 75.8613L147.793 75.8618L147.793 75.8622L147.793 75.8627L147.792 75.8632L147.792 75.8636L147.792 75.8641L147.792 75.8645L147.792 75.865L147.792 75.8654L147.792 75.866C147.66 76.282 147.529 76.6982 147.409 77.1171C147.134 78.0757 146.881 79.0413 146.657 80.0127C146.638 80.0962 146.729 80.2051 146.821 80.3141C146.863 80.3646 146.905 80.415 146.936 80.463C146.979 80.4262 147.028 80.3919 147.078 80.3576C147.185 80.2834 147.292 80.2092 147.326 80.1098C147.551 79.4585 147.756 78.8003 147.962 78.1421L147.962 78.1416C148.033 77.9145 148.104 77.6874 148.175 77.4605C148.655 75.9412 149.165 74.4359 150.301 73.2497C150.372 73.1757 150.467 73.1248 150.562 73.0739L150.563 73.0738C150.593 73.0576 150.623 73.0414 150.653 73.0244L150.674 73.0117L150.692 73.0006C150.707 73.0538 150.728 73.1085 150.749 73.1633C150.795 73.2812 150.84 73.399 150.817 73.5005C150.418 75.193 150.002 76.8816 149.578 78.568C149.516 78.8172 149.442 79.064 149.369 79.3107C149.25 79.7081 149.132 80.1051 149.06 80.5107C149.027 80.6907 149.107 80.8905 149.186 81.0903C149.221 81.1812 149.257 81.2722 149.283 81.3612C149.354 81.3364 149.433 81.3182 149.512 81.2999C149.685 81.2602 149.858 81.2204 149.941 81.1119C150.365 80.5577 150.757 79.9719 151.097 79.3623C151.297 79.004 151.471 78.6312 151.645 78.2584L151.645 78.2581C151.79 77.9481 151.935 77.6379 152.094 77.3359C152.152 77.2275 152.274 77.1534 152.397 77.0793C152.453 77.0452 152.509 77.0111 152.559 76.9736C152.553 77.0295 152.551 77.0866 152.548 77.1438V77.1439C152.543 77.2672 152.538 77.3905 152.496 77.5002L152.312 77.988C151.872 79.1526 151.433 80.3174 150.96 81.4686C150.765 81.9423 150.548 82.4063 150.33 82.8704L150.33 82.8706L150.33 82.8708L150.33 82.871L150.329 82.8712L150.329 82.8715L150.329 82.8717L150.329 82.8719L150.329 82.8721L150.329 82.8723L150.329 82.8726L150.329 82.8728L150.329 82.873L150.329 82.8732L150.329 82.8734C150.117 83.3236 149.906 83.7737 149.716 84.2327C149.362 85.0893 149.02 85.9514 148.678 86.8134C148.069 88.3492 147.46 89.8849 146.78 91.3886C145.817 93.5182 145.048 95.7028 144.404 97.9413C144.148 98.8334 143.885 99.7246 143.591 100.605C143.277 101.545 142.951 102.482 142.626 103.418L142.626 103.419L142.626 103.419L142.626 103.419L142.626 103.419L142.626 103.419L142.626 103.419L142.626 103.419L142.626 103.419L142.626 103.419L142.626 103.419L142.626 103.419L142.626 103.42L142.626 103.42L142.626 103.42C141.99 105.25 141.355 107.08 140.8 108.935C139.984 111.666 139.075 114.352 137.87 116.934C136.586 119.686 135.001 122.271 133.154 124.668C132.287 125.794 131.191 126.838 129.993 127.591C128.625 128.45 127.159 129.243 125.52 129.572C124.43 129.791 123.331 129.92 122.331 129.343C120.492 128.282 119.117 126.701 117.904 125.007C116.989 123.73 116.124 122.418 115.259 121.106L115.259 121.105L115.259 121.105L115.259 121.105L115.258 121.104L115.258 121.104L115.258 121.103L115.258 121.103L115.257 121.103L115.257 121.102L115.257 121.102L115.257 121.102L115.256 121.101L115.256 121.101L115.256 121.101C114.759 120.347 114.263 119.594 113.757 118.847C113.674 118.725 113.53 118.645 113.386 118.564C113.319 118.527 113.252 118.49 113.191 118.448C113.188 118.518 113.184 118.587 113.18 118.657V118.657V118.657V118.657V118.657V118.657V118.657C113.17 118.842 113.16 119.028 113.17 119.212C113.172 119.251 113.216 119.285 113.262 119.321C113.297 119.349 113.335 119.378 113.355 119.411C113.719 119.993 114.082 120.574 114.446 121.156ZM108.537 159.182C108.454 159.614 108.387 160.045 108.32 160.472C108.159 161.495 108.002 162.495 107.656 163.425C107.021 165.134 105.55 166.168 103.851 166.694C102.182 167.21 100.467 167.589 98.7561 167.967C98.5555 168.011 98.3549 168.056 98.1545 168.1C97.7003 168.201 97.2264 168.216 96.7532 168.23C96.5656 168.236 96.3782 168.242 96.1921 168.253C95.2531 168.31 94.3141 168.365 93.3751 168.42L93.3634 168.421C91.9452 168.504 90.527 168.587 89.1092 168.675C88.531 168.712 87.9534 168.756 87.3757 168.8L87.3727 168.8H87.3725H87.3724H87.3722H87.372H87.3719H87.3717H87.3715H87.3713H87.3712H87.371H87.3708H87.3707H87.3705C86.663 168.854 85.9555 168.908 85.2472 168.948L84.9023 168.967H84.902H84.9016H84.9013H84.901H84.9006H84.9003H84.9H84.8996H84.8993H84.899H84.8987H84.8983H84.898C83.7785 169.03 82.657 169.093 81.5377 169.076C80.7565 169.064 79.9759 168.969 79.1966 168.875L79.1962 168.875L79.1919 168.874L79.1879 168.874L79.1843 168.873C78.9842 168.849 78.7842 168.825 78.5843 168.802C78.5021 168.793 78.4278 168.715 78.3534 168.637C78.319 168.601 78.2846 168.565 78.2494 168.535C78.2766 168.506 78.3027 168.47 78.3289 168.435L78.329 168.434C78.3859 168.356 78.4428 168.279 78.5119 168.266C78.5839 168.252 78.6566 168.237 78.7297 168.222C79.0563 168.156 79.3899 168.088 79.7061 168.129C81.8924 168.411 84.0608 168.226 86.2335 167.982C87.2957 167.862 88.3636 167.789 89.4307 167.715L89.6759 167.699C90.4185 167.647 91.1621 167.605 91.9056 167.563H91.906L91.9076 167.563C93.317 167.483 94.7262 167.404 96.1293 167.262C98.8531 166.987 101.548 166.498 104.097 165.452C105.57 164.847 106.584 163.696 106.969 162.179L107.008 162.025C107.432 160.353 107.863 158.654 107.692 156.896C107.652 156.485 107.584 156.076 107.517 155.668C107.413 155.041 107.309 154.416 107.306 153.789C107.303 152.965 107.364 152.14 107.424 151.316L107.424 151.316C107.477 150.597 107.53 149.878 107.54 149.16C107.55 148.519 107.466 147.876 107.382 147.234C107.346 146.96 107.311 146.687 107.282 146.414C107.257 146.177 107.234 145.94 107.211 145.703L107.211 145.702C107.15 145.07 107.088 144.437 106.996 143.81C106.663 141.552 106.534 139.286 106.572 137.005C106.582 136.407 106.545 135.809 106.508 135.21V135.21V135.21V135.21V135.21V135.21V135.21V135.21V135.21V135.209V135.209V135.209V135.209V135.209C106.482 134.804 106.457 134.398 106.447 133.993C106.423 133.081 106.406 132.168 106.389 131.256V131.256V131.256V131.256V131.256V131.256V131.256V131.255V131.255V131.255V131.255V131.255V131.255V131.255C106.365 129.954 106.341 128.653 106.297 127.353C106.261 126.284 106.199 125.217 106.138 124.15L106.138 124.149C106.099 123.464 106.059 122.78 106.027 122.095C106 121.534 105.981 120.972 105.962 120.41C105.94 119.735 105.917 119.06 105.881 118.385C105.855 117.906 105.81 117.427 105.766 116.947V116.947V116.947V116.947V116.947V116.947V116.947V116.947V116.947V116.947V116.946V116.946V116.946V116.946C105.683 116.044 105.6 115.143 105.639 114.246C105.682 113.273 105.853 112.306 106.025 111.339L106.025 111.339L106.025 111.338L106.025 111.338L106.025 111.338L106.025 111.338L106.025 111.338L106.025 111.338L106.025 111.338L106.025 111.338L106.025 111.338L106.025 111.337L106.025 111.337L106.025 111.337C106.101 110.906 106.178 110.475 106.243 110.043C106.286 109.754 106.331 109.466 106.375 109.177C106.497 108.393 106.618 107.609 106.717 106.822C106.772 106.379 106.813 105.934 106.854 105.49L106.854 105.489L106.854 105.489L106.854 105.489L106.854 105.488L106.854 105.488L106.854 105.488L106.854 105.487L106.854 105.487L106.854 105.487L106.854 105.486L106.854 105.486L106.854 105.486L106.854 105.485L106.854 105.485C106.902 104.969 106.95 104.453 107.02 103.94C107.035 103.827 107.163 103.729 107.292 103.63C107.351 103.585 107.41 103.54 107.458 103.493C107.484 103.546 107.518 103.601 107.552 103.656L107.552 103.656C107.625 103.774 107.698 103.892 107.686 104.001C107.523 105.485 107.336 106.966 107.14 108.446C107.067 108.998 106.977 109.548 106.886 110.099L106.886 110.1L106.886 110.1C106.699 111.242 106.512 112.384 106.48 113.531C106.436 115.166 106.534 116.806 106.631 118.445C106.665 119.009 106.698 119.573 106.726 120.136C106.767 120.963 106.823 121.79 106.879 122.617C106.922 123.24 106.964 123.863 107 124.486C107.024 124.914 107.049 125.342 107.074 125.77L107.074 125.77C107.196 127.889 107.319 130.008 107.414 132.128C107.448 132.905 107.462 133.683 107.475 134.461V134.461V134.461V134.461V134.461V134.462V134.462V134.462V134.462V134.462V134.462V134.462V134.462V134.462C107.492 135.48 107.509 136.497 107.575 137.511C107.652 138.714 107.784 139.913 107.916 141.112L107.916 141.113L107.916 141.113L107.916 141.113L107.916 141.114L107.916 141.114L107.916 141.114L107.916 141.115L107.916 141.115L107.916 141.115L107.916 141.116L107.916 141.116L107.916 141.116L107.916 141.117C107.985 141.745 108.055 142.374 108.116 143.003C108.221 144.079 108.316 145.157 108.393 146.236C108.405 146.403 108.418 146.57 108.431 146.737L108.431 146.737C108.488 147.481 108.545 148.226 108.524 148.969C108.502 149.731 108.456 150.493 108.409 151.254C108.348 152.253 108.287 153.251 108.282 154.25C108.28 154.765 108.376 155.279 108.471 155.793C108.546 156.199 108.622 156.604 108.65 157.012C108.682 157.48 108.639 157.953 108.595 158.447C108.573 158.687 108.551 158.931 108.537 159.182ZM57.2143 161.734C57.8004 164.219 59.4064 166.062 61.4657 167.591L61.6373 167.66L61.6382 167.66C62.5356 168.02 63.3989 168.365 64.2797 168.658C64.4485 168.714 64.6461 168.684 64.8437 168.653L64.8442 168.653C64.9348 168.639 65.0254 168.625 65.1132 168.62L65.0494 168.552L64.961 168.458C64.8129 168.3 64.6647 168.142 64.5089 167.992C64.4888 167.972 64.4502 167.975 64.4094 167.978C64.3744 167.981 64.3378 167.984 64.31 167.973C64.0797 167.88 63.8382 167.801 63.5966 167.722C63.0436 167.542 62.4901 167.361 62.0696 167.017C61.0441 166.179 60.1089 165.194 59.291 164.15C58.4827 163.117 58.0705 161.877 58.1467 160.516C58.1742 160.024 58.189 159.53 58.2037 159.037C58.2246 158.34 58.2454 157.643 58.3023 156.949C58.3456 156.422 58.4278 155.897 58.5099 155.373C58.5824 154.911 58.6549 154.448 58.7007 153.983C58.801 152.965 58.8636 151.943 58.9261 150.922C58.9411 150.678 58.956 150.434 58.9715 150.19C58.9774 150.097 58.9166 149.968 58.8436 149.912C58.7834 149.867 58.6136 149.866 58.5715 149.914C58.5422 149.947 58.5106 149.982 58.4786 150.016L58.4785 150.017C58.3383 150.169 58.1881 150.332 58.167 150.505C58.0787 151.226 58.0172 151.951 57.9558 152.675L57.9558 152.675L57.9558 152.676L57.9558 152.676L57.9558 152.676L57.9558 152.676L57.9558 152.676L57.9558 152.676L57.9558 152.676L57.9557 152.677L57.9557 152.677L57.9557 152.677L57.9557 152.677L57.9557 152.677C57.9278 153.006 57.8999 153.335 57.8695 153.664C57.8603 153.763 57.8398 153.861 57.8193 153.959C57.8037 154.034 57.7881 154.108 57.7774 154.183C57.7182 154.601 57.6542 155.018 57.5902 155.435C57.4356 156.444 57.2809 157.453 57.1925 158.467L57.172 158.7C57.0818 159.715 56.9877 160.772 57.2143 161.734ZM93.4976 92.3617C93.8757 92.0984 94.2565 91.8413 94.6361 91.585L94.6362 91.585C96.1487 90.5638 97.6422 89.5555 98.8662 88.2196C99.5115 87.5153 100.084 86.744 100.656 85.9727L100.656 85.9726C100.908 85.633 101.16 85.2934 101.418 84.9596C101.446 84.9225 101.471 84.8785 101.495 84.8349C101.539 84.7561 101.582 84.6784 101.648 84.6448C101.783 84.5771 101.932 84.5395 102.082 84.5019C102.144 84.4862 102.206 84.4705 102.267 84.4526C102.248 84.5141 102.232 84.5788 102.217 84.6434L102.217 84.6435L102.217 84.6435L102.217 84.6435L102.217 84.6436L102.217 84.6436L102.217 84.6436L102.217 84.6437L102.217 84.6437C102.184 84.7836 102.15 84.9235 102.072 85.0308C101.912 85.2514 101.752 85.4728 101.592 85.6941L101.592 85.6942C100.948 86.5877 100.303 87.4818 99.6 88.3277C98.9665 89.0904 98.2683 89.8281 97.4877 90.4334C96.1327 91.4841 94.7403 92.5045 93.2736 93.3882C91.6693 94.3548 89.9854 95.1994 88.2915 96.0029C87.4519 96.4011 86.5368 96.3493 85.7056 95.8078C83.1925 94.1708 80.7423 92.452 78.6535 90.2779C78.0756 89.6764 77.5417 89.0284 77.0365 88.3645C76.9547 88.257 76.9655 88.079 76.9763 87.9009C76.9813 87.819 76.9862 87.7371 76.9822 87.6621C77.0572 87.6762 77.1407 87.682 77.2242 87.6879C77.406 87.7007 77.5877 87.7135 77.6815 87.8109C77.9345 88.0736 78.1661 88.3574 78.3976 88.6411C78.666 88.97 78.9342 89.2987 79.2355 89.594C80.0127 90.3562 80.8302 91.0844 81.6839 91.7597C82.7076 92.5694 83.7605 93.3425 84.8132 94.1153L84.8134 94.1155C85.0472 94.2871 85.2809 94.4587 85.5143 94.6307C85.6685 94.7444 85.8346 94.8419 86.0006 94.9395C86.1735 95.041 86.3463 95.1426 86.5056 95.2621C87.1703 95.7609 87.7429 95.4341 88.268 95.1343L88.268 95.1343L88.2681 95.1343L88.2681 95.1343L88.2682 95.1343L88.2682 95.1342L88.2683 95.1342L88.2683 95.1342L88.2684 95.1342L88.2684 95.1341L88.2684 95.1341L88.2685 95.1341C88.3987 95.0598 88.5259 94.9871 88.6509 94.9292C89.8959 94.3522 91.0995 93.6858 92.3209 93.0096L92.321 93.0095L92.3212 93.0094L92.3233 93.0082C92.7123 92.7928 93.1031 92.5765 93.4976 92.3617ZM147.157 85.321C147.363 85.0681 147.573 84.8106 147.791 84.5455C147.94 84.5289 148.081 84.527 148.218 84.5252H148.218C148.369 84.5232 148.515 84.5213 148.657 84.4997C148.777 84.4816 148.889 84.4133 149.001 84.3451C149.051 84.3144 149.101 84.2838 149.152 84.2577C149.112 84.2108 149.074 84.1563 149.037 84.1018C148.955 83.9839 148.874 83.8661 148.764 83.8251C147.727 83.4383 145.896 84.861 145.951 86.0045C145.956 86.1114 146.018 86.2156 146.08 86.3197C146.108 86.3679 146.137 86.4161 146.16 86.4646C146.196 86.4293 146.232 86.3948 146.269 86.3603C146.349 86.2853 146.429 86.2103 146.499 86.1263C146.718 85.8607 146.936 85.5935 147.157 85.321ZM95.1725 66.122C95.5078 66.2014 95.8082 66.3158 96.1087 66.4301L96.1088 66.4301C96.0634 66.5063 96.0222 66.5869 95.9811 66.6674C95.8925 66.8412 95.8038 67.015 95.6717 67.1444C94.052 68.7304 92.0793 69.6569 89.8846 70.1172C89.6186 70.173 89.3223 70.0999 89.0326 70.0285L89.0326 70.0285L89.0325 70.0285C88.9449 70.0069 88.8579 69.9854 88.7726 69.9677C88.6932 69.9513 88.5738 69.7356 88.5883 69.7203C88.6194 69.6872 88.6509 69.6508 88.6831 69.6137C88.8008 69.4779 88.9263 69.3329 89.0669 69.3119C91.2668 68.9825 93.1117 67.9721 94.7059 66.4544C94.7812 66.3827 94.8699 66.325 94.9679 66.2614C95.0325 66.2195 95.1011 66.1749 95.1725 66.122ZM144.261 86.4562C144.59 85.6387 144.324 84.8636 144.023 84.0572C143.943 83.9651 143.866 83.8752 143.79 83.7871L143.79 83.787C143.572 83.5339 143.367 83.296 143.152 83.0673C143.138 83.0525 142.877 83.2221 142.885 83.241C142.993 83.4972 143.121 83.7463 143.259 83.9887C143.682 84.7326 143.736 85.5409 143.721 86.3718C143.719 86.4875 143.787 86.6046 143.856 86.7217C143.888 86.7757 143.92 86.8297 143.945 86.8835C143.978 86.8388 144.016 86.7956 144.054 86.7524C144.136 86.6587 144.217 86.5651 144.261 86.4562ZM84.9516 38.8173L84.9517 38.8173C85.6165 39.1586 86.2674 39.4928 86.9581 39.6412L87.0659 39.6644C88.0994 39.8874 89.2115 40.1273 90.2502 39.5632C90.6143 39.3655 90.9565 39.1221 91.2882 38.8724C91.4906 38.7202 91.6727 38.5311 91.8317 38.3328C93.0943 36.7588 94.0261 36.9938 95.7647 38.0215C97.989 39.3363 98.7991 41.5805 99.5823 43.8131C99.9736 44.9286 100.22 46.0984 100.464 47.2619C100.497 47.4182 100.53 47.5743 100.563 47.7302C100.725 48.4904 100.793 49.2743 100.853 50.0514C100.924 50.9729 100.958 51.8977 100.991 52.8218V52.8218V52.8219V52.8219V52.822V52.822V52.8221L100.991 52.8224L100.998 52.9923C101.016 53.4982 101.026 54.0047 101.036 54.5111V54.5113V54.5114V54.5115V54.5116V54.5117V54.5119V54.512C101.054 55.4987 101.073 56.4853 101.157 57.4666C101.284 58.9676 101.044 60.4144 100.709 61.8495C100.323 63.5022 99.0671 64.299 97.5445 64.6703C96.9032 64.8267 96.2337 64.8719 95.5657 64.917C95.3349 64.9326 95.1043 64.9481 94.8751 64.9682C92.5177 65.1753 90.175 65.4671 87.8973 66.1423C87.1909 66.3517 86.516 66.2553 85.9237 65.8616C84.728 65.0667 83.3773 64.7761 82 64.5534C79.4313 64.138 76.9928 63.4373 75.1103 61.4835C74.6134 60.9678 74.2946 60.4158 74.3266 59.639C74.3834 58.2615 74.1846 56.9057 73.986 55.5514C73.8725 54.7779 73.7591 54.0049 73.6935 53.2286C73.4951 50.8813 73.5821 48.5233 74.2997 46.1855C75.1001 43.5781 76.321 41.2747 78.2582 39.3945C78.7902 38.8781 79.4332 38.4764 80.0766 38.0745C80.3906 37.8783 80.7046 37.6821 81.006 37.4724L81.0567 37.4372C81.3863 37.208 81.7193 36.9766 82.0099 36.7029C82.4523 36.2862 82.7208 36.5063 82.997 36.8894C83.3269 37.3469 83.67 37.7949 84.0353 38.2719L84.0353 38.2719L84.1463 38.4169C84.4192 38.5439 84.6865 38.6812 84.9516 38.8173ZM98.4176 42.639C98.3807 42.5509 98.3435 42.463 98.3063 42.375C98.2263 42.1858 98.1462 41.9967 98.0692 41.8063C97.3344 39.9922 96.0362 38.7191 94.2586 37.9535C93.9825 37.8346 93.5019 37.9036 93.2529 38.0796C93.0457 38.2261 92.9001 38.4562 92.7533 38.6883L92.7533 38.6883C92.6702 38.8196 92.5868 38.9515 92.4916 39.0692C91.6412 40.1209 90.6439 40.9432 89.1885 40.8135C88.2879 40.7333 87.3779 40.6177 86.5059 40.3891C85.1391 40.0309 83.8945 39.388 83.0103 38.2419L82.9241 38.1298C82.3432 37.3736 82.336 37.3642 81.5442 37.8957C81.2832 38.0709 81.0148 38.2387 80.7463 38.4067C80.0771 38.8252 79.407 39.2444 78.848 39.7787C76.9581 41.5853 75.7168 43.757 74.9721 46.3276C74.3009 48.6445 74.2603 50.9417 74.3704 53.2648C74.4598 55.1512 74.7601 57.0329 75.0598 58.9018L75.0795 59.0255C75.2107 59.8533 75.3457 60.7047 76.0682 61.3455C77.4368 62.5592 79.0585 63.2123 80.8022 63.5598C81.0387 63.6069 81.2755 63.6523 81.512 63.6977C83.1748 64.0168 84.8274 64.334 86.325 65.2286C86.6745 65.4373 87.2033 65.4833 87.6202 65.418C88.5581 65.2713 89.4922 65.1003 90.4262 64.9294L90.4265 64.9293L90.4268 64.9293L90.4271 64.9292L90.4273 64.9292L90.4276 64.9291L90.4279 64.9291L90.4282 64.929L90.4283 64.929L90.4285 64.929L90.4286 64.929L90.4288 64.9289L90.4289 64.9289L90.4291 64.9289L90.4292 64.9289C91.3974 64.7517 92.3656 64.5745 93.3379 64.4242C93.889 64.339 94.4474 64.2931 95.0053 64.2472L95.0054 64.2472L95.0056 64.2472L95.0057 64.2472L95.0058 64.2472L95.0059 64.2471L95.006 64.2471L95.0061 64.2471C95.7683 64.1844 96.5295 64.1218 97.2699 63.9595C98.2897 63.7359 99.4363 63.3901 99.7669 62.1968C100.088 61.037 100.365 59.8311 100.409 58.6361C100.47 56.9842 100.401 55.3263 100.331 53.6707C100.318 53.3695 100.306 53.0684 100.294 52.7674C100.27 52.1543 100.218 51.5422 100.166 50.9302L100.166 50.93C100.11 50.2561 100.053 49.5822 100.033 48.9072C99.9698 46.8038 99.2511 44.8755 98.5044 42.8719L98.5043 42.8718L98.4176 42.639ZM96.9947 49.5993C95.8131 48.6762 94.4274 48.4871 92.9045 48.6403C92.7631 48.6656 92.6429 48.6939 92.5317 48.72L92.5317 48.72C92.4385 48.742 92.3516 48.7624 92.2639 48.7783C90.8247 49.0399 89.591 49.6274 88.7433 50.8905C88.6544 51.023 88.322 51.0902 88.1385 51.0442C87.3298 50.8415 86.5791 50.8244 85.9509 51.4783C85.8731 51.5593 85.8008 51.6456 85.7285 51.7319C85.6952 51.7716 85.662 51.8113 85.6282 51.8505C85.6154 51.7927 85.5978 51.7345 85.5802 51.6763L85.5802 51.6762C85.5422 51.5505 85.5042 51.4248 85.5148 51.3033C85.6403 49.8583 84.9482 48.9586 83.6879 48.351C82.5083 47.7824 81.2693 47.6611 79.9951 47.6627C78.0542 47.6651 76.4012 48.9219 75.7189 50.7599C75.3023 51.8823 75.4153 52.9737 75.7746 54.0105C76.1253 55.0224 76.524 56.1042 77.5663 56.6653C77.6983 56.7364 77.8311 56.8109 77.9648 56.8859C78.577 57.2294 79.2073 57.583 79.859 57.6609C79.9174 57.6679 79.9762 57.6751 80.0352 57.6824C81.002 57.8008 82.0388 57.9279 82.9521 57.2754C84.3324 56.2892 85.0854 54.8951 85.485 53.3131C85.6736 52.5666 86.0545 52.1174 86.7201 51.819C87.7218 51.37 88.3502 51.7649 88.4548 52.8023C88.5771 54.0156 88.8441 55.2092 89.5552 56.2486C90.3883 57.4664 91.5196 58.207 92.9162 58.722C94.5994 59.3427 95.8089 58.9644 97.0293 57.9775C99.2973 56.1436 99.5231 51.5747 96.9947 49.5993ZM91.7271 49.6545C92.6785 49.3707 93.7112 49.279 94.719 49.5477C95.8633 49.6338 96.6148 50.279 97.1693 51.0626C97.7258 51.8492 98.2306 52.7408 98.1951 53.7604C98.157 54.8539 97.7457 55.8386 97.0585 56.699C96.4688 57.4373 95.7007 57.909 94.7896 58.1114C94.5986 58.1538 94.3837 58.0985 94.1719 58.044L94.1718 58.044C94.0961 58.0245 94.0208 58.0051 93.9471 57.9903C91.5219 57.5041 89.8986 56.1761 89.4155 53.6579C89.3847 53.4973 89.3456 53.338 89.3066 53.1792C89.1499 52.5406 88.995 51.9092 89.3867 51.227C89.9228 50.2935 90.8318 49.9215 91.7271 49.6545ZM84.6678 51.2992C84.8189 52.5823 84.4037 53.7361 83.8323 54.8513C83.7175 55.0039 83.6188 55.1492 83.5255 55.2865L83.5255 55.2865C83.389 55.4874 83.2643 55.6711 83.1177 55.8352C82.3107 56.7393 81.3459 57.0234 80.1218 56.7651C79.2638 56.584 78.5004 56.362 77.787 55.8162C76.9276 55.1586 76.559 54.2512 76.3124 53.2963C75.9195 51.7749 76.4547 50.4979 77.5453 49.4056C78.4258 48.5235 79.5394 48.4138 80.652 48.5256C81.7231 48.6332 82.769 48.899 83.7141 49.5328C84.3915 49.9871 84.5841 50.5891 84.6678 51.2992ZM84.3905 45.9886C85.1007 46.0285 85.6902 45.9535 86.2277 45.5195C86.3262 45.4399 86.5328 45.4943 86.7394 45.5487C86.8342 45.5737 86.9291 45.5987 87.0135 45.6107C86.9737 45.6566 86.9352 45.704 86.8968 45.7513C86.8137 45.8538 86.7306 45.9562 86.6339 46.0436C85.7344 46.8566 84.7445 46.7998 83.6496 46.461C82.6926 46.165 81.6875 45.9365 80.6915 45.8747C79.1958 45.7818 77.9166 46.3637 76.9163 47.5171C76.8299 47.6167 76.6962 47.6752 76.5625 47.7338C76.5005 47.7609 76.4386 47.788 76.3813 47.8192C76.3996 47.7385 76.4099 47.651 76.4201 47.5635C76.4422 47.3751 76.4643 47.1866 76.5664 47.0659C78.2356 45.0925 80.4091 45.0108 82.7101 45.5031C83.0325 45.572 83.3484 45.6715 83.6777 45.7751L83.6777 45.7751L83.6778 45.7751L83.6778 45.7751L83.6778 45.7752L83.6779 45.7752C83.9067 45.8472 84.142 45.9213 84.3905 45.9886ZM95.4067 46.488C94.0471 46.2796 92.6938 46.3031 91.4738 47.21C91.2957 47.3417 91.12 47.4677 90.9472 47.5916L90.9472 47.5916L90.9472 47.5916L90.9472 47.5917L90.9471 47.5917C90.6011 47.8399 90.2668 48.0795 89.9488 48.3391C89.8771 48.3976 89.866 48.5306 89.855 48.6635C89.8499 48.7247 89.8448 48.7859 89.8338 48.8398C89.8816 48.8336 89.9317 48.8316 89.9818 48.8295C90.0926 48.825 90.2035 48.8205 90.2884 48.7713C90.5318 48.6302 90.7529 48.4473 90.9711 48.2668L90.9814 48.2583C92.3352 47.1387 93.8394 46.6867 95.5729 47.1883C96.1754 47.3627 96.7833 47.5232 97.3969 47.6511C97.4964 47.6718 97.6113 47.6189 97.7262 47.566C97.779 47.5417 97.8319 47.5173 97.8832 47.5001C97.8442 47.4586 97.8075 47.4104 97.7709 47.3621C97.6912 47.2574 97.6116 47.1526 97.5081 47.117C97.3769 47.0718 97.2457 47.0251 97.1142 46.9783L97.1134 46.978L97.1133 46.978L97.1131 46.9779L97.113 46.9779C96.5518 46.7781 95.9869 46.577 95.4067 46.488ZM88.0543 61.0975C87.2361 61.1557 86.4521 61.2034 85.6701 61.181C85.5665 61.178 85.4666 61.0468 85.3666 60.9155C85.3205 60.8549 85.2744 60.7944 85.228 60.7464C85.2881 60.721 85.348 60.6896 85.4078 60.6582C85.5383 60.5897 85.6687 60.5213 85.802 60.5152C86.5222 60.4825 87.2444 60.4849 87.9657 60.493C88.1379 60.4949 88.3099 60.5225 88.4818 60.5501C88.5603 60.5627 88.6388 60.5754 88.7173 60.5855L88.7172 60.5856L88.7169 60.5858L88.7167 60.586L88.7166 60.5861C88.5075 60.7449 88.2983 60.9038 88.0543 61.0975ZM92.3802 51.0489C91.8833 51.601 91.9375 52.7637 92.5207 53.351C93.703 53.3858 94.4123 52.2003 93.8617 51.2027C93.5561 50.6488 92.8099 50.5714 92.3802 51.0489ZM81.8782 50.3154C82.1271 51.0505 81.9644 51.8119 81.4094 52.2221C81.2481 52.3413 80.8393 52.3785 80.7255 52.2674C80.084 51.6413 79.9764 50.5816 80.8944 50.0315C81.3125 49.781 81.6107 49.8971 81.8782 50.3154ZM127.104 46.9543C127.465 47.4961 127.828 48.0418 128.321 48.5088C128.353 49.5672 128.362 50.5544 128.091 51.5195C128.042 51.6925 128.078 51.8555 128.115 52.02C128.144 52.1541 128.338 52.2507 128.451 52.1864C128.597 52.1032 128.741 52.0149 128.878 51.9179C128.971 51.8526 129.062 51.7865 129.154 51.7204C129.543 51.4397 129.932 51.1591 130.366 50.948C130.419 50.9223 130.472 50.8969 130.525 50.8715C130.727 50.7748 130.929 50.6781 131.121 50.5651C131.334 50.44 131.54 50.4224 131.769 50.5003C132.555 50.7686 133.367 50.9349 134.178 51.1011C134.307 51.1276 134.437 51.1541 134.566 51.1811C134.605 51.1892 134.644 51.1979 134.683 51.2066C134.782 51.2288 134.88 51.251 134.981 51.2635C135.303 51.3038 135.627 51.335 135.951 51.3661C136.469 51.4161 136.988 51.466 137.502 51.5533C137.613 51.5723 137.73 51.5803 137.84 51.5656C138.101 51.5309 138.364 51.5075 138.627 51.484C139.152 51.4372 139.676 51.3904 140.189 51.2539C140.539 51.1605 140.887 51.056 141.235 50.9515C141.374 50.9097 141.513 50.868 141.652 50.8269C141.716 50.8079 141.781 50.7888 141.846 50.7698C142.214 50.6612 142.582 50.5527 142.949 50.4408C143.056 50.4083 143.162 50.3683 143.262 50.3181C143.349 50.2747 143.436 50.2316 143.522 50.1884C144.242 49.8298 144.961 49.4717 145.614 48.9861C145.696 48.925 145.779 48.8656 145.863 48.8062C146.123 48.6205 146.383 48.4353 146.605 48.1995C146.74 48.0566 146.89 47.9275 147.04 47.7992L147.041 47.7976C147.474 47.4261 147.821 46.9819 148.142 46.5157C148.543 45.9325 148.707 45.2582 148.87 44.5846L148.88 44.5459C148.86 44.3064 148.906 44.0757 148.952 43.8449C148.973 43.7442 148.993 43.6434 149.007 43.5419C149.212 42.1251 149.03 40.7851 148.185 39.5816C148.082 39.4347 147.997 39.2751 147.911 39.1156C147.877 39.0505 147.842 38.9853 147.806 38.9211C147.598 38.5499 147.365 38.1968 147.062 37.8955C146.398 37.2373 145.697 36.6315 144.87 36.1752C144.284 35.8513 143.673 35.5874 143.06 35.323C142.922 35.2632 142.783 35.2034 142.645 35.1429C141.571 34.6731 140.453 34.4117 139.296 34.2941C138.939 34.258 138.581 34.2393 138.223 34.2206C138.045 34.2114 137.867 34.2021 137.689 34.1907C136.701 34.1269 135.712 34.1051 134.725 34.184C133.881 34.2513 133.038 34.3317 132.195 34.412C132.027 34.428 131.859 34.4441 131.69 34.46C131.608 34.4677 131.525 34.4997 131.45 34.5355C131.055 34.7233 130.647 34.8803 130.239 35.0373C130.016 35.1229 129.793 35.2085 129.573 35.2992C128.613 35.6939 127.789 36.2603 127.204 37.14C127.12 37.2672 127.027 37.3889 126.935 37.5105C126.856 37.6135 126.778 37.7165 126.704 37.8229C126.172 38.5944 125.718 39.4056 125.531 40.3371C125.494 40.5198 125.472 40.7054 125.451 40.8911C125.436 41.0138 125.422 41.1366 125.403 41.2587C125.309 41.8752 125.304 42.4811 125.428 43.1027C125.641 44.1672 126.079 45.1408 126.528 46.1147C126.54 46.14 126.556 46.1637 126.573 46.1864C126.758 46.4354 126.931 46.6944 127.104 46.9543ZM128.841 50.9411C128.837 50.9415 128.833 50.942 128.828 50.9425C128.825 50.9476 128.832 50.9548 128.849 50.9638C128.846 50.9563 128.844 50.9487 128.841 50.9411ZM128.911 50.9386C128.887 50.9389 128.864 50.9392 128.841 50.9411C128.794 50.7805 128.82 50.6181 128.865 50.4638C128.976 50.0862 129.024 49.6986 129.072 49.3111C129.1 49.0822 129.129 48.8535 129.17 48.6268C129.196 48.4841 129.164 48.3385 129.013 48.2684C128.531 48.046 128.217 47.6422 127.915 47.2345C127.665 46.8945 127.426 46.5393 127.231 46.1652C127.05 45.8172 126.915 45.4412 126.792 45.067C126.634 44.5846 126.497 44.0945 126.369 43.6028C126.254 43.1628 126.243 42.7086 126.247 42.2561C126.248 42.1579 126.255 42.0597 126.261 41.9614C126.27 41.8336 126.279 41.7059 126.274 41.5785C126.229 40.1881 126.788 38.9985 127.501 37.8612C127.95 37.1465 128.594 36.6244 129.328 36.2542C130.182 35.8236 131.071 35.446 132.015 35.2444C132.899 35.0558 133.788 34.8996 134.696 34.8692C135.031 34.858 135.363 34.8398 135.695 34.7257C135.924 34.6469 136.186 34.649 136.438 34.651C136.47 34.6512 136.501 34.6515 136.532 34.6516C136.87 34.6526 137.21 34.6753 137.547 34.7126C137.576 34.7159 137.605 34.7192 137.635 34.7224C137.97 34.7599 138.304 34.7973 138.643 34.8017C138.869 34.8048 139.096 34.8541 139.319 34.9028C139.345 34.9083 139.37 34.9138 139.395 34.9193C139.987 35.0469 140.562 35.2342 141.137 35.4215C141.501 35.5403 141.866 35.6591 142.235 35.7628C142.446 35.866 142.658 35.9687 142.869 36.0715C143.342 36.3015 143.816 36.5314 144.286 36.7662C145.205 37.2239 145.935 37.9239 146.664 38.6231L146.741 38.6972C147.244 39.1785 147.542 39.7929 147.765 40.434C147.977 41.046 148.124 41.678 148.168 42.3334C148.242 43.4257 148.055 44.4646 147.667 45.4849C147.264 46.5476 146.613 47.43 145.714 48.0934C144.554 48.9505 143.29 49.6444 141.911 50.0988C141.323 50.2926 140.735 50.486 140.124 50.6134C139.204 50.8054 138.274 50.8217 137.342 50.8316C137.304 50.8319 137.266 50.8301 137.228 50.8283C137.181 50.8261 137.135 50.8239 137.088 50.8257C135.394 50.8889 133.786 50.4721 132.195 49.955C132.043 49.9056 131.889 49.8616 131.735 49.8175C131.645 49.7917 131.555 49.7659 131.465 49.739C131.291 49.6868 131.128 49.7161 130.981 49.8153C130.696 50.0069 130.392 50.163 130.087 50.3191C129.739 50.4977 129.39 50.6763 129.071 50.9081C129.032 50.9372 128.971 50.9379 128.911 50.9386Z" fill="white"/>
<path fill-rule="evenodd" clip-rule="evenodd" d="M108.683 95.6873L108.683 95.6872C108.805 95.5801 108.93 95.4709 109.06 95.3626C109.147 95.2488 109.235 95.1402 109.321 95.0339C109.531 94.7758 109.73 94.5309 109.87 94.2557C110.216 93.5732 110.032 93.3274 109.303 93C108.97 92.8508 108.665 92.6423 108.359 92.4335C108.159 92.2968 107.959 92.1599 107.75 92.0392L107.703 92.0121C107.421 91.8484 107.114 91.67 106.806 91.6446C105.199 91.5119 103.821 93.6327 104.462 95.1688C105.124 96.7567 106.443 97.2372 107.824 96.3662C108.126 96.1755 108.398 95.9369 108.683 95.6873ZM105.044 94.5223C105.001 93.9868 105.075 93.4966 105.466 93.0944C105.567 93.0173 105.652 92.9615 105.727 92.9126C105.8 92.8652 105.862 92.8242 105.919 92.7766C106.595 92.2134 107.029 92.2502 107.702 92.7968C108.099 93.1196 108.573 93.3704 109.049 93.5681C109.413 93.72 109.451 93.9274 109.226 94.1431C109.083 94.2803 108.942 94.4216 108.8 94.5633C108.301 95.0621 107.799 95.5649 107.207 95.9088C106.307 96.4322 105.131 95.5973 105.044 94.5223ZM64.1524 95.5372L64.2556 95.4456L64.2556 95.4456C64.8341 94.9321 65.389 94.4395 66.0095 94.0522C66.6987 93.6221 67.482 93.8064 68.0881 94.3735C69.02 95.2453 69.6383 95.1439 70.2463 94.3999C70.3048 94.3283 70.3693 94.2572 70.4438 94.2037C70.5246 94.1455 70.6047 94.0814 70.6853 94.0169L70.6854 94.0169L70.6854 94.0169C71.0465 93.728 71.4178 93.4309 71.9139 93.6216C72.5256 93.8567 72.7714 94.4121 72.9644 95.0449C73.4042 96.4863 72.5101 97.7104 71.3905 98.3488C70.1041 99.0821 68.7185 99.3684 67.297 99.5809C66.2758 99.7337 64.3083 98.8461 63.8656 98.1234C63.2943 97.1905 63.6428 96.398 64.1524 95.5372ZM70.1541 98.1194C70.2138 98.0895 70.2737 98.0599 70.3336 98.0303C71.386 97.5098 72.4324 96.9924 72.2554 95.4788C72.2461 95.3989 72.2416 95.3151 72.2372 95.2312C72.2169 94.8509 72.1964 94.4672 71.7197 94.4185C71.4163 94.3875 71.016 94.6417 70.7648 94.8787C69.7238 95.8607 68.8603 95.9538 67.7687 94.9245C67.4358 94.6106 67.0628 94.285 66.4297 94.5355C65.3276 94.9715 64.8374 95.8795 64.4613 96.8499C64.2897 97.2925 64.334 97.9141 64.9974 98.123C65.1942 98.1849 65.3919 98.2591 65.59 98.3334L65.59 98.3334L65.59 98.3334L65.59 98.3334L65.59 98.3334L65.59 98.3334L65.59 98.3334L65.59 98.3334L65.59 98.3334L65.5901 98.3334L65.5901 98.3335L65.5901 98.3335L65.5901 98.3335L65.5901 98.3335C66.0963 98.5234 66.605 98.7142 67.1082 98.7049C67.9039 98.6901 68.6961 98.4881 69.5245 98.2769L69.5245 98.2769L69.5246 98.2769L69.5246 98.2769L69.5247 98.2769L69.5247 98.2768L69.5248 98.2768L69.5248 98.2768L69.5249 98.2768L69.5249 98.2768L69.525 98.2768L69.525 98.2768L69.5251 98.2768L69.5251 98.2767C69.7323 98.2239 69.9417 98.1705 70.1541 98.1194ZM93.5224 133.838L93.4846 133.915C93.0317 134.848 92.594 135.75 91.5767 136.147C90.5174 136.56 88.8067 136.696 87.9745 135.639C87.4814 135.012 87.4488 134.18 88.0015 133.585C88.1763 133.397 88.3618 133.214 88.5475 133.032L88.5477 133.031C89.0186 132.568 89.4905 132.103 89.7923 131.547C90.0809 131.016 90.2098 130.398 90.3388 129.779L90.3388 129.779L90.3388 129.779L90.3388 129.779L90.3388 129.779L90.3388 129.779L90.3388 129.779L90.3388 129.779L90.3388 129.779L90.3389 129.779L90.3389 129.779L90.3389 129.779L90.3389 129.779L90.3389 129.779C90.3983 129.494 90.4578 129.209 90.5329 128.932C90.772 128.051 91.0227 127.159 91.8879 126.67C92.5111 126.317 93.0074 126.546 93.4731 127.114C94.3189 128.145 94.2381 129.31 94.1582 130.463V130.463V130.463V130.464V130.464V130.464V130.464V130.464V130.464V130.464V130.464V130.464V130.464V130.464C94.1375 130.763 94.1168 131.061 94.1124 131.355C94.1037 131.929 93.9322 132.501 93.7566 133.087C93.6914 133.304 93.6256 133.523 93.5674 133.745L93.5224 133.838ZM91.5087 129.244C91.4943 129.332 91.4804 129.421 91.4664 129.509C91.3167 130.458 91.1657 131.415 90.5217 132.18C90.0336 132.759 89.4822 133.296 88.9026 133.785C88.3556 134.246 88.2614 134.79 88.7538 135.282C89.6207 136.148 91.723 135.754 92.3355 134.57C92.6993 133.866 93.0084 133.124 93.253 132.37C93.7057 130.976 93.4252 129.612 92.911 128.289C92.8332 128.089 92.6142 127.827 92.4436 127.814C92.2832 127.801 92.0599 128.054 91.937 128.238C91.7598 128.504 91.6482 128.814 91.5087 129.244ZM91.6027 100.12C90.9627 99.6604 90.3543 99.653 89.6974 99.8033C88.6221 100.05 87.4598 101.303 87.4598 102.585C87.4598 103.876 88.0342 104.821 89.093 105.43C90.115 106.018 91.1905 106.428 92.4582 106.312C93.9424 106.176 95.0643 105.595 95.6712 104.238C95.7976 103.956 95.7857 103.612 95.7738 103.267V103.267C95.7684 103.11 95.7629 102.952 95.7708 102.8C95.6403 102.801 95.5058 102.791 95.3714 102.781C95.069 102.759 94.7665 102.737 94.5089 102.834C94.0293 103.014 93.7729 102.848 93.6117 102.49C93.1662 101.501 92.4915 100.759 91.6027 100.12ZM89.3483 100.854C89.9666 100.562 91.106 100.238 91.7821 100.854C92.4582 101.469 92.7143 102.046 92.8842 102.44C93.2942 103.392 93.8706 103.705 94.8442 103.442C94.936 103.418 95.0345 103.418 95.1329 103.418C95.1785 103.418 95.2241 103.418 95.2691 103.415C95.2553 103.46 95.2428 103.506 95.2304 103.552C95.2037 103.65 95.177 103.748 95.1363 103.84C94.1744 106.019 91.0829 105.694 89.6377 104.774C88.756 104.213 88.255 103.481 88.2976 102.415C88.3271 101.676 88.712 101.153 89.3483 100.854ZM95.661 118.113C95.4965 118.252 95.3408 118.399 95.1873 118.545C94.8409 118.872 94.5063 119.189 94.1105 119.376C93.2456 119.784 92.3225 119.574 91.4813 119.16C90.0614 118.462 89.1855 117.4 89.2733 115.72C89.3358 114.522 90.0508 113.824 91.0166 113.248C91.8309 112.763 92.626 112.66 93.4775 113.07C94.114 113.377 94.2892 113.97 94.4622 114.556C94.4969 114.674 94.5314 114.791 94.5696 114.906C94.6192 115.054 94.6327 115.216 94.6461 115.377C94.6607 115.552 94.6752 115.726 94.7363 115.884C94.8247 116.112 95.0394 116.394 95.2531 116.453C96.3057 116.745 96.4104 117.003 95.7477 117.891C95.7298 117.915 95.721 117.946 95.7104 117.982C95.6996 118.02 95.6869 118.063 95.661 118.113ZM94.3002 118.218C94.3304 118.202 94.3619 118.188 94.3934 118.174C94.4613 118.144 94.5293 118.114 94.5848 118.068C95.2498 117.525 95.2477 117.523 94.6083 116.969L94.5747 116.94C94.3876 116.778 94.2362 116.521 94.1721 116.28C94.106 116.032 94.0605 115.776 94.0151 115.52V115.52C93.9415 115.106 93.8682 114.694 93.7078 114.317C93.5656 113.982 93.1056 113.643 92.7385 113.574C91.9879 113.432 90.3324 114.771 90.266 115.536C90.1764 116.567 90.4861 117.445 91.443 118.022C92.3412 118.564 93.2362 118.877 94.3002 118.218ZM55.9795 105.196C57.5185 104.208 58.5037 102.896 58.7091 100.98C58.7091 100.81 58.7148 100.647 58.7205 100.488C58.7325 100.147 58.7437 99.8291 58.6956 99.5201C58.5911 98.8496 58.3703 98.1974 57.4451 98.3473C56.9925 98.4207 56.5275 98.6286 56.1465 98.8899C55.3584 99.4305 55.0924 100.325 54.8394 101.176L54.8167 101.252C54.442 102.509 53.8604 103.394 52.3704 103.393C52.1107 103.393 51.6884 103.881 51.6221 104.201C51.4415 105.074 52.3122 105.97 53.2483 106.006C54.2512 106.044 55.13 105.741 55.9795 105.196ZM53.9961 105.251C53.915 105.269 53.8339 105.286 53.7542 105.307C53.0802 105.382 52.7589 105.029 52.449 104.689C52.4246 104.663 52.4003 104.636 52.3759 104.61C52.3262 104.556 52.3526 104.337 52.4146 104.292L52.4596 104.259C52.6552 104.116 52.8677 103.961 53.092 103.923C54.2255 103.73 54.8527 103.07 55.2447 101.999C55.5749 101.096 56.0712 100.239 56.6053 99.4355C56.776 99.1787 57.31 99.056 57.6626 99.0816C57.8003 99.0916 57.9891 99.6761 57.9964 100.003C58.0543 102.581 56.6215 104.186 54.5068 105.105C54.3458 105.175 54.171 105.213 53.9961 105.251ZM56.9993 111.413C57.2742 110.581 57.8724 110.049 58.4625 109.523C58.6712 109.338 58.8789 109.153 59.0709 108.956C59.4518 108.565 60.3293 109.077 60.5238 109.739C60.605 110.016 60.6842 110.293 60.7634 110.57L60.7635 110.57L60.7635 110.57C60.963 111.269 61.1626 111.967 61.3942 112.655C61.5952 113.251 61.512 113.718 61.0846 114.185C60.7609 114.539 60.4681 114.943 60.2548 115.371C59.7305 116.423 58.959 116.686 57.7885 115.769C56.2425 114.559 56.4482 113.039 56.9993 111.413ZM60.663 112.914L60.4027 112.262L60.4023 112.261C60.1633 111.663 59.9244 111.065 59.6867 110.466C59.638 110.344 59.5934 110.219 59.5488 110.095C59.5283 110.038 59.5078 109.98 59.4869 109.923C59.4266 109.952 59.3643 109.978 59.302 110.004L59.302 110.004L59.3019 110.004L59.3019 110.004C59.1667 110.061 59.0316 110.118 58.9166 110.202C58.0643 110.826 57.6611 111.756 57.4825 112.728C57.3403 113.501 57.3063 114.383 57.9206 115.023C58.2027 115.317 58.6525 115.493 59.0582 115.595C59.1203 115.61 59.2313 115.417 59.349 115.212C59.4158 115.095 59.4847 114.975 59.5481 114.887C59.6557 114.738 59.7673 114.592 59.8789 114.445L59.8789 114.445L59.8789 114.445L59.879 114.445L59.879 114.445L59.879 114.445L59.879 114.445L59.879 114.445L59.8791 114.445L59.8791 114.445C60.0623 114.205 60.2455 113.964 60.4105 113.712C60.5232 113.54 60.5711 113.325 60.6385 113.023L60.663 112.914ZM76.3902 108.861C74.9844 108.329 73.5839 108.65 73.5038 110.472C73.5886 110.666 73.6669 110.861 73.7441 111.053L73.7441 111.053L73.7442 111.053L73.7442 111.054L73.7443 111.054L73.7443 111.054L73.7443 111.054L73.7444 111.054C73.9637 111.6 74.1743 112.124 74.4992 112.563C75.6713 114.149 77.1541 114.625 78.8029 113.965C79.8513 113.545 79.856 112.585 79.154 111.983C78.4944 111.418 77.9264 110.781 77.5773 109.924C77.3942 109.475 76.8633 109.04 76.3902 108.861ZM77.7895 113.275C77.0316 113.413 76.2683 113.552 75.6671 112.844C74.9201 112.109 74.4039 111.363 74.3373 110.373C74.3106 109.975 74.468 109.759 74.8405 109.611C75.3636 109.403 76.5673 109.657 76.6834 110.174C76.8479 110.906 77.2813 111.436 77.7151 111.967C77.8864 112.177 78.0578 112.386 78.2127 112.608C78.3027 112.738 78.3987 112.972 78.3414 113.067C78.2713 113.182 78.0473 113.229 77.8815 113.259L77.7895 113.275ZM73.0063 126.994L73.0063 126.994C73.0443 126.606 73.0802 126.24 73.2518 125.957C73.6964 125.224 73.5926 124.592 73.228 123.913C73.1923 123.847 73.1727 123.771 73.1531 123.696C73.1342 123.624 73.1153 123.551 73.0819 123.486C72.7856 122.91 72.9246 122.345 73.442 122.105C73.8058 121.936 74.4142 121.989 74.7815 122.187C75.9755 122.832 76.517 123.975 76.7011 125.264C76.862 126.39 76.6096 127.484 76.1513 128.517C75.5602 129.85 74.3668 129.68 73.6055 128.89C73.3664 128.642 73.238 128.287 73.1021 127.912C73.0528 127.776 73.0024 127.637 72.9455 127.499C72.9733 127.33 72.99 127.16 73.0063 126.994ZM75.3182 123.8C75.2469 123.729 75.1769 123.656 75.1069 123.584L75.1069 123.584C74.9345 123.404 74.7622 123.225 74.5711 123.069C74.4903 123.003 74.3736 122.98 74.257 122.958C74.2041 122.948 74.1511 122.938 74.1015 122.924C74.0897 122.979 74.0691 123.04 74.0484 123.1C74.0037 123.231 73.9591 123.362 74.0043 123.441C74.5053 124.325 74.3911 125.139 73.8664 125.971C73.7557 126.147 73.7152 126.366 73.6747 126.586C73.6546 126.695 73.6345 126.804 73.6059 126.908C73.45 127.473 73.8655 128.546 74.3948 128.709L74.4399 128.723C74.7221 128.812 75.1024 128.931 75.3267 128.46C76.0488 126.944 76.2884 125.445 75.3182 123.8ZM116.402 109.329C117.301 109.724 118.81 109.592 119.947 108.343C120.031 108.214 120.114 108.087 120.197 107.963C120.455 107.574 120.702 107.203 120.91 106.811C121.432 105.831 120.528 104.322 119.41 104.344C119.093 104.351 118.776 104.411 118.46 104.471C118.165 104.527 117.871 104.584 117.574 104.596C116.677 104.635 115.966 104.954 115.465 105.707C114.598 107.009 114.924 108.679 116.402 109.329ZM117.825 105.588C117.869 105.587 117.914 105.586 117.958 105.586C118.063 105.568 118.163 105.556 118.257 105.545C118.514 105.514 118.721 105.489 118.838 105.373C119.22 104.993 119.553 105.169 119.847 105.401C120.166 105.651 120.342 105.958 120.189 106.447C119.827 107.599 119.175 108.449 117.983 108.756C117.315 108.928 116.689 108.763 116.226 108.184C115.808 107.661 115.744 107.108 116.053 106.516C116.365 105.916 116.802 105.511 117.539 105.584C117.634 105.593 117.73 105.591 117.825 105.588ZM100.546 107.226C101.427 106.644 102.266 106.607 103.065 107.267C103.292 107.454 103.491 107.694 103.642 107.946C103.709 108.057 103.748 108.187 103.788 108.317L103.788 108.317C103.838 108.484 103.888 108.649 103.995 108.766C104.468 109.288 104.172 109.755 103.785 109.947C102.809 110.429 101.779 110.823 100.738 111.148C100.19 111.319 99.4583 110.671 99.3253 110.052C99.0336 108.693 99.5843 107.797 100.546 107.226ZM102.752 108.868L102.752 108.868L102.752 108.868L102.752 108.868L102.752 108.868L102.752 108.868L102.752 108.867C102.589 108.642 102.427 108.416 102.251 108.201L102.236 108.182C102.118 108.037 101.967 107.851 101.815 107.835C100.68 107.711 99.7071 109.023 100.17 110.048C100.307 110.35 100.586 110.674 100.918 110.32C101.376 109.83 101.942 109.73 102.541 109.625L102.582 109.617C102.748 109.588 102.877 109.355 102.954 109.146C102.886 109.054 102.82 108.962 102.753 108.869L102.753 108.869L102.753 108.869L102.752 108.868ZM98.1894 137.788C98.1661 137.901 98.1417 138.019 98.1035 138.142C98.1094 138.232 98.1338 138.313 98.1569 138.39C98.1795 138.465 98.2008 138.536 98.2024 138.607C98.2418 140.331 100.494 141.663 101.899 141.459C102.881 141.317 103.419 140.96 103.56 140.055C103.686 139.25 103.489 138.37 102.858 137.856C102.132 137.264 101.256 136.818 100.385 136.452C99.35 136.018 98.6969 136.366 98.2912 137.403C98.2441 137.524 98.2175 137.652 98.1894 137.788ZM99.2203 137.48C99.2818 137.364 99.3434 137.247 99.3946 137.13C99.5201 137.16 99.6453 137.188 99.7695 137.217C100.934 137.482 102.014 137.728 102.533 138.886C102.779 139.436 103.059 140.095 102.384 140.523C102.059 140.729 101.562 140.793 101.168 140.738C100.188 140.602 98.7969 139.546 98.9253 138.252C98.9515 137.987 99.0859 137.734 99.2203 137.48ZM99.8831 120.381C101.019 120.487 101.92 120.989 102.107 122.187C102.173 122.611 102.441 122.667 102.736 122.729C102.779 122.738 102.822 122.747 102.866 122.757C103.518 122.913 104.036 123.45 103.933 124.298C103.859 124.912 103.543 125.163 102.663 125.113C102.075 125.08 101.457 125.018 100.914 124.808C99.1578 124.128 98.6545 122.682 98.7784 121.153C98.8248 120.579 99.2488 120.345 99.8831 120.381ZM102.465 123.451C101.712 123.499 101.352 123.048 101.294 122.391C101.232 121.696 100.735 121.475 100.245 121.256L100.189 121.231C99.839 121.074 99.4268 121.482 99.4843 121.866C99.699 123.302 101.335 124.55 102.802 124.437C103.343 124.396 103.274 124.117 103.079 123.832C103.015 123.738 102.898 123.681 102.759 123.613C102.668 123.568 102.567 123.519 102.465 123.451ZM85.7862 147.458C85.8031 147.274 85.8043 147.087 85.8054 146.905C85.8078 146.503 85.8101 146.124 85.9814 145.85C86.3994 145.183 86.9033 144.57 87.4072 143.956L87.4075 143.956C87.6126 143.706 87.8177 143.457 88.017 143.203C88.3599 142.768 88.8919 142.515 89.3257 142.751C89.7664 142.99 90.1941 143.478 90.362 143.951C90.7613 145.075 90.2578 146.042 89.5047 146.866C89.2911 147.1 89.049 147.308 88.8067 147.516L88.8067 147.516L88.8066 147.516C88.6157 147.679 88.4247 147.843 88.2473 148.02C87.2634 149.001 86.3864 148.544 85.7862 147.458ZM88.2287 147.179C89.2343 146.518 89.883 145.66 89.8404 144.385C89.8255 143.94 89.6587 143.643 89.255 143.455C88.8307 143.257 88.5415 143.524 88.4109 143.81C88.081 144.535 87.6098 145.154 87.1377 145.774C86.9743 145.989 86.8108 146.203 86.6531 146.423C86.4925 146.646 86.5917 147.185 86.7539 147.478C86.9429 147.819 87.3212 147.761 87.6406 147.499C87.7186 147.435 87.8128 147.391 87.9215 147.34C88.0138 147.297 88.1166 147.248 88.2287 147.179ZM82.4191 139.123C82.854 138.114 82.9197 137.032 82.6807 135.909C82.6608 135.889 82.6454 135.874 82.6334 135.863C82.6145 135.846 82.6039 135.836 82.5972 135.824C82.115 134.966 81.6104 134.582 81.0437 134.769C80.3265 135.007 80.0592 135.543 80.0338 136.322C80.0156 136.878 79.7952 137.368 79.0484 137.586C77.94 137.909 78.0199 138.903 78.7037 139.441C78.9649 139.646 79.2971 139.765 79.6259 139.882C79.7294 139.919 79.8325 139.956 79.9329 139.996C80.5618 140.242 82.1086 139.843 82.4191 139.123ZM81.9316 136.363C81.9596 136.41 81.9876 136.457 82.0178 136.502C82.0178 136.752 82.0339 136.992 82.0494 137.223C82.0819 137.706 82.1113 138.144 81.9835 138.53C81.6557 139.521 79.7086 139.697 79.0876 138.84C79.0212 138.748 79.2061 138.3 79.3334 138.27C80.3628 138.03 80.7449 137.363 80.7802 136.369C80.7878 136.153 80.9953 135.895 81.1848 135.76C81.2559 135.71 81.5562 135.935 81.7173 136.074C81.8057 136.151 81.8687 136.257 81.9316 136.363Z" fill="#FFB61D"/>
</svg>
