<svg width="200" height="200" viewBox="0 0 200 200" fill="none" xmlns="http://www.w3.org/2000/svg">
<path fill-rule="evenodd" clip-rule="evenodd" d="M193.229 122.501C190.148 129.777 184.805 131.043 179.148 136.848C173.491 142.654 156.501 139.331 150.656 142.71C134.808 151.871 134.31 162.233 107.556 163.575C97.9363 164.058 89.4984 162.963 80.8969 161.849C71.8802 160.68 61.1918 164.252 48.9921 156.768C19.2316 138.512 0.717712 108.496 0.0239599 92.7163C-0.521605 80.3073 8.37052 71.755 14.3587 66.0707C27.0873 53.9879 43.4739 57.3095 58.8246 53.0359C80.4845 47.0058 94.3697 34.2607 109.886 35.0336C131.791 34.4605 145.456 52.1905 162.698 53.0359C174.957 53.637 216.027 68.6457 193.229 122.501Z" fill="white" fill-opacity="0.1"/>
<ellipse cx="0.147855" cy="0.591615" rx="0.147855" ry="0.591615" transform="matrix(0.933527 0.358508 -0.358228 0.933634 50.5352 107.497)" fill="#FFB61D"/>
<ellipse cx="141.132" cy="103.664" rx="0.295828" ry="0.591665" fill="#FFB61D"/>
<path fill-rule="evenodd" clip-rule="evenodd" d="M34.5091 71.2146C34.6377 71.3153 34.6603 71.5013 34.5596 71.6299L30.6755 76.5882C30.5747 76.7168 30.3888 76.7394 30.2601 76.6387C30.1315 76.5379 30.1089 76.352 30.2097 76.2234L34.0938 71.265C34.1946 71.1364 34.3805 71.1138 34.5091 71.2146Z" fill="#E7EAEE"/>
<path fill-rule="evenodd" clip-rule="evenodd" d="M39.5674 72.6344C39.6917 72.7404 39.7066 72.9271 39.6006 73.0514L34.4026 79.1507C34.2966 79.275 34.1099 79.2899 33.9855 79.1839C33.8612 79.078 33.8463 78.8913 33.9523 78.7669L39.1503 72.6677C39.2563 72.5433 39.443 72.5284 39.5674 72.6344Z" fill="#E7EAEE"/>
<path fill-rule="evenodd" clip-rule="evenodd" d="M47.8143 73.0368C47.9435 73.1368 47.9671 73.3226 47.8671 73.4518L43.5913 78.9743C43.4913 79.1035 43.3054 79.1271 43.1763 79.0271C43.0471 78.9271 43.0234 78.7413 43.1235 78.6121L47.3993 73.0896C47.4993 72.9604 47.6851 72.9368 47.8143 73.0368Z" fill="#E7EAEE"/>
<path fill-rule="evenodd" clip-rule="evenodd" d="M59.3555 72.591C59.488 72.6866 59.5178 72.8716 59.4222 73.004L55.9405 77.8273C55.8449 77.9598 55.66 77.9897 55.5275 77.894C55.395 77.7984 55.3651 77.6135 55.4608 77.481L58.9425 72.6577C59.0381 72.5253 59.223 72.4954 59.3555 72.591Z" fill="#E7EAEE"/>
<path fill-rule="evenodd" clip-rule="evenodd" d="M138.453 71.7281C138.569 71.8432 138.57 72.0305 138.455 72.1465L134.377 76.2581C134.262 76.3741 134.075 76.3749 133.959 76.2598C133.843 76.1448 133.842 75.9575 133.957 75.8415L138.035 71.7298C138.15 71.6138 138.337 71.6131 138.453 71.7281Z" fill="#E7EAEE"/>
<path fill-rule="evenodd" clip-rule="evenodd" d="M144.094 72.8733C144.207 72.991 144.204 73.1783 144.086 73.2916L138.728 78.4478C138.611 78.5611 138.424 78.5575 138.31 78.4398C138.197 78.3221 138.201 78.1348 138.318 78.0215L143.676 72.8653C143.793 72.752 143.981 72.7556 144.094 72.8733Z" fill="#E7EAEE"/>
<path fill-rule="evenodd" clip-rule="evenodd" d="M156.965 75.4594C157.078 75.5775 157.074 75.7647 156.956 75.8776L153.423 79.2558C153.305 79.3688 153.118 79.3646 153.005 79.2465C152.892 79.1285 152.896 78.9412 153.014 78.8283L156.547 75.4501C156.665 75.3372 156.852 75.3413 156.965 75.4594Z" fill="#E7EAEE"/>
<path fill-rule="evenodd" clip-rule="evenodd" d="M163.685 75.697C163.796 75.8166 163.789 76.0038 163.669 76.115L160.007 79.5194C159.887 79.6307 159.7 79.6238 159.589 79.5042C159.478 79.3845 159.485 79.1973 159.604 79.0861L163.267 75.6817C163.386 75.5705 163.574 75.5773 163.685 75.697Z" fill="#E7EAEE"/>
<path fill-rule="evenodd" clip-rule="evenodd" d="M99.2019 97.3663C99.0838 96.3292 99.0329 95.2844 99.0498 94.2407C98.3934 93.9837 97.6633 94.0258 96.9599 94.0718C94.274 94.2475 91.5881 94.4231 88.9023 94.5988C88.4584 94.6278 88.0051 94.656 87.5754 94.5409C87.1364 94.4233 86.6343 94.17 86.2708 94.4426C85.9557 94.6789 85.9817 95.1508 86.0392 95.5404C86.1474 96.2733 86.2555 97.0062 86.3637 97.7391C86.3821 97.8637 86.4067 97.9999 86.5032 98.0808C86.5922 98.1554 86.7179 98.1621 86.834 98.1652C90.6023 98.2652 94.3742 98.2306 98.1401 98.0614C98.6172 98.04 99.2559 97.8409 99.2019 97.3663V97.3663Z" fill="white"/>
<path fill-rule="evenodd" clip-rule="evenodd" d="M112.09 79.8088C112.174 79.4823 111.868 79.1624 111.539 79.0921C111.209 79.0219 110.871 79.1245 110.544 79.2066C109.242 79.5338 105.624 79.5324 105.132 79.5358C103.695 79.5457 102.258 79.5556 100.82 79.5655C100.479 79.5678 100.191 79.8482 100.07 80.1666C99.9491 80.485 99.9601 80.8361 99.9727 81.1765C99.9858 81.5281 99.9989 81.8798 100.012 82.2314C100.02 82.4411 100.047 82.686 100.227 82.7939C100.305 82.8405 100.398 82.8516 100.489 82.8611C101.882 83.0081 103.287 83.0473 104.687 82.9782C107.163 82.856 109.639 82.396 112.105 82.6505C111.858 81.7252 111.853 80.7366 112.09 79.8088Z" fill="white"/>
<path fill-rule="evenodd" clip-rule="evenodd" d="M156.635 153.064C156.664 152.861 156.83 152.701 157.014 152.609C157.515 152.36 158.148 152.533 158.571 152.9C158.994 153.267 159.245 153.792 159.445 154.315C159.517 154.501 159.576 154.733 159.444 154.882C159.395 154.939 159.326 154.973 159.257 155.002C158.678 155.247 157.985 155.219 157.44 154.906C156.895 154.592 156.519 153.992 156.501 153.364C156.737 153.396 156.852 153.657 156.975 153.861C157.396 154.561 158.407 154.826 159.117 154.421C158.445 153.74 157.57 153.262 156.635 153.064Z" fill="white"/>
<path fill-rule="evenodd" clip-rule="evenodd" d="M153.17 147.077C153.374 146.824 153.578 146.571 153.782 146.318C153.647 147.455 152.712 148.451 151.586 148.658C151.238 148.391 150.649 148.568 150.507 148.983C150.298 149.026 150.087 148.862 150.018 148.659C149.949 148.457 149.994 148.233 150.071 148.034C150.189 147.734 150.379 147.468 150.566 147.206C151.199 146.323 151.931 145.373 152.996 145.155C153.271 145.099 153.581 145.104 153.803 145.277C154.025 145.449 154.086 145.832 153.865 146.005C153.608 145.66 153.091 145.604 152.69 145.759C152.29 145.914 151.977 146.231 151.678 146.54C151.389 146.839 151.099 147.138 150.81 147.438C150.651 147.602 150.505 147.906 150.705 148.018C150.931 147.531 151.619 147.491 152.016 147.128C152.36 146.814 152.591 146.213 153.05 146.291C152.811 146.844 152.375 147.308 151.84 147.584C151.61 147.702 151.343 147.804 151.229 148.036C151.584 148.199 152.013 148.107 152.343 147.899C152.674 147.691 152.925 147.381 153.17 147.077Z" fill="white"/>
<path fill-rule="evenodd" clip-rule="evenodd" d="M143.545 145.906C144.106 146.005 144.715 145.691 144.959 145.176C145.203 144.661 145.06 143.991 144.628 143.62C144.753 143.467 144.994 143.448 145.169 143.54C145.343 143.632 145.457 143.81 145.523 143.996C145.733 144.592 145.499 145.272 145.089 145.753C144.68 146.234 144.119 146.556 143.57 146.868C143.316 147.013 143.05 147.161 142.758 147.179C142.466 147.197 142.141 147.042 142.064 146.76C142.039 146.668 142.045 146.562 142.103 146.486C142.387 146.113 143.057 146.997 143.363 146.642C143.289 146.358 143.216 146.074 143.142 145.79C143.274 145.836 143.407 145.882 143.545 145.906Z" fill="white"/>
<path fill-rule="evenodd" clip-rule="evenodd" d="M138.399 145.033C137.773 144.956 137.328 144.28 137.396 143.653C137.465 143.026 137.956 142.499 138.541 142.262C138.719 142.19 138.943 142.147 139.091 142.271C139.238 142.396 139.137 142.718 138.952 142.661C138.501 142.522 138.069 142.975 137.944 143.431C137.865 143.721 137.86 144.05 138.021 144.304C138.181 144.558 138.543 144.695 138.8 144.539C138.985 144.426 139.174 144.687 139.218 144.899C139.262 145.112 139.359 145.392 139.574 145.367C139.929 145.191 140.061 144.766 140.263 144.425C140.464 144.085 140.921 143.789 141.232 144.034C141.271 144.066 141.307 144.109 141.31 144.16C141.312 144.215 141.275 144.263 141.239 144.306C140.893 144.714 140.511 145.093 140.098 145.434C139.822 145.663 139.44 145.883 139.128 145.707C138.833 145.54 138.736 145.074 138.399 145.033Z" fill="white"/>
<path fill-rule="evenodd" clip-rule="evenodd" d="M141.414 151.446C141.108 151.174 140.796 150.895 140.596 150.538C140.396 150.18 140.325 149.724 140.519 149.363C140.572 149.264 140.654 149.168 140.764 149.151C140.875 149.133 141.002 149.236 140.97 149.343C140.829 149.813 141.034 150.365 141.448 150.628C141.608 150.73 141.823 150.92 141.689 151.054C141.529 151.214 141.82 151.43 142.043 151.466C142.471 151.536 142.9 151.606 143.328 151.676C143.244 152.029 142.809 152.2 142.454 152.125C142.099 152.049 141.811 151.799 141.54 151.558C141.498 151.521 141.456 151.484 141.414 151.446Z" fill="white"/>
<path fill-rule="evenodd" clip-rule="evenodd" d="M125.642 162.18C125.684 161.917 125.727 161.655 125.769 161.392C125.794 161.242 125.819 161.088 125.891 160.954C125.978 160.793 126.124 160.674 126.266 160.56C126.656 160.247 127.046 159.933 127.436 159.62C127.743 159.854 127.805 160.349 127.564 160.651C127.545 160.373 127.364 160.112 127.111 159.996C126.828 160.837 126.314 161.6 125.642 162.18Z" fill="white"/>
<path fill-rule="evenodd" clip-rule="evenodd" d="M155.735 158.33C155.878 159.102 156.174 159.846 156.6 160.507C156.935 161.027 156.628 161.707 156.321 162.244C156.183 162.298 156.052 162.118 156.075 161.972C156.098 161.825 156.206 161.708 156.275 161.577C156.547 161.061 156.209 160.45 155.909 159.95C155.609 159.451 155.351 158.769 155.735 158.33L155.735 158.33Z" fill="white"/>
<path fill-rule="evenodd" clip-rule="evenodd" d="M99.9024 98.0465C99.8965 98.2256 99.8879 98.4138 99.7943 98.5667C99.6236 98.8453 99.2488 98.8998 98.923 98.9243C94.5275 99.2537 90.1108 99.3011 85.7092 99.0662C85.6544 99.0633 85.598 99.0599 85.5487 99.0359C85.4274 98.9768 85.3947 98.8223 85.3764 98.6886C85.2539 97.7944 85.1315 96.9001 85.0091 96.0059C84.9215 95.3662 84.8473 94.6623 85.2019 94.1228C85.6839 93.3894 86.7061 93.3021 87.5836 93.2898C91.5718 93.2339 95.56 93.178 99.5482 93.1222C99.7163 93.1198 99.9151 93.1332 100.004 93.2757C100.056 93.358 100.054 93.4616 100.051 93.5587C100.001 95.0546 99.9519 96.5506 99.9024 98.0465ZM99.2032 97.3672C99.0851 96.3301 99.0342 95.2853 99.0511 94.2416C98.3947 93.9845 97.6646 94.0267 96.9612 94.0727C94.2753 94.2483 91.5894 94.424 88.9036 94.5997C88.4597 94.6287 88.0064 94.6569 87.5767 94.5418C87.1377 94.4242 86.6356 94.1709 86.2721 94.4435C85.957 94.6797 85.983 95.1517 86.0405 95.5413C86.1487 96.2742 86.2568 97.0071 86.365 97.74C86.3834 97.8646 86.408 98.0008 86.5045 98.0817C86.5935 98.1563 86.7192 98.163 86.8353 98.1661C90.6036 98.2661 94.3755 98.2315 98.1414 98.0623C98.6185 98.0409 99.2572 97.8418 99.2032 97.3672V97.3672Z" fill="#FFB61D"/>
<path fill-rule="evenodd" clip-rule="evenodd" d="M152.509 154.484C152.709 153.776 153.065 153.113 153.544 152.554C153.535 153.313 153.136 154.057 152.509 154.484L152.509 154.484Z" fill="white"/>
<path fill-rule="evenodd" clip-rule="evenodd" d="M154.31 158.764C154.179 159.169 153.977 159.55 153.716 159.886C153.605 160.028 153.463 160.173 153.282 160.182C153.517 159.635 153.787 159.048 154.31 158.764L154.31 158.764Z" fill="white"/>
<path fill-rule="evenodd" clip-rule="evenodd" d="M157.534 160.93C157.825 161.134 158.115 161.337 158.406 161.541C158.471 161.586 158.543 161.668 158.497 161.732C158.055 161.69 157.656 161.357 157.534 160.93Z" fill="white"/>
<path fill-rule="evenodd" clip-rule="evenodd" d="M158.067 160.817C157.767 160.909 157.512 160.417 157.76 160.225C157.929 160.388 158.054 160.597 158.117 160.823L158.067 160.817Z" fill="white"/>
<path fill-rule="evenodd" clip-rule="evenodd" d="M154.245 152.348C154.464 152.626 154.471 153.025 154.353 153.358C154.235 153.692 154.009 153.974 153.787 154.249C153.58 154.507 153.318 154.789 152.989 154.764C152.933 154.54 153.141 154.348 153.31 154.191C153.826 153.713 154.164 153.047 154.245 152.348Z" fill="white"/>
<path fill-rule="evenodd" clip-rule="evenodd" d="M156.69 159.61C157.057 159.275 157.608 159.157 158.081 159.311C158.553 159.465 158.928 159.886 159.028 160.372C159.1 160.729 159.137 161.229 159.499 161.265C159.564 161.498 159.149 161.586 158.998 161.396C158.848 161.206 158.875 160.937 158.838 160.698C158.736 160.058 158.045 159.577 157.41 159.705C157.151 159.757 156.797 159.851 156.69 159.61L156.69 159.61Z" fill="white"/>
<path fill-rule="evenodd" clip-rule="evenodd" d="M129.327 163.715C129.152 163.152 129.555 162.503 129.307 161.967C129.225 161.791 129.083 161.653 128.958 161.504C128.545 161.013 128.311 160.375 128.309 159.733C128.309 159.538 128.397 159.281 128.592 159.3C128.847 159.325 128.782 159.706 128.765 159.963C128.733 160.449 129.157 160.825 129.423 161.233C129.82 161.841 129.881 162.654 129.578 163.314C129.467 163.557 129.688 163.81 129.841 164.029C130.241 164.598 130.208 165.434 129.764 165.969C129.598 165.858 129.591 165.612 129.652 165.421C129.713 165.23 129.824 165.051 129.835 164.851C129.86 164.431 129.452 164.117 129.327 163.715H129.327Z" fill="white"/>
<path fill-rule="evenodd" clip-rule="evenodd" d="M137.96 104.354C138.19 104.1 138.583 104.377 138.903 104.497C139.525 104.73 140.211 104.282 140.868 104.376C140.502 105.131 139.468 105.219 138.636 105.112C138.428 105.085 138.209 105.047 138.048 104.912C137.887 104.776 137.819 104.51 137.96 104.354L137.96 104.354Z" fill="white"/>
<path fill-rule="evenodd" clip-rule="evenodd" d="M139.577 101.95C139.455 101.794 139.474 101.575 139.498 101.379C139.516 101.24 139.533 101.1 139.551 100.961C139.592 100.633 139.727 100.216 140.058 100.213C140.403 100.211 140.535 100.661 140.542 101.006C140.548 101.305 140.532 101.627 140.35 101.865C140.169 102.103 139.762 102.185 139.577 101.95V101.95Z" fill="white"/>
<path fill-rule="evenodd" clip-rule="evenodd" d="M137.501 100.39C137.663 100.427 137.7 100.638 137.704 100.805C137.715 101.356 137.601 102.074 137.058 102.175C136.792 101.674 136.842 101.023 137.181 100.568C137.258 100.464 137.375 100.361 137.501 100.39L137.501 100.39Z" fill="white"/>
<path fill-rule="evenodd" clip-rule="evenodd" d="M138.574 101.114C138.615 101.185 138.588 101.274 138.564 101.352C138.334 102.124 138.589 103.019 139.192 103.553C138.741 103.838 138.111 103.444 137.955 102.934C137.799 102.424 137.966 101.877 138.132 101.37C138.199 101.164 138.466 100.925 138.574 101.114L138.574 101.114Z" fill="white"/>
<path fill-rule="evenodd" clip-rule="evenodd" d="M112.921 83.4525C112.129 83.5029 111.338 83.5533 110.546 83.6037C107.12 83.8218 103.695 84.0399 100.269 84.258C99.7858 84.2888 99.1357 84.1906 99.0798 83.7093C98.9064 82.2185 98.9381 80.7039 99.1737 79.2217C99.2719 78.6038 100.072 78.4387 100.698 78.4181C104.482 78.2934 108.266 78.1687 112.05 78.0439C112.515 78.0286 112.928 78.3864 113.124 78.8095C113.319 79.2326 113.342 79.712 113.362 80.1776C113.399 81.0684 113.437 81.9593 113.475 82.8501C113.482 83.005 113.483 83.1761 113.383 83.2944C113.274 83.422 113.088 83.4419 112.921 83.4525ZM112.092 79.8088C112.175 79.4823 111.87 79.1624 111.54 79.0921C111.211 79.0218 110.873 79.1244 110.546 79.2065C109.243 79.5338 105.625 79.5324 105.134 79.5358C103.696 79.5456 102.259 79.5555 100.821 79.5654C100.481 79.5678 100.192 79.8481 100.071 80.1665C99.9502 80.485 99.9612 80.8361 99.9738 81.1765C99.9869 81.5281 100 81.8797 100.013 82.2313C100.021 82.441 100.048 82.686 100.228 82.7938C100.306 82.8405 100.4 82.8515 100.49 82.861C101.883 83.008 103.288 83.0472 104.688 82.9781C107.164 82.856 109.641 82.3959 112.107 82.6504C111.86 81.7252 111.855 80.7366 112.092 79.8088Z" fill="#FFB61D"/>
<path fill-rule="evenodd" clip-rule="evenodd" d="M55.5893 144.036C55.428 144.089 55.1858 144.097 55.1567 143.93C55.4018 143.638 55.9082 143.624 56.1683 143.903C56.0298 144.054 55.7986 144.112 55.6052 144.044L55.5893 144.036Z" fill="white"/>
<path fill-rule="evenodd" clip-rule="evenodd" d="M141.127 99.3953C141.347 99.6303 141.549 99.894 141.641 100.202C141.702 100.407 141.411 100.566 141.213 100.485C141.016 100.404 140.905 100.199 140.787 100.021C140.67 99.8425 140.497 99.6617 140.284 99.6769C140.068 99.6923 139.927 99.3974 140.034 99.2089C140.14 99.0203 140.398 98.961 140.605 99.0222C140.813 99.0834 140.979 99.2372 141.127 99.3953L141.127 99.3953Z" fill="white"/>
<path fill-rule="evenodd" clip-rule="evenodd" d="M64.5839 138.447C64.3249 137.203 64.0374 135.953 63.4955 134.805C62.9535 133.656 62.1328 132.603 61.0198 131.991C60.4335 131.668 59.7858 131.477 59.1685 131.219C58.4128 130.903 57.6999 130.485 57.0554 129.979C57.6307 129.655 58.3437 129.959 58.93 130.263C60.2972 130.972 61.6958 131.704 62.7271 132.847C64.0997 134.369 64.6647 136.44 65.0726 138.448C64.9246 138.533 64.7315 138.532 64.5839 138.447Z" fill="white"/>
<path fill-rule="evenodd" clip-rule="evenodd" d="M58.1744 149.182C58.177 149.083 58.1992 148.965 58.2901 148.926C58.5792 148.8 58.6764 149.614 58.937 149.437C59.2399 149.23 59.6676 149.682 59.5096 150.013C59.3516 150.344 58.8531 150.391 58.5621 150.168C58.271 149.945 58.1648 149.549 58.1744 149.182Z" fill="white"/>
<path fill-rule="evenodd" clip-rule="evenodd" d="M57.2074 145.584C56.8815 145.039 56.9987 144.337 57.2307 143.745C57.3706 143.389 57.5849 143.014 57.9506 142.9C58.3164 142.786 58.7968 143.139 58.6523 143.494C58.3107 143.603 57.9553 143.733 57.7229 144.007C57.4906 144.28 57.4403 144.74 57.7103 144.976C57.8445 145.094 57.8178 145.308 57.7582 145.476C57.6987 145.644 57.6167 145.825 57.6766 145.993C57.7365 146.161 58.0308 146.216 58.0728 146.043C58.1191 145.852 58.4148 145.86 58.5546 145.997C58.6943 146.135 58.75 146.338 58.8791 146.486C59.0082 146.633 59.2881 146.688 59.3756 146.512C59.4589 146.345 59.731 146.356 59.8444 146.504C59.9578 146.653 59.9347 146.87 59.8448 147.034C59.6491 147.39 59.1484 147.536 58.7914 147.343C58.5816 147.229 58.4367 147.027 58.2591 146.867C58.0814 146.708 57.8274 146.586 57.6081 146.68C57.3985 146.771 57.2159 146.484 57.2262 146.256C57.2366 146.028 57.3244 145.78 57.2074 145.584Z" fill="white"/>
<path fill-rule="evenodd" clip-rule="evenodd" d="M49.5371 108.253C49.9605 107.887 50.1112 107.239 49.8928 106.723C49.8113 106.531 49.732 106.229 49.935 106.179C50.5528 106.72 50.6053 107.785 50.0435 108.384C49.9458 108.488 49.8151 108.584 49.6736 108.565C49.532 108.546 49.4291 108.347 49.5371 108.253H49.5371Z" fill="white"/>
<path fill-rule="evenodd" clip-rule="evenodd" d="M48.5579 104.99C48.8735 104.998 49.1111 105.316 49.1383 105.631C49.1654 105.945 49.0357 106.251 48.8976 106.534C48.8122 106.71 48.6695 106.912 48.477 106.879C48.332 106.854 48.2474 106.706 48.1849 106.573C48.0459 106.276 47.9112 105.96 47.9422 105.634C47.9733 105.308 48.2308 104.981 48.5579 104.99V104.99Z" fill="white"/>
<path fill-rule="evenodd" clip-rule="evenodd" d="M50.7715 106.469C50.5008 106.543 50.3508 106.16 50.3592 105.879C50.3667 105.631 50.402 105.371 50.5472 105.17C50.6924 104.968 51.0541 104.726 51.1921 105.06C51.3302 105.394 51.248 105.899 50.9908 106.281C50.9358 106.363 50.8666 106.444 50.7715 106.469Z" fill="white"/>
<path fill-rule="evenodd" clip-rule="evenodd" d="M47.6626 108.429C47.7554 108.411 47.8481 108.394 47.9409 108.376C47.9689 108.686 48.2692 108.895 48.5584 109.009C48.8476 109.123 49.1698 109.195 49.387 109.417C49.4656 109.498 49.5197 109.645 49.4283 109.71C49.3882 109.739 49.3347 109.738 49.2855 109.735C48.5267 109.685 47.7016 109.188 47.6626 108.429Z" fill="white"/>
<path fill-rule="evenodd" clip-rule="evenodd" d="M47.5617 104.549C47.355 104.502 47.3493 104.171 47.5195 104.045C47.6896 103.918 47.9274 103.947 48.1309 104.006C48.5796 104.136 48.9923 104.388 49.3135 104.727C48.7554 104.976 48.0582 104.193 47.5617 104.549V104.549Z" fill="white"/>
<path fill-rule="evenodd" clip-rule="evenodd" d="M34.6184 145.311C35.1562 145.563 35.8767 145.054 35.8197 144.463C36.1659 144.763 36.548 145.186 36.3925 145.616C36.3344 145.777 36.2076 145.903 36.0726 146.008C35.5998 146.375 35.0002 146.537 34.4089 146.63C33.7895 146.727 33.0944 146.738 32.6067 146.344C32.1249 145.955 31.9927 145.196 32.3143 144.667C32.3936 144.537 32.5056 144.414 32.6537 144.378C32.9782 144.298 33.2509 144.677 33.247 145.011C33.2431 145.345 33.0761 145.655 33.0203 145.985C33.0103 146.043 33.004 146.104 33.0186 146.162C33.0792 146.403 33.448 146.411 33.6313 146.244C33.8145 146.077 33.8822 145.821 34.0088 145.607C34.1353 145.394 34.3936 145.206 34.6184 145.311ZM34.6297 146.344C34.7344 146.246 34.8391 146.148 34.9438 146.05C34.9045 145.925 34.7357 145.861 34.623 145.929C34.5103 145.997 34.4882 146.176 34.5809 146.269L34.6297 146.344Z" fill="white"/>
<path fill-rule="evenodd" clip-rule="evenodd" d="M32.1475 148.844C32.2732 149.199 32.7648 149.29 33.1082 149.136C33.1755 149.106 33.2438 149.065 33.2744 148.997C33.3633 148.803 33.0792 148.607 33.1198 148.397C33.1542 148.219 33.3898 148.169 33.5668 148.206C33.7438 148.243 33.9258 148.327 34.0976 148.27C34.2967 148.205 34.3912 147.981 34.441 147.777C34.4908 147.574 34.53 147.348 34.6886 147.211C34.8473 147.075 35.1678 147.134 35.1745 147.343C35.1873 147.748 34.878 148.09 34.5541 148.335C34.2302 148.579 33.8594 148.787 33.6468 149.133C33.4449 149.461 33.3279 149.947 32.9445 149.985C32.8217 149.997 32.7002 149.954 32.5888 149.9C31.7886 149.517 31.3124 148.555 31.4926 147.686C31.5725 147.301 31.9581 146.878 32.2949 147.081C32.5673 147.246 32.5127 147.659 32.3739 147.945C32.235 148.232 32.0412 148.544 32.1475 148.844V148.844Z" fill="white"/>
<path fill-rule="evenodd" clip-rule="evenodd" d="M53.5893 122.735C53.9542 127.813 57.3104 132.112 60.5229 136.062C61.4355 137.184 62.4082 138.352 63.7531 138.884C66.2852 139.887 69.4287 138.369 71.768 139.763C59.528 139.791 47.2894 140.461 35.1195 141.77C34.0721 141.882 32.9905 141.997 31.9835 141.688C30.9765 141.378 30.0562 140.527 30.0143 139.474C29.4796 126.023 28.9448 112.572 28.4101 99.1201C28.311 96.6282 28.2108 94.1261 27.7561 91.674C27.161 88.4649 27.1467 85.1801 27.1344 81.9162C27.1183 77.6725 27.1022 73.4287 27.0862 69.1849C40.8813 68.5876 54.698 68.4862 68.5004 68.8809C69.0666 69.7232 69.1812 70.7802 69.2758 71.7907C70.8776 88.898 71.3749 106.087 71.8714 123.262C72.0201 128.408 72.1689 133.555 72.3176 138.701C72.0624 138.616 71.8071 138.531 71.5518 138.446C70.9501 122.194 70.3484 105.942 69.7467 89.6896C69.7353 89.3793 69.7036 89.0275 69.4589 88.8363C69.2715 88.69 69.0138 88.6844 68.776 88.6852C55.9813 88.7318 43.1866 88.7785 30.3919 88.8251C29.3999 88.8287 28.0064 89.3446 28.3282 90.283C29.8823 94.8138 29.3344 99.7493 29.3529 104.539C29.3632 107.201 29.5545 109.859 29.7457 112.514C29.9788 115.752 30.2119 118.989 30.4451 122.227C30.9988 120.79 31.5526 119.354 32.1064 117.917C32.2349 117.583 32.3507 117.168 32.1138 116.901C30.3537 114.915 30.9055 111.368 33.1856 110.011C33.6233 109.75 34.1132 109.557 34.4718 109.195C35.4809 108.177 35.0039 106.381 35.748 105.156C36.8526 103.337 40.2653 103.269 40.3839 101.144C40.4911 99.2246 42.2334 97.6764 44.1202 97.3088C46.007 96.9411 47.9621 97.5396 49.6613 98.4383C51.32 99.3156 52.9643 100.739 53.0357 102.614C53.0638 103.352 52.8396 104.073 52.6179 104.778C51.8147 107.329 50.8711 110.074 48.6524 111.568C51.5149 114.575 53.2918 118.594 53.5893 122.735ZM51.4799 129.524C53.1269 132.767 56.2532 135.077 57.8608 138.339C57.9329 138.486 58.008 138.641 58.1442 138.731C58.2992 138.833 58.4985 138.828 58.684 138.823C60.09 138.782 61.5012 138.927 62.8701 139.25C59.6296 136.44 57.1856 132.834 54.9684 129.162C54.1686 127.837 53.3721 126.431 53.2936 124.886C53.0648 120.379 51.4108 115.956 48.627 112.405C47.6037 111.1 45.4017 111.353 44.2262 112.523C43.0507 113.693 42.6745 115.434 42.5031 117.084C42.4474 117.621 42.4097 118.178 42.5876 118.688C42.7655 119.198 43.2132 119.65 43.7528 119.669C44.2923 119.689 44.8173 119.121 44.6303 118.615C44.8219 119.025 45.0135 119.436 45.2051 119.846C44.419 120.692 42.8937 120.416 42.1705 119.517C41.4472 118.617 41.386 117.34 41.633 116.213C42.216 113.551 44.4383 111.321 47.0979 110.729C47.1291 110.211 46.3615 110.056 45.8889 110.273C45.4163 110.489 44.9658 110.888 44.4538 110.798C43.9858 110.716 43.719 111.296 43.5528 111.741C42.6167 114.25 39.9388 115.546 37.7734 117.121C37.0351 117.657 36.3064 118.265 35.4201 118.484C34.5338 118.702 33.4283 118.378 33.1125 117.521C30.4013 124.527 29.7591 132.319 31.2869 139.674C31.3955 140.196 31.8764 140.578 32.3894 140.726C32.9024 140.874 33.4485 140.832 33.9807 140.789C41.8725 140.151 49.7643 139.512 57.6561 138.874C55.7763 135.252 52.2402 132.645 50.6295 128.896C50.2537 128.021 49.9885 127.095 49.5115 126.271C48.7892 125.024 47.611 124.064 47.0213 122.749C46.3091 123.728 45.5968 124.708 44.8846 125.688C44.7243 125.908 44.7984 126.214 44.879 126.474C45.0576 127.052 45.2442 127.644 45.6243 128.114C46.0044 128.583 46.6289 128.907 47.2141 128.757C48.4074 128.45 49.7668 128.966 50.4571 129.986C48.9976 129.711 47.5381 129.436 46.0786 129.161C45.8672 129.121 45.6454 129.076 45.4814 128.937C45.3423 128.819 45.2625 128.647 45.1869 128.481C44.9153 127.884 44.6438 127.288 44.3722 126.691C44.1354 126.171 43.9031 125.543 44.2051 125.058C44.4609 124.648 44.9923 124.524 45.3909 124.25C46.4908 123.493 46.3469 121.817 45.8455 120.58C45.3442 119.342 44.5931 118.068 44.8827 116.764C45.4762 118.693 46.0831 120.65 47.1906 122.337C48.0083 123.582 49.0815 124.651 49.8312 125.938C50.4936 127.076 50.8838 128.35 51.4799 129.524ZM28.0439 70.4182C28.0776 73.4321 28.1114 76.446 28.1451 79.4599C28.1526 80.1241 28.3967 81.0224 29.0589 80.9698C42.1423 79.93 55.2848 79.6344 68.4017 80.085C68.765 80.0975 69.0651 79.7637 69.1458 79.4093C69.2265 79.0548 69.143 78.6863 69.0649 78.3313C68.47 75.6259 68.1872 72.8519 68.2237 70.0821C68.2295 69.6426 67.6441 69.4944 67.2046 69.4864C54.3454 69.2514 41.4805 69.3223 28.6246 69.6991C28.4981 69.7028 28.3646 69.7087 28.2582 69.7771C28.0598 69.9047 28.0412 70.1823 28.0439 70.4182M69.7037 87.4378C69.7531 85.1769 69.6158 82.912 69.2939 80.6735C68.2409 81.0696 67.0859 81.191 65.9735 81.0227C64.8704 80.8558 63.7503 80.8462 62.6347 80.837C57.5212 80.7948 52.4071 80.7526 47.2942 80.8429C41.1072 80.9522 34.9252 81.2553 28.7473 81.6073C28.5785 81.6169 28.3964 81.6318 28.2685 81.7423C28.1025 81.8858 28.0885 82.1341 28.0883 82.3536C28.0865 84.1051 28.1616 85.8567 28.3135 87.6017C28.3227 87.7072 28.3349 87.8198 28.402 87.9018C28.5078 88.0309 28.701 88.0327 28.8677 88.0238C41.0851 87.3651 53.3313 87.7903 65.5664 87.8015C66.9551 87.8028 68.3622 87.7964 69.7037 87.4378ZM41.1918 100.06C40.8605 100.86 40.8467 101.79 40.3716 102.514C39.4067 103.985 37.0098 103.964 36.1072 105.474C35.3763 106.697 35.9347 108.475 34.9752 109.528C34.4929 110.057 33.7494 110.247 33.1473 110.634C31.8854 111.446 31.3588 113.154 31.7464 114.603C32.134 116.053 33.3167 117.212 34.7016 117.79C34.9477 117.892 35.2119 117.98 35.4766 117.947C35.7756 117.91 36.0331 117.726 36.2761 117.548C37.9521 116.32 39.6281 115.091 41.3041 113.862C41.9213 113.41 42.5619 112.93 42.8953 112.241C43.4598 111.074 43.0521 109.496 43.9428 108.555C44.2866 108.191 44.7802 107.986 45.0887 107.593C45.3972 107.199 45.3594 106.462 44.87 106.358C44.3365 106.245 44.4773 105.396 44.9009 105.053C45.3245 104.71 45.9263 104.495 46.0857 103.973C46.236 103.482 46.01 102.746 46.4963 102.579C46.776 102.483 47.0533 102.701 47.301 102.863C48.3936 103.575 50.0432 103.202 50.7235 102.09C50.9879 101.657 51.6682 102.117 51.792 102.609C51.9157 103.101 51.9344 103.734 52.4009 103.932C52.8631 103.207 52.7238 102.221 52.2709 101.49C51.818 100.76 51.1044 100.234 50.3915 99.7531C48.9286 98.767 47.3232 97.8689 45.5639 97.7364C43.8047 97.6039 41.8669 98.4302 41.1918 100.06ZM46.4358 106.392C46.029 107.884 43.9336 108.53 43.7616 110.067C44.1535 110.497 44.8722 110.293 45.3566 109.971C45.6034 109.807 45.8419 109.612 45.9767 109.348C46.1114 109.084 46.1198 108.738 45.9302 108.51C45.7655 108.312 46.1368 108.044 46.3571 108.177C46.5775 108.31 46.6326 108.597 46.6995 108.846C46.8423 109.376 47.1347 109.865 47.5341 110.242C47.8669 110.556 48.3528 110.799 48.7728 110.618C48.9459 110.543 49.083 110.406 49.211 110.267C50.5387 108.833 51.3643 106.942 51.5144 104.993C51.5314 104.772 51.5219 104.51 51.3405 104.382C51.1624 104.257 50.9207 104.33 50.7047 104.359C50.4886 104.389 50.2019 104.307 50.1918 104.09C50.4386 103.851 50.8607 103.822 51.1378 104.025C51.2545 104.11 51.3693 103.908 51.3651 103.764C51.3533 103.35 51.2201 102.94 50.9863 102.598C50.4719 103.172 49.8045 103.637 49.0471 103.778C48.2896 103.919 47.441 103.692 46.9524 103.096C46.6576 103.725 46.5268 104.431 46.5763 105.124C46.5941 105.373 46.2322 105.449 45.9959 105.369C45.7596 105.289 45.4897 105.149 45.2818 105.287C45.08 105.421 45.1028 105.747 45.2642 105.927C45.4255 106.108 45.6724 106.181 45.9058 106.246C46.0825 106.295 46.2591 106.343 46.4358 106.392ZM31.548 120.782C31.584 120.629 31.6007 120.429 31.4626 120.353C31.1153 121.375 30.789 122.404 30.484 123.439C30.3669 123.837 30.2577 124.285 30.4587 124.648C30.6038 124.654 30.6782 124.479 30.7114 124.338C30.9903 123.153 31.2691 121.967 31.548 120.782Z" fill="white"/>
<path fill-rule="evenodd" clip-rule="evenodd" d="M64.2209 150.682C71.753 150.074 79.3198 149.897 86.8721 150.15C86.6519 147.611 86.4317 145.071 86.2115 142.532C78.5066 142.88 70.8016 143.227 63.0967 143.574C62.8596 145.83 61.9847 148.015 60.5995 149.811C59.9322 150.676 60.5058 151.898 60.9345 152.903C61.3631 153.908 61.3975 155.432 60.3446 155.724C58.9552 155.04 57.9651 153.605 57.819 152.063C52.1212 152.312 46.4234 152.56 40.7256 152.809C38.6078 152.901 35.9941 153.353 35.3637 155.376C35.1175 153.782 33.0115 153.415 31.398 153.437C26.5764 153.502 21.7548 153.566 16.9331 153.631C16.8596 151.43 16.7861 149.229 16.7126 147.028C16.6984 146.602 16.6884 146.154 16.8797 145.773C17.3932 144.749 18.8681 144.858 19.9831 145.121C19.6247 141.537 19.2663 137.954 18.9079 134.37C17.2454 134.751 17.7802 130.488 16.1069 130.817C15.0939 131.017 14.1389 130.086 13.9227 129.077C13.7065 128.067 14.0218 127.028 14.3338 126.044C15.2743 125.757 16.6221 126.041 17.5752 125.757C18.5282 125.473 19.1091 124.923 19.0758 123.929C18.3844 103.287 16.8917 82.6717 14.6022 62.1452C13.1406 62.774 11.4 61.6392 10.812 60.1607C10.2239 58.6822 10.4758 57.0169 10.7835 55.4558C10.8914 54.9079 11.024 54.3258 11.4264 53.9386C11.9392 53.445 12.7276 53.414 13.4394 53.4124C35.7771 53.3616 58.1149 53.3108 80.4526 53.2599C80.9394 53.2588 81.4758 53.2758 81.8356 53.6038C82.1646 53.9036 82.2514 54.3793 82.3197 54.8191C82.5851 56.5294 82.8458 58.3125 82.3237 59.9627C81.8016 61.6128 80.2409 63.0728 78.522 62.871C79.4622 83.2433 80.4025 103.616 81.3428 123.988C82.8753 123.653 84.6675 124.22 85.4319 125.59C86.1963 126.96 85.4991 129.03 83.9684 129.373C84.945 130.185 84.4737 131.913 83.399 132.59C82.3243 133.267 80.9573 133.198 79.6925 133.082C78.4277 132.967 77.0779 132.843 75.9562 133.439C76.221 135.894 76.188 138.381 75.8583 140.828C76.9461 140.179 78.4184 140.247 79.4419 140.993C80.1525 141.511 80.7982 140.251 80.7915 139.371C80.7758 137.323 80.7602 135.276 80.7446 133.228C81.8537 135.772 82.1624 138.658 81.6162 141.379C82.9837 141.485 84.3512 141.592 85.7187 141.699C86.1298 141.731 86.575 141.777 86.8765 142.058C87.1766 142.338 87.2546 142.777 87.3067 143.185C87.6434 145.813 87.5931 148.491 87.1581 151.105C78.2978 150.491 69.3765 150.759 60.5692 151.905C61.4826 150.961 62.9114 150.787 64.2209 150.682ZM37.9334 144.012C38.569 142.245 40.8909 141.927 42.7693 141.906C43.6338 141.896 44.4984 141.887 45.363 141.877C47.2328 141.856 49.11 141.835 50.9645 142.075C51.1953 142.35 51.426 142.625 51.6567 142.9C52.3959 142.665 53.2733 142.977 53.6986 143.626C54.9635 142.312 56.5242 141.169 58.3282 140.904C60.1322 140.638 62.1844 141.472 62.8741 143.16C63.1233 142.304 63.4345 141.395 64.1537 140.869C64.873 140.342 66.117 140.47 66.4115 141.312C67.5724 140.024 69.919 140.132 70.9575 141.52C70.9693 140.844 71.8858 140.606 72.5478 140.743C73.2098 140.88 73.94 141.173 74.5187 140.824C75.1418 140.448 75.1796 139.575 75.1443 138.848C73.9839 114.984 72.8235 91.1204 71.6631 67.2567C71.655 67.0891 71.6398 66.9048 71.5209 66.7864C71.3968 66.6628 71.2027 66.653 71.0276 66.6507C55.8485 66.4576 40.6693 66.2645 25.4902 66.0714C25.1641 66.0672 24.7987 66.0786 24.5715 66.3125C24.3572 66.5331 24.3431 66.8739 24.342 67.1814C24.2752 86.3262 25.038 105.474 26.6274 124.553C26.6899 125.302 27.1037 126.313 27.8246 126.099C27.8612 128.253 27.8977 130.406 27.9343 132.56C27.9426 133.048 27.9111 133.618 27.5105 133.897C27.2877 134.052 27.0018 134.074 26.731 134.091C24.5148 134.231 22.2985 134.37 20.0823 134.51C20.4284 137.935 20.7745 141.36 21.1207 144.785C23.1042 144.851 25.0934 144.747 27.059 144.473C26.1173 141.499 25.7861 138.333 26.0919 135.228C26.7567 135.282 26.966 136.142 26.9999 136.809C27.0813 138.407 27.1626 140.005 27.2439 141.604C27.287 142.449 27.351 143.354 27.8717 144.021C28.3924 144.689 29.5485 144.915 30.057 144.238C31.8684 141.827 35.9867 141.709 37.9334 144.012ZM80.0276 114.379C79.2243 97.2275 78.421 80.0756 77.6177 62.9237C56.8183 62.7134 36.0189 62.5031 15.2195 62.2927C18.208 83.2267 19.0657 104.399 19.9196 125.528C21.877 125.76 23.8618 125.759 25.8191 125.527C25.2557 117.181 24.6922 108.836 24.1288 100.491C23.9285 97.5248 23.7283 94.5583 23.6301 91.5873C23.5484 89.1156 23.5375 86.6422 23.5266 84.1693C23.5013 78.4463 23.476 72.7234 23.4507 67.0004C23.4479 66.3718 23.6452 65.5272 24.2739 65.5303C40.053 65.6074 55.8321 65.6846 71.6112 65.7617C71.9584 65.7634 72.3678 65.7983 72.5479 66.0952C72.6352 66.2391 72.6461 66.415 72.6546 66.5831C73.2949 79.2011 73.9352 91.8194 74.436 104.444C74.5195 106.549 74.5992 108.654 74.6788 110.759C74.8445 115.139 75.0101 119.518 75.1758 123.897C75.1916 124.315 75.7628 124.415 76.1801 124.387C77.6144 124.292 79.0487 124.197 80.483 124.102C80.3312 120.861 80.1794 117.62 80.0276 114.379ZM11.3342 59.6582C11.6318 60.693 12.4977 61.6457 13.5737 61.6873C29.2122 62.2919 44.8805 61.3785 60.5181 62.0049C66.8554 62.2588 73.2405 62.7631 79.5119 61.8166C79.941 61.7519 80.392 61.6702 80.7233 61.3899C81.0335 61.1275 81.1911 60.7301 81.3145 60.343C81.8229 58.7485 81.9458 57.0327 81.6698 55.382C81.6008 54.9693 81.4796 54.5188 81.1287 54.2907C80.867 54.1206 80.5352 54.1143 80.223 54.1136C70.8026 54.0911 61.3822 54.0687 51.9618 54.0462C50.4387 54.0426 48.9156 54.039 47.3925 54.0353C42.403 54.0234 37.4135 54.0116 32.4239 53.9997C25.9377 53.9842 19.4509 53.9688 12.9654 54.0692C11.9105 54.0855 11.4737 55.4077 11.3292 56.4528C11.1818 57.5194 11.0366 58.6234 11.3342 59.6582ZM52.5956 144.352C47.7722 144.527 42.9489 144.702 38.1256 144.877C38.5234 144.966 38.5639 145.536 38.3918 145.906C38.2196 146.275 37.9236 146.625 37.9624 147.031C38.084 148.305 37.6889 149.622 36.8855 150.619C36.3163 151.325 35.4996 152.206 35.9707 152.982C37.3251 152.314 38.8799 152.219 40.3875 152.136C45.9261 151.832 51.4647 151.527 57.0033 151.222C57.364 149.879 55.3798 148.627 55.9306 147.35C56.0563 147.059 55.8554 146.738 55.6644 146.484C54.8831 145.448 53.8928 144.305 52.5956 144.352ZM17.7313 147.118C17.8482 149.002 18.0847 150.879 18.439 152.733C23.1863 152.718 27.9336 152.704 32.6809 152.69C32.918 152.689 33.2553 152.499 33.1015 152.318C32.3479 151.435 31.5944 150.551 30.8408 149.668C30.4215 149.176 29.9863 148.652 29.8725 148.016C29.7005 147.054 30.2465 145.87 29.5443 145.191C25.8569 145.816 22.1047 146.06 18.3673 145.917C17.8538 145.897 17.6995 146.605 17.7313 147.118ZM57.0031 149.109C57.4389 149.85 57.1707 150.974 57.8643 151.482C59.0363 152.34 58.8471 154.561 60.2389 154.977C60.4871 154.727 60.7419 154.468 60.8694 154.14C60.997 153.811 60.9636 153.393 60.6959 153.165C59.9614 152.537 59.7918 151.441 59.9926 150.496C60.1934 149.551 60.6987 148.705 61.1315 147.841C61.6325 146.841 62.0442 145.797 62.3599 144.724C62.5009 144.244 62.5947 143.651 62.2299 143.31C61.9262 143.025 61.3865 143.016 61.1992 142.645C61.1015 142.451 61.1345 142.209 61.0263 142.021C60.9083 141.816 60.6595 141.733 60.4318 141.669C59.6894 141.46 58.9207 141.273 58.1539 141.356C57.387 141.439 56.6128 141.841 56.2797 142.537C55.9975 143.126 55.0059 142.84 54.5468 143.304C54.0818 143.775 54.517 144.582 55.0495 144.975C55.5819 145.368 56.2685 145.707 56.4038 146.355C56.5253 146.937 56.1312 147.552 56.3134 148.118C56.4374 148.503 56.798 148.76 57.0031 149.109ZM15.2747 129.939C15.5032 130.299 16.0025 130.345 16.4293 130.346C19.7752 130.353 23.1084 129.972 26.4327 129.592C27.0337 129.523 27.1814 128.71 27.0804 128.113C26.9793 127.517 26.8308 126.793 27.2899 126.399C23.4612 126.124 19.6099 126.164 15.7878 126.52C15.6002 126.537 15.3956 126.563 15.2654 126.699C15.124 126.847 15.1175 127.074 15.1194 127.279C15.1256 127.933 15.1318 128.588 15.1379 129.243C15.1402 129.482 15.1464 129.736 15.2747 129.939ZM36.8104 143.935C36.0999 143.45 35.2663 142.94 34.4351 143.164C34.2212 143.221 33.9779 143.322 33.7948 143.197C32.8777 142.572 31.4166 143.092 31.0993 144.155C30.9981 144.494 30.6308 144.67 30.4075 144.945C30.1842 145.22 30.2672 145.791 30.6176 145.739C30.9087 145.696 31.0577 146.119 30.9337 146.386C30.8098 146.653 30.5474 146.831 30.3993 147.085C30.0046 147.762 30.551 148.584 31.0679 149.174C31.8748 150.094 32.6818 151.014 33.4888 151.934C34.1692 152.71 34.8643 153.51 35.2141 154.481C35.7162 154.146 35.6126 153.389 35.4283 152.814C35.244 152.24 35.071 151.518 35.5143 151.108C35.6979 150.939 35.9682 150.852 36.0812 150.629C36.1941 150.406 35.8754 150.068 35.7352 150.275C35.4844 150.645 35.0665 150.975 34.6292 150.883C34.1918 150.792 34.001 150.067 34.4173 149.905C34.563 150.201 35.0112 150.039 35.275 149.841C35.6513 149.559 36.0276 149.278 36.404 148.996C36.8921 148.63 37.4183 148.204 37.5136 147.601C37.6152 146.959 37.2181 146.187 37.6613 145.711C37.2908 145.391 37.498 144.753 37.245 144.334C37.1427 144.164 36.974 144.047 36.8104 143.935ZM75.329 129.085C75.7484 128.881 76.2251 128.839 76.6896 128.799C79.0738 128.591 81.4558 128.358 83.8348 128.098C84.131 128.065 84.4373 128.029 84.6936 127.877C85.2093 127.571 85.3666 126.841 85.135 126.288C84.9035 125.735 84.3651 125.356 83.7926 125.178C83.2202 124.999 82.6098 124.993 82.0102 124.999C80.0242 125.017 78.0392 125.138 76.0659 125.363C75.7159 125.402 75.3244 125.469 75.1209 125.757C74.9385 126.015 74.9718 126.362 75.0129 126.675C75.1182 127.478 75.2236 128.282 75.329 129.085ZM18.594 133.143C18.8676 133.579 19.4393 133.735 19.9527 133.702C20.4661 133.67 20.9576 133.488 21.4652 133.404C23.0982 133.134 24.8599 133.877 26.387 133.238C26.5084 133.187 26.6319 133.124 26.7056 133.015C26.7783 132.907 26.7919 132.772 26.802 132.642C26.8503 132.024 26.8671 131.403 26.8522 130.783C26.8498 130.687 26.8415 130.578 26.7689 130.514C26.7127 130.465 26.6327 130.456 26.5582 130.451C23.8552 130.242 21.1705 131.086 18.4597 131.047C18.2779 131.044 18.2325 131.298 18.2514 131.479C18.2841 131.791 18.3244 132.103 18.3723 132.414C18.4113 132.667 18.458 132.927 18.594 133.143ZM83.644 129.613C83.6194 129.484 83.5861 129.348 83.4903 129.258C83.3547 129.13 83.1446 129.139 82.9594 129.157C80.7997 129.355 78.6414 129.568 76.4844 129.794C76.1897 129.825 75.8507 129.883 75.7039 130.141C75.5248 130.455 75.7477 130.84 75.7622 131.201C75.7713 131.427 75.6989 131.671 75.8052 131.871C75.9466 132.136 76.3087 132.167 76.6097 132.162C77.4834 132.147 78.3568 132.118 79.2301 132.089C80.5926 132.044 81.9551 131.999 83.3175 131.954C83.5861 131.945 83.7005 131.611 83.7258 131.343C83.7803 130.767 83.7527 130.182 83.644 129.613ZM75.3276 141.615C75.217 141.554 75.1354 141.449 75.0241 141.39C74.7877 141.263 74.4938 141.375 74.2729 141.527C74.052 141.679 73.848 141.875 73.5866 141.935C73.3253 141.994 72.9884 141.828 73.0032 141.56C73.0234 141.192 72.4918 141.048 72.1598 141.206C71.8277 141.365 71.5868 141.683 71.2438 141.816C71.0158 141.905 70.7477 141.91 70.5605 142.068C70.3734 142.225 70.4159 142.63 70.6599 142.613C73.1804 142.435 75.7009 142.258 78.2214 142.081C78.4337 142.066 78.6804 142.03 78.7858 141.846C78.946 141.565 78.5986 141.225 78.2754 141.232C77.9523 141.238 77.6702 141.438 77.3701 141.558C76.8499 141.766 76.2692 141.733 75.7103 141.696C75.579 141.688 75.443 141.678 75.3276 141.615ZM44.832 143.801C46.7832 143.678 48.7344 143.555 50.6857 143.432C50.8011 143.425 50.928 143.413 51.0081 143.329C51.1635 143.167 50.9968 142.876 50.779 142.822C50.5612 142.767 50.337 142.856 50.1193 142.911C49.9016 142.965 49.6366 142.973 49.4895 142.803C49.1801 142.447 48.571 143.166 48.1688 142.919C47.6142 142.579 46.9595 142.381 46.311 142.435C45.6624 142.489 45.0259 142.813 44.6583 143.35C44.5678 143.482 44.5103 143.695 44.6484 143.776C44.7025 143.808 44.7694 143.805 44.832 143.801ZM65.9369 140.965C65.6385 140.796 65.2733 141.024 65.0326 141.268C64.7442 141.56 64.4921 142.031 64.7462 142.353C64.9205 142.574 65.2424 142.595 65.524 142.596C66.1941 142.6 66.8643 142.604 67.5344 142.608C67.6546 142.609 67.7801 142.609 67.8872 142.554C68.0518 142.47 68.1304 142.282 68.1962 142.11C68.3268 141.766 68.4255 141.305 68.1255 141.093C68.0133 141.014 67.8708 140.995 67.7345 140.979C67.4449 140.944 67.1071 140.925 66.9087 141.139C66.6401 141.428 66.748 142.026 66.3718 142.146C66.1803 141.758 66.3138 141.178 65.9369 140.965ZM43.3943 143.661C43.4898 143.656 43.5881 143.651 43.6748 143.611C43.9876 143.466 43.9141 142.944 43.6124 142.777C43.3107 142.61 42.93 142.708 42.6252 142.869C42.3483 143.015 42.019 142.854 41.7234 142.75C40.9088 142.465 39.9426 142.674 39.3177 143.269C39.1568 143.422 39.0102 143.66 39.1186 143.854C40.5439 143.789 41.9691 143.725 43.3943 143.661ZM68.6691 142.681C68.718 142.712 68.7789 142.717 68.8371 142.72C69.2805 142.74 69.8339 142.582 69.9054 142.144C69.9468 141.89 69.7714 141.619 69.5226 141.552C69.097 141.439 68.7209 141.881 68.6021 142.305C68.5653 142.437 68.5543 142.607 68.6691 142.681ZM64.3165 141.818C64.3367 141.632 64.2344 141.353 64.0688 141.439C63.8988 141.752 63.7945 142.101 63.7647 142.456C63.7538 142.586 63.7558 142.726 63.8318 142.831C63.9078 142.936 64.0835 142.975 64.1659 142.875C64.2058 142.826 64.2142 142.759 64.221 142.697C64.2529 142.404 64.2847 142.111 64.3165 141.818ZM36.3783 149.583C36.2484 149.84 36.3409 150.188 36.5816 150.347C36.7496 150.14 36.9284 149.891 36.8661 149.633C36.8038 149.374 36.3426 149.295 36.3039 149.558M52.5697 143.751C52.7438 143.777 52.965 143.751 53.029 143.588C52.8426 143.449 52.5912 143.402 52.3676 143.465C52.3157 143.533 52.2965 143.624 52.317 143.707C52.3895 143.756 52.4821 143.773 52.5672 143.754L52.5697 143.751Z" fill="white"/>
<path fill-rule="evenodd" clip-rule="evenodd" d="M167.437 69.3317C168.122 69.3495 168.898 69.4098 169.329 69.942C169.683 70.3797 169.684 70.9964 169.667 71.5595C169.006 93.7263 168.217 115.889 167.302 138.047C166.481 131.589 166.789 125.046 167.097 118.543C167.639 107.134 168.181 95.724 168.723 84.3142C168.683 86.2553 168.009 88.8472 166.068 88.79C155.33 88.4734 144.591 88.1568 133.853 87.8403C133.02 87.8157 132.001 87.6667 131.706 86.8875C143.503 87.207 155.299 87.5265 167.096 87.846C167.606 85.9963 167.742 84.0441 167.492 82.1416C155.658 81.9091 143.824 81.6766 131.99 81.444C131.744 80.8023 132.724 80.4406 133.411 80.4553C144.604 80.6956 155.797 80.936 166.99 81.1763C167.583 81.189 167.807 80.4147 167.847 79.8232C168.013 77.2999 168.18 74.7767 168.347 72.2534C168.384 71.6995 168.399 71.08 168.03 70.6656C167.648 70.2366 167.003 70.1939 166.429 70.1818C154.937 69.9395 143.446 69.6973 131.955 69.455C131.194 84.5285 130.957 99.6285 131.244 114.718C132.42 111.668 134.888 109.141 137.908 107.891C135.907 106.021 135.259 102.849 136.365 100.344C135.091 101.001 134.015 98.97 134.403 97.5903C134.518 97.1838 135.151 96.7922 135.318 96.3881C135.718 95.4205 135.53 94.8124 135.343 93.4828C135.155 92.1532 136.976 91.7757 138.063 92.4231C139.15 93.0706 140.226 94.2032 141.44 93.8437C142.912 93.4075 144.472 94.5745 145.027 96.0057C145.582 97.4369 145.397 99.0344 145.203 100.557C144.924 102.755 144.212 105.449 142.04 105.892C141.878 107.46 144.184 107.685 145.737 107.948C147.856 108.306 149.598 109.921 150.618 111.812C151.637 113.704 152.038 115.86 152.359 117.985C153.388 124.792 153.717 131.902 151.495 138.418C156.554 138.338 161.613 138.258 166.672 138.177C163.731 139.202 160.55 139.242 157.435 139.25C148.916 139.269 140.397 139.127 131.884 138.822C131.372 138.803 130.814 138.767 130.432 138.426C130.023 138.06 129.941 137.46 129.894 136.914C129.591 133.393 129.627 129.843 130.001 126.33C130.316 130.234 130.632 134.139 130.947 138.043C135.081 138.196 139.215 138.349 143.349 138.503C144.919 138.561 146.91 138.345 147.399 136.851C147.396 137.344 147.393 137.836 147.39 138.329C148.473 138.565 149.602 138.588 150.693 138.398C152.591 132.822 152.976 126.738 151.795 120.967C150.518 120.831 149.435 122.041 149.165 123.296C148.896 124.551 149.198 125.847 149.346 127.122C149.722 130.35 149.079 133.688 147.532 136.545C148.854 132.763 149.145 128.626 148.366 124.696C147.799 121.837 146.673 119.038 146.789 116.125C147.716 117.864 148.16 119.858 148.058 121.826C149.318 121.302 150.578 120.779 151.838 120.255C151.633 117.419 151.4 114.485 150.048 111.983C148.695 109.482 145.896 107.525 143.107 108.076C142.859 109.82 141.673 111.652 139.916 111.764C138.159 111.877 136.805 109.18 138.304 108.255C134.759 109.258 132.674 112.821 130.962 116.084C130.278 117.388 129.578 118.769 129.626 120.241C129.674 121.712 130.769 123.26 132.242 123.253C133.948 121.426 134.939 118.948 134.962 116.448C135.405 122.912 135.386 129.408 134.907 135.869C134.858 136.525 134.154 137.393 133.789 136.847C134.686 131.928 134.792 126.866 134.103 121.913C132.514 124.104 130.33 125.858 127.848 126.938C126.709 127.434 126.416 128.938 126.603 130.166C126.789 131.395 127.293 132.605 127.131 133.837C126.97 135.069 126.303 136.203 124.574 135.763C122.845 135.322 120.346 136.033 120.346 136.033C120.346 136.033 120.67 141.709 121.233 143.399C123.403 145.083 126.661 141.893 129.167 143.017C130.726 143.717 132.503 143.678 134.211 143.627C135.277 143.594 136.777 142.792 136.156 141.925C133.442 142.21 130.697 142.206 127.984 141.914C126.817 141.788 125.963 140.659 125.759 139.503C125.555 138.348 125.852 137.169 126.148 136.033C126.328 136.962 126.263 138.585 126.363 139.25C126.464 139.914 126.755 141.014 127.485 141.086C133.213 141.645 135.134 141.281 139.143 140.346C139.848 140.182 140.716 139.975 141.44 139.979C142.306 139.984 143.115 140.451 143.956 140.66C146.873 141.382 149.931 141.157 152.928 140.927C158.712 140.482 164.496 140.038 170.28 139.593C172.635 135.63 168.169 129.615 171.342 126.27C171.609 106.161 171.877 86.0525 172.145 65.9438C157.098 65.4684 142.036 65.4694 126.988 65.9465C125.96 83.4015 125.765 100.906 126.404 118.379C125.45 115.884 125.383 113.152 125.341 110.481C125.115 96.0469 125.285 81.6066 125.851 67.1817C125.877 66.5208 125.946 65.7736 126.464 65.3622C126.852 65.0534 127.387 65.0269 127.884 65.0142C142.767 64.6332 157.659 64.6398 172.542 65.034C172.542 79.3377 173.301 91.5773 172.313 104.81C171.766 112.151 172.145 118.954 172.145 126.33C173.578 126.502 175.473 125.823 175.93 124.453C176.387 123.084 176.211 121.597 176.065 120.161C174.108 100.875 178.554 81.4133 177.106 62.0828C158.562 61.2335 139.983 61.1272 121.43 61.7642C121.046 61.7774 120.625 61.8055 120.346 62.0692C120.033 62.3645 120.009 62.8457 120.006 63.2759C119.903 79.2256 119.799 95.1752 119.696 111.125C118.724 97.0359 118.453 82.8903 119.174 68.7863C119.252 67.2465 119.339 65.6684 118.883 64.1955C118.427 62.7226 117.303 61.3527 115.787 61.0674C115.489 58.4253 115.529 55.7451 115.906 53.113C137.744 53.2266 159.582 53.3402 181.42 53.4537C181.499 55.1154 181.578 56.777 181.657 58.4386C181.732 60.0119 181.109 62.2394 179.565 61.9261C178.938 61.7988 178.637 62.664 178.604 63.3031C178.333 68.5523 178.062 73.8015 177.792 79.0508C176.986 94.6513 176.181 110.275 176.721 125.887C178.117 125.957 179.513 126.026 180.908 126.096C181.279 126.972 181.657 127.905 181.519 128.846C181.381 129.787 180.507 130.689 179.576 130.49C180.387 132.38 178.224 134.75 176.268 134.115C176.425 136.375 176.582 138.636 176.739 140.896C176.768 141.322 176.813 141.784 177.102 142.099C178.005 143.08 179.939 141.565 180.892 142.498C181.021 144.721 181.15 146.944 181.279 149.167C181.314 149.773 181.318 150.464 180.878 150.882C180.582 151.162 180.156 151.245 179.754 151.313C171.92 152.638 163.89 152.794 156.011 151.776C156.434 153.802 156.761 156.195 155.329 157.689C154.272 158.791 152.253 159.649 152.734 161.098C153.6 160.915 154.384 160.372 154.86 159.625C154.768 160.594 153.867 161.416 152.894 161.42C152.06 161.508 152.226 160.114 152.795 159.497C154.046 158.143 155.663 156.932 156.062 155.133C156.46 153.333 154.399 151.134 152.94 152.261C152.063 152.938 152.103 154.251 152.226 155.352C151.438 154.463 151.541 152.932 152.441 152.156C150.094 152.691 147.659 152.838 145.265 152.589C148.289 152.13 151.313 151.672 154.336 151.214C153.476 148.831 153.7 146.08 154.936 143.869C153.044 143.66 151.118 143.766 149.26 144.179C148.74 144.295 148.209 144.443 147.793 144.776C147.356 145.126 147.093 145.643 146.854 146.149C144.829 150.442 143.663 155.139 143.446 159.881C142.975 157.152 143.322 154.287 144.43 151.75C144.164 151.326 143.818 150.953 143.417 150.654C146.174 149.575 147.496 145.845 146.035 143.27C145.805 142.865 145.521 142.492 145.198 142.157C143.255 140.143 139.826 139.792 137.515 141.37C136.528 142.613 137.005 143.031 136.587 143.768C136.331 144.218 135.766 144.5 135.523 144.965C135.432 145.138 135.409 145.398 135.318 145.572C135.993 146.124 136.841 146.462 137.71 146.527C137.625 147.46 137.539 148.393 137.453 149.326C137.946 149.411 138.44 149.497 138.933 149.583C138.273 150.241 138.862 151.612 139.794 151.585C140.674 154.387 141.555 157.188 142.436 159.989C141.537 157.741 140.638 155.493 139.738 153.244C136.708 153.589 133.678 153.934 130.648 154.279C130.758 154.834 131.044 155.353 131.455 155.741C129.658 156.002 127.854 154.29 128.02 152.482C127.136 154.076 128.499 155.976 129.903 157.139C131.307 158.302 133.009 159.608 132.949 161.43C131.554 161.919 129.839 160.925 129.571 159.471C130.078 160.415 131.174 161.008 132.242 160.917C131.548 160.219 130.853 159.522 130.159 158.824C130.672 159.132 131.185 159.44 131.699 159.748C131.929 159.149 131.396 158.476 130.775 158.314C130.153 158.152 129.501 158.347 128.888 158.541C127.752 158.9 126.578 159.281 125.695 160.082C124.813 160.882 124.306 162.228 124.832 163.298C125.957 162.911 126.921 162.078 127.468 161.021C127.408 162.442 126.033 163.67 124.615 163.569C123.61 161.595 125.271 158.836 127.485 158.8C128.398 158.785 128.94 157.641 128.699 156.76C128.459 155.879 127.722 155.238 127.022 154.651C126.551 155.266 125.943 155.776 125.254 156.132C125.232 155.093 125.436 154.05 125.849 153.097C124.918 154.154 124.393 155.561 124.403 156.97C123.928 155.808 123.97 154.446 124.516 153.316C121.762 153.786 118.965 154.006 116.171 153.973C115.711 150.782 115.251 147.59 114.79 144.399C116.518 143.932 118.308 143.695 120.098 143.697C119.201 138.329 120.098 138.18 118.984 135.763C118.832 135.434 118.295 136.062 117.929 135.322C117.563 134.582 117.399 132.656 117.399 132.656C117.399 132.656 115.905 132.438 115.787 132.036C115.325 130.458 114.806 129.048 115.93 128.199C117.128 127.294 119.004 128.069 120.26 127.245C119.788 125.383 119.697 123.424 119.993 121.526C120.731 122.78 120.468 124.374 120.874 125.772C121.28 127.169 123.193 128.343 124.107 127.211C122.767 124.822 120.971 121.385 119.155 119.333C117.995 118.021 116.348 118.335 115.143 116.886C113.938 115.438 113.581 115.151 113.156 113.94C112.731 112.729 113.311 111.071 114.582 110.894C115.824 110.721 116.764 111.951 117.399 113.033C117.114 112.078 117.878 110.958 118.871 110.876C120.1 114.752 122.327 118.307 125.278 121.104C126.205 121.982 128.074 122.572 128.442 121.35C127.785 120.323 128.926 119.146 129.561 118.106C130.329 116.848 130.363 115.292 130.374 113.819C130.486 99.1796 130.599 84.5402 130.711 69.9008C130.72 68.7488 132.278 68.4151 133.429 68.4452C144.765 68.7407 156.101 69.0362 167.437 69.3317ZM116.634 60.5402C116.805 60.6714 117.037 60.6772 117.253 60.6774C121.672 60.6815 126.092 60.6855 130.512 60.6895C133.073 60.6918 135.635 60.6941 138.196 60.6965C143.101 60.7009 148.007 60.7054 152.912 60.7099C161.697 60.7178 170.483 60.7258 179.268 60.7338C179.746 60.7342 180.313 60.6871 180.556 60.2752C180.679 60.0649 180.683 59.8076 180.684 59.5636C180.687 57.9205 180.69 56.2773 180.693 54.6342C180.693 54.4633 180.687 54.2742 180.569 54.1499C180.444 54.0175 180.241 54.0076 180.058 54.0065C159.222 53.8834 138.385 53.7602 117.549 53.6371C117.29 53.6356 117.002 53.6462 116.822 53.8312C116.659 53.9981 116.639 54.253 116.629 54.4856C116.549 56.2119 116.47 57.9381 116.39 59.6644C116.376 59.9799 116.384 60.3476 116.634 60.5402ZM154.326 148.711C154.196 148.582 153.955 148.718 153.921 148.898C153.887 149.077 153.985 149.252 154.081 149.407C154.416 149.952 154.794 150.501 155.349 150.819C155.887 151.128 156.528 151.182 157.147 151.23C159.275 151.393 161.404 151.557 163.532 151.72C164.901 151.826 166.272 151.931 167.644 151.907C171.907 151.834 176.08 150.519 180.344 150.499C180.694 150.497 180.79 150.019 180.774 149.67C180.69 147.85 180.606 146.03 180.522 144.211C180.499 143.718 180.304 143.061 179.812 143.101C171.687 143.761 163.523 143.933 155.377 143.614C155.424 145.263 154.945 146.923 154.027 148.294C154.906 148.333 155.79 148.265 156.653 148.092C156.001 147.878 155.313 147.771 154.626 147.779C155.785 147.163 157.366 147.507 158.165 148.549C158.238 148.646 158.309 148.757 158.298 148.878C158.278 149.112 157.991 149.207 157.758 149.246C156.57 149.442 155.183 149.557 154.326 148.711ZM124.753 149.877C124.559 150.018 124.286 150.158 124.102 150.006C124.012 149.933 123.979 149.813 123.951 149.701C123.804 149.121 123.657 148.528 123.712 147.933C123.767 147.337 124.064 146.729 124.6 146.464C125.144 146.195 125.785 145.725 125.619 145.141C125.46 144.586 124.724 144.493 124.147 144.51C121.448 144.587 118.748 144.665 116.049 144.742C115.939 144.745 115.817 144.753 115.741 144.833C115.649 144.929 115.666 145.081 115.689 145.211C116.119 147.668 116.548 150.124 116.978 152.581C117.012 152.773 117.061 152.989 117.23 153.085C117.342 153.149 117.478 153.143 117.606 153.135C119.358 153.027 121.105 152.86 122.845 152.633C124.276 152.446 125.963 152.306 126.925 153.381C126.919 152.433 127.632 151.661 128.126 150.852C128.621 150.042 128.838 148.824 128.065 148.274C127.265 147.705 126.569 146.99 126.022 146.174C125.687 146.595 126.092 147.183 126.174 147.714C126.314 148.614 125.49 149.343 124.753 149.877ZM113.545 112.385C113.573 112.649 113.741 112.875 113.902 113.087C114.665 114.085 115.428 115.084 116.192 116.083C115.323 115.383 114.455 114.683 113.586 113.984C114.493 115.945 116.193 117.526 118.215 118.287C118.552 118.414 118.901 118.521 119.201 118.719C119.726 119.066 120.037 119.648 120.342 120.198C121.385 122.077 122.599 123.862 123.965 125.521C124.575 126.262 125.387 127.046 126.336 126.906C128.354 126.607 130.231 125.451 131.406 123.782C130.864 123.213 130.323 122.644 129.782 122.075C129.594 121.878 129.393 121.672 129.131 121.599C128.868 121.525 128.531 121.644 128.468 121.909C128.28 122.7 127.263 123.043 126.485 122.804C125.708 122.564 125.128 121.93 124.587 121.322C121.995 118.406 119.293 115.267 118.669 111.416C118.215 111.191 117.916 111.921 117.929 112.427C117.944 112.991 117.958 113.554 117.973 114.118C116.546 113.534 116.055 111.257 114.512 111.264C115.225 112.49 116.019 113.67 116.888 114.791C115.608 114.171 114.554 113.097 113.958 111.806C113.692 111.815 113.517 112.12 113.545 112.385ZM171.65 137.813C171.462 138.781 170.937 139.732 170.068 140.197C169.446 140.53 168.719 140.585 168.016 140.633C163.361 140.953 158.706 141.273 154.051 141.593C154.57 142.291 155.226 143.059 156.096 143.04C162.616 142.898 169.137 142.756 175.658 142.613C175.888 142.608 176.153 142.585 176.283 142.396C176.383 142.252 176.367 142.06 176.346 141.886C176.06 139.442 175.773 136.999 175.486 134.555C175.468 134.398 175.442 134.226 175.324 134.12C175.185 133.996 174.974 134.012 174.789 134.035C173.979 134.137 173.168 134.238 172.358 134.34C172.028 134.381 171.602 134.536 171.636 134.866C171.737 135.847 171.839 136.845 171.65 137.813ZM131.787 153.467C134.044 153.296 136.29 152.999 138.513 152.578C138.907 152.503 139.389 152.329 139.416 151.929C138.955 151.966 138.484 151.696 138.281 151.28C138.079 150.863 138.158 150.326 138.472 149.986C138.116 149.996 137.743 150.003 137.425 149.843C137.108 149.683 136.874 149.296 137.009 148.966C137.228 148.429 137.251 147.814 137.071 147.263C136.963 146.931 136.706 146.579 136.359 146.608C135.764 146.657 135.168 146.204 135.057 145.617C134.947 145.03 135.336 144.391 135.909 144.22C135.877 144.07 135.675 144.047 135.522 144.057C132.557 144.257 129.593 144.457 126.628 144.657C126.525 144.664 126.402 144.684 126.359 144.778C126.333 144.836 126.347 144.903 126.363 144.965C126.643 146.033 127.35 146.984 128.292 147.56C127.818 147.074 128.244 146.157 128.903 145.996C129.563 145.834 130.243 146.217 130.706 146.714C131.168 147.211 131.488 147.825 131.941 148.33C132.073 148.478 132.221 148.626 132.267 148.819C132.313 149.011 132.196 149.257 131.998 149.261C131.911 149.263 131.83 149.219 131.754 149.176C130.809 148.64 129.865 148.105 128.921 147.57C129.121 147.192 129.71 147.318 130.035 147.596C130.361 147.874 130.646 148.269 131.072 148.31C130.889 147.997 130.707 147.684 130.524 147.371C130.251 146.904 129.817 146.364 129.294 146.502C128.87 146.615 128.684 147.153 128.8 147.576C128.915 147.999 129.24 148.327 129.552 148.635C130.041 149.116 130.721 149.636 131.342 149.345C131.527 149.258 131.706 149.549 131.603 149.726C131.5 149.903 131.266 149.95 131.061 149.946C130.476 149.935 129.902 149.638 129.556 149.165C129.436 149.839 129.315 150.514 129.195 151.188C129.986 151.458 130.603 152.184 130.741 153.009C130.81 153.424 131.369 153.498 131.787 153.467ZM141.674 94.2605C141.216 94.2818 140.79 94.5042 140.336 94.5609C139.774 94.6309 139.184 94.4286 138.784 94.0283C138.28 93.5252 136.757 92.2263 136.217 92.7167C135.677 93.2071 135.566 95.1286 136.187 96.1664C136.305 96.3633 136.189 96.6273 136.011 96.7721C135.832 96.9169 135.605 96.9854 135.407 97.1013C134.85 97.4269 134.571 98.1625 134.772 98.776C134.973 99.3895 135.633 99.8172 136.275 99.7498C135.809 99.1804 135.867 98.2534 136.401 97.7469C136.935 97.2403 137.863 97.2302 138.408 97.7251C138.759 98.0441 139.316 97.9762 139.75 97.785C140.184 97.5939 140.579 97.2993 141.044 97.2064C141.653 97.0847 142.323 97.3628 142.666 97.8801C143.009 98.3975 143.006 99.1224 142.657 99.6362C142.33 100.118 142.607 100.886 143.166 101.048C143.726 101.21 144.37 100.709 144.351 100.126C144.319 99.1624 144.998 98.2699 144.917 97.309C144.849 96.5004 144.262 95.84 143.673 95.2819C143.114 94.7525 142.443 94.2247 141.674 94.2605ZM137.063 98.1074C136.491 98.2393 136.294 99.1247 136.757 99.4865C137.156 99.1356 137.798 99.0988 138.234 99.4016C138.011 99.7805 137.402 99.5725 137.018 99.7868C136.693 99.9683 136.618 100.395 136.587 100.766C136.504 101.771 136.484 102.78 136.528 103.786C136.558 104.457 136.619 105.141 136.888 105.756C137.157 106.371 137.669 106.915 138.324 107.062C138.898 107.191 139.508 107.002 139.997 106.674C140.486 106.347 140.874 105.893 141.247 105.438C141.72 104.861 142.187 104.263 142.47 103.572C142.753 102.881 142.835 102.077 142.533 101.394C142.285 100.83 142.174 100.207 142.212 99.5924C142.243 99.1038 142.35 98.5538 142.044 98.1716C141.672 97.7062 140.935 97.8032 140.391 98.0469C139.847 98.2907 139.297 98.6462 138.707 98.5585C138.136 98.4737 137.625 97.9778 137.063 98.1074ZM115.961 130.854C115.961 131.095 116.025 131.354 116.125 131.541C116.389 132.036 118.785 131.552 119.155 131.515C121.278 131.303 123.401 131.091 125.524 130.879C125.85 130.846 126.243 130.762 126.345 130.451C126.395 130.297 126.355 130.13 126.313 129.973C126.217 129.606 126.121 129.238 126.025 128.871C125.968 128.65 125.904 128.418 125.742 128.255C125.473 127.984 125.038 127.999 124.657 128.032C122.079 128.26 119.5 128.488 116.922 128.716C116.58 128.746 116.179 128.815 116.029 129.123C115.964 129.259 115.962 129.415 115.962 129.565C115.962 129.995 115.961 130.424 115.961 130.854ZM170.92 129.414C171.017 129.548 171.207 129.561 171.373 129.562C174.301 129.576 177.229 129.59 180.158 129.604C180.351 129.605 180.557 129.603 180.717 129.495C180.983 129.316 181.007 128.941 181.005 128.621C181.001 128.236 180.996 127.84 180.855 127.481C180.715 127.122 180.408 126.802 180.024 126.762C177.269 126.468 174.509 127.457 171.745 127.261C171.34 127.232 170.985 127.577 170.861 127.963C170.738 128.35 170.791 128.768 170.846 129.171C170.857 129.256 170.87 129.344 170.92 129.414ZM170.801 130.958C170.723 131.782 170.78 132.62 170.97 133.426C173.4 133.343 175.827 133.206 178.251 133.015C178.652 132.984 179.178 132.815 179.148 132.414C179.118 131.993 179.087 131.572 179.057 131.15C179.047 131.012 179.033 130.865 178.948 130.757C178.831 130.607 178.62 130.578 178.431 130.562C176.072 130.355 173.699 130.314 171.334 130.438C171.201 130.445 171.058 130.456 170.957 130.542C170.841 130.641 170.815 130.806 170.801 130.958ZM126.222 132.215C126.18 131.895 125.74 131.845 125.419 131.881C123.119 132.139 120.82 132.398 118.52 132.656C118.422 132.667 118.319 132.68 118.24 132.738C118.083 132.854 118.085 133.085 118.107 133.278C118.172 133.875 118.301 134.526 118.769 134.902C119.4 135.411 120.318 135.191 121.111 135.023C122.587 134.71 124.121 134.668 125.612 134.9C125.938 134.951 126.244 134.681 126.352 134.37C126.46 134.058 126.419 133.717 126.376 133.39C126.324 132.998 126.273 132.607 126.222 132.215ZM141.447 110.292C141.693 109.967 141.919 109.626 142.121 109.272C142.276 109.002 142.421 108.688 142.331 108.39C142.273 108.197 142.124 108.046 142.001 107.885C141.618 107.384 141.47 106.711 141.607 106.095C141.619 106.042 141.633 105.986 141.614 105.935C141.543 105.737 141.253 105.926 141.144 106.107C140.677 106.888 139.87 107.457 138.978 107.635C138.783 107.674 138.835 107.976 138.732 108.125C138.304 108.746 137.422 109.57 138.234 110.532C138.843 111.255 138.973 111.414 139.143 111.467C140.023 111.737 140.892 111.026 141.447 110.292ZM147.836 143.722C148.076 143.679 148.316 143.635 148.555 143.592C149.022 143.508 149.506 143.417 149.893 143.143C150.404 142.781 150.723 142.119 151.331 141.972C151.479 141.936 151.683 141.784 151.558 141.698C151.527 141.677 151.488 141.676 151.451 141.677C149.817 141.697 148.184 141.77 146.556 141.894C146.758 142.427 146.994 142.948 147.262 143.452C147.315 143.552 147.375 143.657 147.476 143.708C147.585 143.764 147.715 143.744 147.836 143.722ZM152.625 141.996C151.869 142.106 151.224 142.603 150.706 143.163C150.58 143.299 150.711 143.566 150.896 143.549C151.096 143.233 151.526 143.179 151.9 143.157C152.756 143.106 153.613 143.056 154.47 143.005C154.245 142.275 153.38 141.886 152.625 141.996ZM142.926 103.54C142.769 104.167 142.419 104.744 141.936 105.174C141.967 105.335 142.201 105.319 142.354 105.262C142.903 105.055 143.469 104.829 143.868 104.401C144.268 103.972 144.449 103.28 144.125 102.791C144.015 103.28 143.048 103.055 142.926 103.54ZM128.628 152.614C128.441 152.994 128.434 153.541 128.8 153.754C129.114 153.937 129.564 153.724 129.667 153.377C129.77 153.029 129.553 152.633 129.222 152.484C129.017 152.392 128.726 152.412 128.628 152.614ZM127.012 143.549C126.957 143.637 126.942 143.784 127.041 143.817C127.716 143.745 128.398 143.729 129.076 143.768C129.152 143.604 129.05 143.402 128.898 143.304C128.745 143.206 128.557 143.187 128.377 143.17C127.881 143.124 127.278 143.127 127.012 143.549ZM157.147 148.874C157.261 148.838 157.339 148.714 157.322 148.597C156.533 148.432 155.707 148.444 154.923 148.63C155.588 149.014 156.415 149.105 157.147 148.874ZM124.567 148.953C124.756 148.22 124.889 147.472 124.963 146.718C124.228 147.159 124.028 148.286 124.567 148.953ZM143.259 102.775C143.559 102.751 143.824 102.495 143.859 102.196C143.893 101.897 143.694 101.587 143.408 101.495C143.137 101.765 142.988 102.152 143.008 102.534C143.012 102.608 143.026 102.689 143.083 102.736C143.131 102.775 143.198 102.78 143.259 102.775ZM129.876 154.357C129.632 154.105 129.191 154.079 128.92 154.301C129.035 154.561 129.237 154.78 129.487 154.914C129.602 154.975 129.742 155.019 129.86 154.964C130.076 154.865 130.041 154.528 129.876 154.357ZM130.08 152.782C130.104 152.41 129.904 152.033 129.583 151.844C129.262 151.655 128.835 151.663 128.522 151.864C129.102 152.047 129.639 152.363 130.08 152.782ZM125.632 147.732C125.585 147.618 125.488 147.499 125.366 147.515C125.113 147.917 125.115 148.464 125.37 148.864C125.679 148.59 125.789 148.114 125.632 147.732ZM125.929 154.766C125.869 154.869 125.923 155.02 126.035 155.061C126.199 154.978 126.306 154.795 126.299 154.611C126.167 154.556 125.996 154.64 125.958 154.778M167.756 81.4729C167.679 81.5292 167.603 81.5855 167.526 81.6418C167.574 81.7287 167.622 81.8156 167.67 81.9025C167.81 81.8309 167.866 81.633 167.785 81.4983L167.756 81.4729Z" fill="white"/>
<ellipse cx="136.99" cy="103.96" rx="0.29582" ry="0.591652" fill="#FFB61D"/>
<path fill-rule="evenodd" clip-rule="evenodd" d="M143.177 136.816C143.681 130.862 144.105 124.9 144.69 118.953C144.836 117.47 149.021 119.266 147.284 132.13C147.01 134.164 145.702 137.203 143.367 137.359L143.177 136.816Z" fill="#E7EAEE"/>
<path fill-rule="evenodd" clip-rule="evenodd" d="M40.592 116.422C40.9673 124.504 39.6672 119.384 43.0349 121.548C43.6081 121.917 44.2348 122.604 44.1259 123.277C43.912 124.598 42.6386 125.532 42.186 126.791C39.9455 133.023 50.0992 133.302 51.941 134.282C52.5567 134.61 52.28 135.807 51.8727 136.373C50.3919 138.431 41.7753 132.843 40.6898 132.007C33.496 126.472 34.3531 122.85 40.0007 117.164L40.592 116.422Z" fill="#E7EAEE"/>
<ellipse cx="47.6512" cy="107.51" rx="0.295744" ry="0.591648" fill="#FFB61D"/>
</svg>
