<svg width="200" height="200" viewBox="0 0 200 200" fill="none" xmlns="http://www.w3.org/2000/svg">
<path fill-rule="evenodd" clip-rule="evenodd" d="M107.992 173.562C143.884 173.562 148.973 157.594 154.415 154.659C159.857 151.725 156.474 145.836 160.043 141.395C165.744 134.3 169.2 137.957 171.087 128.753C172.973 119.549 169.543 116.946 169.543 108.729C169.543 92.2657 177.43 84.4726 167.358 75.8589C157.287 67.2452 140.469 68.2616 123.835 68.2616C92.9618 68.2616 74.4661 25.9386 33.2881 38.636C19.0973 43.0117 20.6657 48.9749 23.7838 70.0485C25.1378 79.1997 14.9143 90.8346 16.6882 101.234C19.9278 120.227 28.484 117.651 44.6276 130.475C47.3358 132.626 51.2859 132.604 54.2385 134.81C59.1884 138.509 59.5067 144.261 68.7607 148.141C83.6826 154.397 82.4169 173.562 107.992 173.562Z" fill="white" fill-opacity="0.1"/>
<ellipse cx="89.0387" cy="71.7094" rx="0.9613" ry="0.94754" fill="#FFB61D"/>
<circle cx="82.0002" cy="69.7323" r="0.933331" fill="#FFB61D"/>
<path fill-rule="evenodd" clip-rule="evenodd" d="M79.19 157.947L79.603 158.246C78.6707 159.083 77.2681 158.042 76.4817 157.067C75.2173 155.5 73.934 153.833 73.5492 151.856C73.3302 150.731 73.4178 149.572 73.5063 148.429L73.863 143.822C74.0211 141.78 74.1796 139.735 74.5331 137.718C75.4896 132.259 77.8974 127.061 81.4429 122.801L81.4784 122.758C82.1046 122.006 82.7883 121.185 82.7762 120.21C82.7507 118.148 83.9384 116.22 85.4979 114.87C87.0574 113.52 88.967 112.654 90.8473 111.806C91.6991 111.421 92.8115 111.077 93.4716 111.738C94.8295 113.099 97.0956 112.232 98.8892 111.541C101.091 110.693 103.443 110.236 105.803 110.198L106.011 110.195C107.427 110.175 109.022 110.152 109.886 109.054C110.436 108.356 111.489 108.396 112.372 108.502L118.446 109.228C118.91 109.284 119.467 109.41 119.613 109.855C120.005 111.045 121.39 111.531 122.59 111.893C126.856 113.179 131.027 114.926 134.649 117.521C138.271 120.117 141.332 123.609 142.957 127.759C140.316 124.149 137.606 120.471 133.941 117.907C132.892 117.173 131.776 116.54 130.643 115.943C127.971 114.534 125.189 113.319 122.299 112.437C108.884 108.343 93.3667 112.14 83.3587 121.967C81.9076 123.392 80.547 124.961 79.724 126.821L80.8112 127.158C79.0881 127.928 77.8083 129.616 77.5313 131.483C78.2248 130.295 79.2131 129.281 80.3826 128.557C80.0478 129.676 79.1772 130.574 78.3238 131.455C77.2362 132.577 76.1764 133.671 76.2889 135.154C76.8052 133.799 78.1061 132.776 79.5449 132.594C77.2628 134.824 74.8139 137.441 74.8866 140.63C75.719 138.788 77.1325 137.214 78.8746 136.189L76.3667 139.559C75.4182 140.834 74.4194 142.29 74.6362 143.864C75.4613 142.383 76.641 141.102 78.0485 140.157C77.3707 141.698 76.403 143.112 75.2111 144.301C76.3446 144.164 77.4359 143.695 78.3148 142.966C77.9463 143.48 77.6144 144.061 77.6019 144.693C77.5895 145.326 77.9994 146.005 78.6255 146.096C78.815 145.672 79.4095 145.493 79.8015 145.742C78.6134 146.898 78.6011 149.04 79.7759 150.209C79.8804 149.66 80.3441 149.196 80.8939 149.092C80.0175 150.625 79.8599 152.549 80.4754 154.203C80.6616 153.266 81.1817 152.398 81.9207 151.792C81.4946 154.016 80.5526 156.139 79.19 157.947ZM78.6699 157.241C79.4118 157.234 79.8733 156.404 79.9507 155.666C80.0432 154.783 79.8239 153.901 79.6064 153.04L78.3158 147.936C78.0729 148.012 78.0447 148.277 78.0151 148.554C77.9899 148.79 77.9637 149.035 77.8022 149.181C77.4755 148.775 77.4384 148.159 77.7138 147.717C77.9919 147.27 77.81 146.644 77.4155 146.296C77.021 145.948 76.472 145.829 75.946 145.812C75.6617 145.803 75.3594 145.825 75.1268 145.988C74.8941 146.152 74.7718 146.5 74.937 146.732C75.4288 147.421 75.7989 148.197 76.0248 149.013C76.0417 149.074 76.0581 149.135 76.0745 149.197C76.1869 149.621 76.3024 150.057 76.6123 150.359C76.8519 150.592 76.913 150.948 76.9617 151.279L77.3559 153.962C77.4277 154.45 77.4995 154.948 77.4173 155.434C77.3352 155.921 77.0723 156.403 76.631 156.624L78.0402 157.104C78.2447 157.173 78.454 157.244 78.6699 157.241ZM94.0314 113.274C93.7537 113.333 93.5208 113.089 93.322 112.88L93.2991 112.857C93.0954 112.644 92.745 112.458 92.5303 112.66C90.0291 115.013 87.1827 116.999 84.1106 118.534C83.5531 118.812 83.4782 119.563 83.4778 120.187C83.4777 120.395 83.6771 120.687 83.8069 120.524C84.4404 119.731 85.2641 119.114 86.0782 118.507C88.3691 116.8 90.6873 115.076 93.3134 113.95C93.6321 113.813 94.0052 113.62 94.0314 113.274ZM119.172 110.631C119.03 110.298 118.627 110.178 118.272 110.111C117.304 109.929 116.319 109.846 115.334 109.764C113.982 109.65 112.632 109.537 111.331 109.166C110.914 109.047 110.558 109.469 110.33 109.838C111.015 109.766 111.705 109.737 112.394 109.749C113.594 109.771 114.787 109.921 115.977 110.07C116.582 110.146 117.192 110.223 117.772 110.41C117.839 110.432 117.907 110.456 117.976 110.479C118.372 110.615 118.781 110.756 119.172 110.631ZM106.367 115.738C106.641 115.801 106.902 116.006 106.943 116.284C106.984 116.561 106.794 116.832 106.552 116.973C106.309 117.115 106.023 117.154 105.745 117.191L104.908 117.302C104.824 117.313 104.737 117.325 104.665 117.368C104.454 117.493 104.469 117.83 104.641 118.004C104.813 118.178 105.077 118.221 105.321 118.221C106.46 118.218 107.538 117.399 107.886 116.315C107.968 116.057 108.012 115.771 107.91 115.52C107.858 115.393 107.771 115.283 107.675 115.186C107.227 114.732 106.56 114.532 105.924 114.577C105.288 114.621 104.683 114.892 104.165 115.265C103.917 115.443 103.681 115.652 103.54 115.924C103.399 116.195 103.368 116.539 103.526 116.801C103.586 116.901 103.679 116.989 103.794 117.008C103.909 117.027 104.042 116.953 104.056 116.837C104.096 116.515 104.331 116.244 104.611 116.08C104.89 115.917 105.213 115.845 105.531 115.781C105.806 115.726 106.092 115.675 106.367 115.738ZM83.9246 131.648C84.2376 129.798 85.7325 128.293 87.4752 127.596C88.4355 127.212 89.5344 127.043 90.5002 127.413C90.7385 127.505 90.9692 127.631 91.141 127.82C91.3023 127.997 91.4038 128.221 91.4804 128.448C91.9711 129.903 91.4731 131.586 90.419 132.703C89.3648 133.82 87.8301 134.406 86.2982 134.516C85.8075 134.551 85.2805 134.531 84.8752 134.252C84.4698 133.973 84.2687 133.354 84.5808 132.973C84.7282 132.98 84.8078 133.112 84.8892 133.247C84.9296 133.314 84.9704 133.381 85.0201 133.435C85.1902 133.618 85.4716 133.631 85.7213 133.621C86.8075 133.575 87.9101 133.306 88.7942 132.673C89.6783 132.04 90.3136 131.007 90.295 129.92C90.289 129.57 90.2129 129.212 90.0144 128.923C89.6887 128.449 89.0729 128.235 88.4992 128.273C87.9254 128.311 87.3875 128.565 86.899 128.869C86.2561 129.268 85.6621 129.769 85.2591 130.409C84.8561 131.05 84.6592 131.841 84.8296 132.578C84.6789 132.85 84.2312 132.796 84.0463 132.546C83.8613 132.297 83.8728 131.955 83.9246 131.648ZM93.9273 146.899C93.1326 147.411 92.4737 148.211 92.3511 149.148C92.252 149.906 92.5061 150.661 92.7565 151.383C92.9519 151.947 93.1538 152.523 93.526 152.989C94.1983 153.832 95.3115 154.18 96.3755 154.351C96.6653 154.398 97.1049 154.267 97.0016 153.992C95.8782 153.972 94.7732 153.451 94.0421 152.598C93.311 151.745 92.9657 150.573 93.1174 149.46C93.1493 149.226 93.2027 148.992 93.3011 148.777C93.5001 148.343 93.8711 148.008 94.2727 147.749C95.1373 147.19 96.1898 146.928 97.2154 147.017C98.2041 147.102 99.1919 147.536 99.7954 148.323C100.399 149.111 100.543 150.273 100.01 151.111C99.9237 151.247 99.8605 151.488 100.019 151.516C100.877 151.054 101.353 150.035 101.305 149.063C101.257 148.09 100.743 147.18 100.037 146.508C99.6466 146.137 99.1844 145.824 98.6606 145.697C97.9701 145.531 97.2478 145.703 96.5609 145.883C95.647 146.124 94.722 146.388 93.9273 146.899ZM132.957 148.108C130.083 147.035 126.96 146.635 123.909 146.949C122.629 147.081 121.346 147.342 120.196 147.917C118.025 149.004 116.473 151.24 116.215 153.653C115.957 156.066 117.001 158.58 118.892 160.101C119.609 160.677 120.424 161.109 121.239 161.541C121.795 161.837 122.352 162.132 122.879 162.474C123.03 162.618 122.691 162.762 122.493 162.698C120.65 162.103 118.86 161.198 117.545 159.775C115.946 158.045 115.166 155.588 115.474 153.252C115.783 150.916 117.174 148.746 119.168 147.49C120.745 146.497 122.63 146.079 124.493 146.012C126.355 145.944 128.212 146.211 130.054 146.496C131.205 146.674 132.553 147.016 132.957 148.108ZM102.72 151.709C102.59 151.41 102.065 151.332 101.969 151.644C101.36 153.628 99.4238 155.128 97.3507 155.223C96.882 155.244 96.4131 155.201 95.9462 155.156C94.9406 155.058 93.9034 154.943 93.0228 154.448C91.7565 153.736 90.9945 152.274 90.9855 150.821C90.9765 149.369 91.6656 147.957 92.7119 146.949C92.5668 146.542 91.9432 146.739 91.6335 147.04C89.9174 148.708 89.623 151.587 90.8271 153.655C92.0313 155.723 94.5547 156.882 96.9334 156.619C99.312 156.356 101.46 154.764 102.565 152.641C102.716 152.352 102.851 152.008 102.72 151.709ZM87.8241 161.753C87.4366 163.239 87.3998 164.815 87.7176 166.317C87.8601 166.991 87.8757 167.363 87.8786 167.432C87.879 167.44 87.8791 167.444 87.8793 167.444L87.8795 167.442L87.8797 167.438L87.88 167.432C87.8832 167.362 87.9 166.99 88.0458 166.315C88.3708 164.81 88.2936 163.219 87.8241 161.753ZM89.8829 162.651C89.3323 163.805 89.4006 165.233 90.0587 166.329C90.2066 166.575 90.3187 166.776 90.4015 166.923C90.5128 167.122 90.5709 167.226 90.591 167.219C90.6129 167.211 90.5896 167.072 90.5409 166.781L90.5409 166.781L90.5408 166.781L90.5408 166.781L90.5408 166.781L90.5408 166.781L90.5408 166.781L90.5407 166.781L90.5407 166.781L90.5407 166.781C90.5211 166.664 90.4974 166.522 90.4709 166.355L89.8829 162.651ZM91.4334 164.126C91.1997 164.863 91.3716 165.714 91.8726 166.303C92.3843 166.904 92.5514 167.096 92.3955 166.323C92.2364 165.533 91.9059 164.778 91.4334 164.126ZM136.288 155.744C135.585 158.565 133.34 160.703 131.163 162.631C131.263 162.846 131.584 162.769 131.79 162.653C133.995 161.412 135.779 159.389 136.593 156.994C137.407 154.598 137.205 151.846 135.92 149.666C135.812 149.483 135.675 149.289 135.466 149.248C135.258 149.207 135.018 149.449 135.14 149.622C136.375 151.371 136.806 153.666 136.288 155.744ZM104.588 130.27C104.583 129.823 104.589 129.34 104.859 128.984C105.23 128.495 105.934 128.443 106.549 128.434C106.823 128.431 107.101 128.427 107.367 128.491C107.936 128.626 108.388 129.045 108.792 129.468C108.881 129.561 108.976 129.676 108.954 129.804C108.926 129.962 108.728 130.035 108.571 130.002C108.467 129.981 108.373 129.929 108.279 129.877C108.232 129.851 108.184 129.824 108.136 129.802C107.57 129.543 106.906 129.827 106.399 130.186C106.319 130.242 106.233 130.315 106.231 130.412C106.229 130.511 106.313 130.587 106.392 130.645C107.078 131.147 107.956 131.38 108.801 131.283C109.003 131.26 109.24 131.186 109.292 130.989C109.313 130.912 109.305 130.822 109.297 130.735C109.284 130.589 109.272 130.452 109.395 130.401C109.459 130.375 109.531 130.394 109.598 130.413C110.055 130.546 110.589 130.76 110.678 131.227C110.703 131.363 110.685 131.503 110.642 131.634C110.516 132.016 110.165 132.315 109.768 132.378C109.591 132.406 109.411 132.391 109.233 132.376C108.768 132.336 108.302 132.296 107.841 132.222C106.995 132.085 106.167 131.833 105.388 131.474C105.118 131.35 104.837 131.197 104.7 130.932C104.596 130.732 104.591 130.496 104.588 130.27ZM121.974 119.264C121.702 118.528 121.045 117.948 120.281 117.769C120.045 117.714 119.778 117.7 119.578 117.837C119.378 117.974 119.309 118.308 119.5 118.457C119.685 118.602 119.573 118.944 119.347 119.008C119.121 119.073 118.877 118.919 118.764 118.713C118.651 118.506 118.639 118.261 118.638 118.026C118.636 117.712 118.665 117.361 118.897 117.15C118.985 117.069 119.095 117.017 119.204 116.968C119.656 116.766 120.156 116.595 120.639 116.703C121.099 116.807 121.466 117.147 121.787 117.492C122.05 117.776 122.299 118.072 122.532 118.381C122.738 118.652 122.935 118.942 123.012 119.274C123.09 119.606 123.023 119.991 122.767 120.216C122.516 120.436 122.13 120.454 121.825 120.319C121.556 120.199 121.326 119.935 121.346 119.641C121.366 119.347 121.727 119.103 121.974 119.264ZM124.402 139.939C125.077 139.919 125.705 139.4 125.851 138.74C125.94 138.34 125.83 137.863 125.481 137.647C125.226 137.49 124.905 137.501 124.606 137.52C124.191 137.547 123.761 137.583 123.401 137.79C123.041 137.997 122.773 138.426 122.886 138.825C123.07 139.475 123.727 139.958 124.402 139.939ZM124.488 138.965C124.357 139 124.171 138.967 124.16 138.832C124.155 138.776 124.185 138.723 124.219 138.679C124.411 138.43 124.776 138.334 125.065 138.455C124.965 138.702 124.745 138.896 124.488 138.965ZM124.838 128.977C124.728 128.723 124.941 128.428 125.2 128.331C125.407 128.253 125.632 128.261 125.855 128.269C125.911 128.271 125.966 128.273 126.022 128.274C126.298 128.277 126.603 128.231 126.783 128.021C126.846 127.946 126.889 127.837 126.841 127.753C126.79 127.664 126.671 127.649 126.57 127.644C125.865 127.607 125.033 127.629 124.627 128.205C124.54 128.329 124.326 128.288 124.244 128.16C124.163 128.032 124.182 127.864 124.228 127.72C124.394 127.203 124.872 126.827 125.394 126.676C125.915 126.526 126.475 126.573 127.005 126.693C127.183 126.734 127.369 126.787 127.499 126.915C127.603 127.017 127.661 127.157 127.698 127.297C127.879 127.968 127.612 128.736 127.056 129.151C126.499 129.566 125.687 129.601 125.095 129.237C124.99 129.172 124.887 129.091 124.838 128.977ZM122.423 140.828C122.75 141.22 123.138 141.577 123.608 141.776C124.558 142.18 125.773 141.807 126.333 140.94C126.537 140.625 126.629 140.143 126.327 139.919C125.843 140.935 124.441 141.384 123.458 140.837C123.269 140.732 123.098 140.598 122.942 140.449C122.235 139.772 121.866 138.666 122.281 137.779C122.416 137.49 122.624 137.24 122.851 137.016C123.347 136.527 124.056 136.127 124.717 136.344C124.744 136.353 124.772 136.363 124.799 136.373C124.892 136.407 124.985 136.442 125.082 136.436C125.208 136.429 125.34 136.316 125.308 136.194C125.298 136.157 125.276 136.126 125.252 136.097C124.844 135.576 124.041 135.415 123.463 135.738C122.776 136.122 122.077 136.575 121.711 137.273C121.115 138.409 121.601 139.844 122.423 140.828ZM133.378 123.308C133.347 123.352 133.355 123.412 133.362 123.47C133.371 123.538 133.379 123.603 133.323 123.631C133.117 123.733 132.87 123.722 132.651 123.655C132.052 123.471 131.65 122.921 131.311 122.394C131.113 122.086 130.916 121.759 130.884 121.393C130.852 121.028 131.038 120.617 131.39 120.514C131.782 120.399 132.166 120.691 132.472 120.962C132.816 121.269 133.168 121.585 133.381 121.993C133.594 122.402 133.641 122.93 133.378 123.308ZM132.076 121.941C132.161 122.024 132.207 122.134 132.253 122.244C132.299 122.353 132.344 122.462 132.427 122.544C132.531 122.647 132.689 122.694 132.833 122.663C132.563 122.246 132.251 121.857 131.903 121.504C131.809 121.532 131.802 121.67 131.858 121.749C131.892 121.798 131.939 121.833 131.987 121.869C132.018 121.892 132.049 121.915 132.076 121.941ZM80.7938 159.6C80.7605 160.147 80.8024 160.781 81.2402 161.11C81.3862 161.029 81.3762 160.82 81.3579 160.654C81.2448 159.632 81.5621 158.646 81.8814 157.654C82.11 156.944 82.3397 156.23 82.4134 155.497C82.4347 155.285 82.3781 154.994 82.1644 154.986C82.0046 154.98 81.9013 155.148 81.8369 155.295C81.2388 156.653 80.8838 158.118 80.7938 159.6ZM123.265 139.872C123.758 140.091 124.306 140.314 124.823 140.157C125.029 140.094 125.212 139.975 125.392 139.858C125.391 140.16 125.131 140.414 124.841 140.5C124.552 140.587 124.241 140.541 123.945 140.477C123.617 140.406 123.216 140.204 123.265 139.872ZM84.1886 165.088C84.3146 164.864 84.3361 164.597 84.3548 164.341L84.5039 162.295C84.5771 161.292 84.6503 160.284 84.5847 159.28C84.5764 159.153 84.5635 159.02 84.4897 158.916C84.4159 158.813 84.2596 158.758 84.1584 158.835C84.084 158.891 84.0652 158.993 84.0523 159.086C83.8904 160.247 83.8039 161.419 83.7935 162.591C83.7859 163.441 83.8248 164.32 84.1886 165.088ZM81.9531 163.333C81.8221 163.443 81.604 163.346 81.5318 163.19C81.4596 163.035 81.4887 162.853 81.5196 162.684C81.8433 160.919 82.2105 159.162 82.6207 157.415C82.631 157.371 82.642 157.326 82.6703 157.291C82.7784 157.157 82.9966 157.292 83.0733 157.445C83.2613 157.822 83.1712 158.272 83.0771 158.682L82.0661 163.092C82.046 163.18 82.022 163.274 81.9531 163.333ZM85.4546 163.412C85.3982 164.074 85.4975 164.739 85.5965 165.396C85.6317 165.63 85.8002 165.941 86.0116 165.834L86.4235 161.429C86.4403 161.25 86.4516 161.051 86.3405 160.91C86.2293 160.768 85.948 160.774 85.9125 160.95L85.6088 162.461C85.5454 162.776 85.4819 163.092 85.4546 163.412ZM127.992 149.913C126.82 149.309 125.392 149.071 124.174 149.577C123.264 149.954 120.692 151.586 120.35 153.678C120.121 155.078 120.123 156.509 120.613 157.861L120.692 158.073C120.838 158.456 121.303 158.896 121.563 158.58C120.804 157.207 120.662 155.508 121.183 154.029C121.704 152.55 122.88 151.314 124.332 150.721C124.637 150.596 124.956 150.498 125.285 150.467C125.949 150.404 126.612 150.619 127.206 150.923C128.485 151.578 130.069 152.668 130.678 153.97C131.265 155.224 131.697 156.721 131.166 158.001C130.635 159.28 127.146 160.206 127.146 160.206L127.533 160.91C127.533 160.91 129.485 160.525 130.678 159.656C135.685 156.009 129.114 150.49 127.992 149.913Z" fill="white"/>
<path fill-rule="evenodd" clip-rule="evenodd" d="M39.4805 131.901C37.7097 132.091 35.8341 131.681 34.4514 130.559C33.4722 129.764 32.7841 128.658 32.3013 127.492C31.7771 126.227 31.4758 124.87 31.4152 123.502C31.3924 122.987 31.4046 122.462 31.556 121.969C31.8051 121.158 32.405 120.507 33.0174 119.92C34.3202 118.671 35.8516 117.53 37.6376 117.268C38.8545 117.089 40.0925 117.333 41.2837 117.639C42.2193 117.88 43.1537 118.164 43.9953 118.638C45.8548 119.687 47.1434 121.687 47.3298 123.813C47.5162 125.94 47.2869 127.349 44.417 129.991C42.9258 130.965 41.2513 131.711 39.4805 131.901ZM42.6031 125.226C42.3159 125.316 42.0297 125.477 41.7332 125.424C41.1274 125.318 41.019 124.487 41.1535 123.887C41.5385 122.169 42.7361 120.651 44.3177 119.878C43.9597 119.228 43.0086 119.18 42.3359 119.493C41.6633 119.805 41.1374 120.367 40.4869 120.723C40.1632 120.9 39.7795 121.026 39.4274 120.915C38.8479 120.734 38.6267 119.975 38.8164 119.398C39.0061 118.821 39.4796 118.391 39.9342 117.988C38.2868 118.046 36.6567 118.54 35.2548 119.408C34.1573 120.086 33.1164 121.199 33.262 122.482C34.1694 121.751 35.2348 121.218 36.3633 120.93C36.6027 120.869 36.9031 120.838 37.0529 121.034C37.1664 121.183 37.1338 121.397 37.0611 121.57C36.7004 122.425 35.6395 122.712 34.9816 123.367C34.8952 123.453 34.8123 123.553 34.7914 123.673C34.7504 123.908 34.9747 124.123 35.2104 124.162C35.4461 124.201 35.6827 124.116 35.9062 124.031C36.3705 123.856 36.8347 123.681 37.299 123.506C37.6351 123.379 38.0341 123.258 38.333 123.457C38.6422 123.663 38.6713 124.132 38.4966 124.46C38.3218 124.788 38.0011 125.008 37.6924 125.215C36.9483 125.714 36.2043 126.212 35.4602 126.711C34.8372 127.128 34.1393 127.691 34.1985 128.439C34.2543 129.143 35.0284 129.621 35.7329 129.576C36.4373 129.531 37.0573 129.1 37.5772 128.622C38.0972 128.145 38.5664 127.6 39.1702 127.234C39.5642 126.995 40.1264 126.863 40.4464 127.194C40.6937 127.45 40.6698 127.861 40.577 128.205C40.3096 129.195 39.5864 130.052 38.6553 130.483C39.4129 130.657 40.2028 130.69 40.9723 130.579C41.4111 130.516 41.8654 130.394 42.1827 130.085C42.5001 129.775 42.623 129.23 42.3477 128.883C41.9371 128.364 41.9534 127.606 42.2157 126.998C42.4781 126.391 42.9466 125.901 43.4057 125.425C43.2743 125.154 42.8904 125.136 42.6031 125.226ZM46.1096 126.405C46.5222 125.451 46.5372 124.373 46.4327 123.339C46.3172 122.196 45.9187 120.889 44.8418 120.488C43.2637 121.143 42.0458 122.604 41.686 124.275C41.6558 124.415 41.6321 124.566 41.6873 124.699C41.7425 124.831 41.9066 124.928 42.0338 124.861C42.4701 124.633 43.0067 124.503 43.4503 124.717C43.8938 124.931 44.1098 125.6 43.7507 125.937C43.3538 126.309 42.9463 126.697 42.7322 127.197C42.5181 127.698 42.549 128.345 42.952 128.711C43.2549 128.986 43.2557 129.525 42.9536 129.801C43.8125 129.55 44.4245 128.812 44.9815 128.111C45.4073 127.576 45.838 127.032 46.1096 126.405ZM36.2224 121.47C35.3289 121.841 34.4616 122.274 33.6291 122.767C33.4311 122.884 33.231 123.008 33.0863 123.187C32.8908 123.428 32.8165 123.743 32.7561 124.048C32.561 125.032 32.4604 126.092 32.8738 127.007C33.0057 127.298 33.1861 127.565 33.3655 127.831C33.4185 127.909 33.4786 127.993 33.5694 128.019C33.6602 128.045 33.7801 127.972 33.7588 127.88C33.6931 127.596 33.9081 127.329 34.1202 127.13C35.3628 125.96 37.0368 125.289 38.1542 123.999C37.9847 123.798 37.6631 123.893 37.4214 123.996C36.8458 124.242 36.2522 124.445 35.647 124.605C35.3349 124.687 34.9869 124.754 34.702 124.602C34.285 124.38 34.2171 123.772 34.4374 123.354C34.6576 122.936 35.0764 122.666 35.4802 122.421C35.884 122.175 36.3077 121.919 36.55 121.513C36.5059 121.398 36.3366 121.423 36.2224 121.47ZM39.2798 129.303C39.6747 128.986 40.1013 128.612 40.1444 128.107C40.1669 127.843 39.9976 127.52 39.7339 127.545C39.6529 127.553 39.5789 127.593 39.509 127.635C38.3608 128.321 37.6051 129.662 36.3098 129.996C36.6758 130.16 37.0575 130.289 37.4479 130.38C37.5641 130.407 37.6852 130.432 37.8021 130.407C37.9382 130.379 38.052 130.289 38.1603 130.202C38.5335 129.903 38.9066 129.603 39.2798 129.303ZM40.3486 118.343C40.0931 118.625 39.8376 118.908 39.5821 119.191C39.3797 119.414 39.1626 119.71 39.2752 119.99C39.3582 120.196 39.6033 120.3 39.825 120.283C40.0466 120.266 40.2485 120.152 40.4344 120.03C41.0968 119.596 41.6932 119.004 42.4662 118.83C41.9303 118.635 41.3943 118.439 40.8583 118.244C40.7467 118.203 40.6222 118.163 40.5124 118.208C40.4465 118.235 40.3964 118.29 40.3486 118.343Z" fill="white"/>
<path fill-rule="evenodd" clip-rule="evenodd" d="M50.3222 84.5864C50.2553 85.9256 49.2222 87.3757 47.8908 87.2173C47.2898 86.5223 46.8195 85.6597 46.3547 84.8071C45.462 83.1698 44.5896 81.5698 42.8515 81.266C41.1444 80.9677 39.5546 82.2233 38.4914 83.5918C36.9515 85.5738 35.9564 87.9748 35.6427 90.4651C35.4583 91.9291 36.0587 93.9594 37.5255 93.7983C39.2009 93.6143 40.3924 94.9321 41.6043 96.2725C42.7259 97.5131 43.865 98.7731 45.4214 98.8794C47.2745 99.0059 48.7883 100.116 50.3205 101.24C51.3439 101.991 52.3756 102.747 53.5221 103.221C55.6791 104.112 58.1664 103.94 60.3682 103.166C62.5699 102.392 64.5294 101.059 66.3839 99.642L66.4811 99.5677C67.4934 98.7935 68.5532 97.983 69.812 97.8125C76.2488 96.9405 82.2356 93.165 85.7963 87.7323C90.8446 91.7678 97.9028 93.147 104.099 91.3088C105.15 90.9969 106.208 90.5787 106.988 89.8076C107.767 89.0364 108.209 87.839 107.826 86.8115C107.407 85.688 106.155 85.0864 104.964 84.9417C104.312 84.8624 103.654 84.8858 102.996 84.9093C102.453 84.9286 101.911 84.9479 101.37 84.9097C98.0972 84.6784 95.3718 82.4211 92.8938 80.2707C96.4843 79.1693 99.3956 76.4029 101.318 73.1764C103.24 69.9499 104.27 66.2743 105.053 62.6011C105.465 60.6681 105.771 58.4904 104.666 56.8514C104.172 56.1177 103.447 55.5814 102.725 55.0469C101.912 54.445 101.102 53.8455 100.628 52.9695C99.7158 51.2843 97.9382 50.2851 96.2522 49.3748C91.84 46.9926 86.7719 44.5408 82.0167 46.1317C80.1644 46.7514 78.5643 47.9389 77.0043 49.1141C74.4137 51.0657 71.6385 53.355 71.1452 56.5607C66.9064 54.6643 61.4225 56.1788 58.7577 59.9818C58.1482 60.8517 57.6803 61.811 57.2129 62.7692L57.2129 62.7693C56.6625 63.8974 56.1129 65.0243 55.3336 66.0023C52.2037 64.5762 49.0146 63.28 45.7774 62.118C44.3421 61.6028 42.6276 61.1475 41.3907 62.0394C40.399 62.7545 40.0947 64.1581 40.3859 65.3457C40.677 66.5332 41.4542 67.5399 42.2876 68.4345C44.0957 70.3754 46.2676 71.9762 48.6567 73.1288C48.7337 73.166 48.8112 73.2029 48.889 73.24L48.8893 73.2401C49.6373 73.5965 50.4063 73.9628 50.9044 74.6169C51.4544 75.3391 51.4885 76.5476 50.7175 77.0268C49.5787 77.7346 49.369 79.3228 49.6024 80.6432C49.6822 81.0943 49.7993 81.5412 49.9162 81.9875C50.1415 82.8473 50.3662 83.7049 50.3222 84.5864ZM81.2396 91.6492C78.3701 94.6622 74.3322 96.4249 70.2035 96.9402C66.0747 97.4555 61.8587 96.7856 57.9147 95.4601C58.9756 95.4594 59.7428 94.0705 59.1784 93.1721C57.0047 95.706 53.6909 96.8927 50.5332 97.9764C47.6805 98.9554 44.2707 98.2444 42.1752 96.0751C40.0798 93.9059 39.5127 90.3466 40.9863 87.7151C41.6269 86.5712 42.7133 85.5755 44.0195 85.4633C45.3257 85.351 46.7322 86.4341 46.611 87.7394C45.8842 87.6131 45.1193 88.2305 45.0893 88.9676C47.9012 88.6647 50.5447 87.0535 52.1024 84.693C52.6401 83.8783 53.0487 82.9909 53.4576 82.1027L53.4576 82.1027C53.7322 81.5063 54.0069 80.9097 54.321 80.3344C55.1028 78.9024 56.2254 77.5373 57.7809 77.0452C59.0294 76.6503 60.379 76.8695 61.6695 77.0919L67.4021 78.0803C67.8312 77.71 67.1363 77.1164 66.5815 77.0005C64.7898 76.6261 62.9731 76.3954 61.1563 76.1647C59.4716 75.9507 57.7867 75.7368 56.1215 75.4082C52.6605 74.7254 49.182 73.4764 46.6628 71.0068C48.3716 70.0238 49.6717 68.3535 50.2051 66.4557C50.313 66.0717 50.0559 65.441 49.7441 65.6897C49.3879 66.9217 49.0018 68.2066 48.1092 69.1276C47.2167 70.0485 45.6501 70.453 44.64 69.6629C43.3286 68.6373 41.9498 67.5184 41.4312 65.9364C40.9126 64.3544 41.733 62.2298 43.3865 62.0358C44.1287 61.9488 44.8542 62.2555 45.5386 62.5555L52.4434 65.5822C54.4985 66.483 56.5841 67.3928 58.804 67.7197C60.3626 67.9492 61.9478 67.8848 63.5219 67.8199L67.9844 67.6358C68.1669 67.6283 68.354 67.6197 68.522 67.5481C68.9704 67.3568 69.1224 66.8092 69.2213 66.3319C70.4189 60.5533 72.0278 54.4551 76.3805 50.4702C78.3282 48.687 80.7545 47.4316 83.335 46.8715C85.8788 46.3194 88.6854 46.4817 90.8754 47.8886C87.2016 48.159 83.6343 49.7082 80.9288 52.2082C79.7921 50.9947 77.6765 51.9866 76.7698 53.3804C75.3644 55.5409 75.3899 58.5423 76.8319 60.6786C78.0457 62.4769 78.4958 64.6225 78.947 66.7732C79.3616 68.7497 79.7772 70.7304 80.7872 72.4496C82.385 75.1692 85.3605 76.915 88.468 77.4562C91.5755 77.9974 94.7971 77.4322 97.7506 76.3245C94.445 79.6216 89.1644 80.7621 84.7928 79.1229C84.4741 79.0034 84.1571 78.8699 83.8398 78.7363C82.8353 78.3134 81.8274 77.889 80.75 77.9015C81.3812 78.57 82.1874 79.0717 83.0658 79.3429C82.0529 81.0442 80.9903 82.7158 79.8796 84.355C79.7375 84.5647 79.5757 84.7881 79.3325 84.859C79.0616 84.938 78.7787 84.803 78.5318 84.6665C76.4897 83.5378 74.6595 82.0276 73.1636 80.2371L70.1711 83.8772C71.7068 85.7543 73.5022 87.4187 75.4901 88.808C72.8442 92.0767 68.8356 94.2057 64.6459 94.5675C68.9828 94.7883 73.3733 92.7541 76.0089 89.3028C77.6774 90.2396 79.4304 91.0259 81.2396 91.6492ZM94.9545 59.6431C95.9128 58.5981 96.2679 57.1055 96.186 55.69C96.1041 54.2745 95.6281 52.9132 95.1011 51.5969C96.4739 51.4341 97.8685 51.952 98.962 52.7977C100.055 53.6434 100.877 54.7942 101.551 56.0012C102.367 57.4645 102.993 59.0467 103.265 60.7002C103.905 64.5937 102.539 68.5634 100.595 71.9968C100.217 72.6635 99.811 73.3256 99.2599 73.8578C98.705 74.3937 98.0223 74.779 97.3227 75.1041C94.4357 76.4454 91.1149 76.8325 87.9968 76.1911C89.9873 74.5339 91.393 72.2507 92.2882 69.8203C93.1835 67.3899 93.5933 64.8068 93.8292 62.2275L93.8305 62.2131C93.89 61.5627 93.9525 60.8791 94.3232 60.342C94.4459 60.1642 94.5978 60.0101 94.7498 59.8558C94.8189 59.7857 94.8881 59.7155 94.9545 59.6431ZM91.3517 70.3841C90.4928 72.3932 89.1621 74.238 87.3582 75.471C87.147 75.6154 86.9201 75.7547 86.666 75.7844C86.4416 75.8106 86.2169 75.7488 86.0015 75.6807C84.4678 75.1967 83.0186 74.3385 82.0347 73.0663C81.6777 72.6046 81.3862 72.0954 81.1261 71.5729C79.2323 67.7675 79.0468 63.1506 80.6292 59.2055C80.7048 59.0171 80.8129 58.8055 81.0121 58.766C81.2696 58.7148 81.4674 58.9784 81.612 59.1975C82.794 60.9887 85.0044 61.8955 87.1484 61.9895C89.2924 62.0834 91.4014 61.474 93.4345 60.7868C93.064 61.6929 92.9696 62.68 92.8761 63.6577C92.8644 63.7809 92.8526 63.9039 92.8403 64.0265C92.6224 66.2006 92.2107 68.375 91.3517 70.3841ZM90.9153 51.7147C92.0124 51.4653 93.2925 51.3967 94.1308 52.1471C94.4016 52.3895 94.6027 52.7004 94.7682 53.0239C95.8065 55.0529 95.3998 57.7253 93.805 59.3536C91.9612 61.2361 89.0431 61.5464 86.4176 61.323C85.4756 61.2428 84.5067 61.0978 83.7025 60.6007C82.6619 59.9575 82.0457 58.824 81.4758 57.7416C84.0057 54.9147 87.2161 52.5556 90.9153 51.7147ZM99.789 85.8418C99.4447 86.7108 99.0972 87.5918 98.9845 88.5197C98.8719 89.4477 99.0185 90.4436 99.583 91.1887C94.8996 91.4478 90.1403 90.0037 86.3906 87.1857C87.5998 85.4745 88.5547 83.584 89.2143 81.5953C89.4749 80.8097 90.4695 80.482 91.2769 80.6639C92.0202 80.8313 92.6444 81.3082 93.2531 81.7734L93.2975 81.8073L93.4102 81.8932C95.4037 83.4066 97.6006 84.627 99.789 85.8418ZM67.0617 97.7096C66.3231 98.5412 65.4404 99.2315 64.5386 99.8826C62.6565 101.242 60.604 102.477 58.3163 102.872C54.9636 103.45 51.3415 102.004 49.3091 99.2758L56.6217 96.5479C56.7968 96.4826 56.9781 96.4163 57.1647 96.4268C57.2701 96.4328 57.3715 96.463 57.4731 96.4933L57.4732 96.4933C57.5408 96.5135 57.6085 96.5337 57.6775 96.5468C57.9123 96.5912 58.1491 96.5522 58.387 96.513C58.535 96.4886 58.6834 96.4642 58.832 96.4597C59.3793 96.4433 59.8824 96.6935 60.3801 96.941C60.5064 97.0038 60.6324 97.0664 60.7587 97.1245C62.6978 98.0163 64.9336 97.872 67.0617 97.7096ZM56.5039 66.4227C56.4523 66.3075 56.5067 66.1748 56.5611 66.0609C58.0587 62.9245 60.0398 60.0195 62.4129 57.4802C64.0822 59.798 65.1931 62.5149 65.6261 65.3382C65.7126 65.9026 65.6191 66.683 65.0525 66.7536C62.3368 67.0921 59.5736 67.0461 56.8707 66.6175C56.7278 66.5948 56.5629 66.5548 56.5039 66.4227ZM66.7313 66.2304C66.1721 63.1563 65.0112 60.1929 63.3337 57.5569C64.7536 56.8094 66.4321 56.7972 68.0367 56.8022C69.0501 56.8053 70.1564 56.8411 70.9286 57.4972L68.9254 63.4081C68.5853 64.4115 68.2409 65.4432 68.2838 66.5018L67.0175 66.5221C66.9724 66.5228 66.9258 66.5233 66.8842 66.5059C66.7828 66.4636 66.7509 66.3384 66.7313 66.2304ZM83.0243 81.3579C83.3607 80.7857 83.6811 80.1744 83.7151 79.5116C85.2301 80.193 86.8986 80.5306 88.5593 80.4919C88.82 80.4858 88.8107 80.8877 88.7038 81.1256C88.3805 81.8453 88.0567 82.5658 87.6825 83.2604C87.2984 83.9734 86.8624 84.6569 86.4268 85.3397L85.3827 86.9762C85.2398 87.2002 85.0923 87.4292 84.8799 87.5889C84.31 88.0173 83.4965 87.8113 82.8461 87.5191C81.7673 87.0345 80.7744 86.3595 79.9268 85.5346C81.1039 84.2578 82.1442 82.855 83.0243 81.3579ZM43.8469 82.7704C44.3489 83.2765 44.6769 83.9251 44.9967 84.5622L43.4908 84.7769C42.9891 84.8485 42.4746 84.9242 42.0311 85.1696C41.5997 85.4083 41.2669 85.7909 40.974 86.1877C39.7493 87.8469 39.0705 89.9024 39.0662 91.9647C39.0647 92.7096 38.1843 93.241 37.4637 93.0521C36.7432 92.8633 36.2537 92.1476 36.1291 91.4132C36.0046 90.6788 36.18 89.9278 36.4 89.2162C37.1742 86.7118 38.5591 84.3466 40.6081 82.7117C40.9996 82.3993 41.4321 82.1069 41.9267 82.0278C42.6306 81.9153 43.3449 82.2643 43.8469 82.7704ZM107.085 86.9605C107.259 87.1843 107.388 87.4569 107.38 87.7403C107.37 88.1067 107.138 88.428 106.888 88.6959C105.434 90.2537 103.2 90.7841 101.084 91.0341C100.945 91.0506 100.798 91.0654 100.668 91.0143C100.56 90.9722 100.474 90.8894 100.397 90.8031C99.8866 90.229 99.6843 89.4265 99.7257 88.6593C99.7671 87.8922 100.032 87.1533 100.362 86.4594C100.431 86.3132 100.511 86.1598 100.653 86.0814C100.766 86.0188 100.901 86.0139 101.03 86.0105L103.591 85.9434C104.221 85.9268 104.858 85.9109 105.476 86.0409C106.093 86.1709 106.697 86.4628 107.085 86.9605ZM78.5443 62.7667C77.5009 60.8332 76.7202 58.7581 76.2305 56.6163L76.6521 55.4903C77.1736 54.4806 77.8311 53.5412 78.6011 52.7054C78.9147 52.365 79.4583 52.3274 79.8911 52.4914C80.3239 52.6554 80.6721 52.9815 81.0081 53.2998L82.52 54.7323C82.5649 54.7749 82.6119 54.8209 82.6269 54.8809C82.6551 54.994 82.5616 55.0976 82.4771 55.178C81.7691 55.8511 81.1401 56.6101 80.6357 57.4468C79.8732 58.7114 79.4077 60.1286 78.9484 61.532L78.5443 62.7667ZM82.4084 51.9031C85.4868 50.2545 88.8539 48.703 92.3263 49.074C94.1416 49.268 95.8781 49.9902 97.3902 51.0132C93.0585 49.8998 88.2301 50.9268 84.7266 53.7069C84.1851 54.1366 83.3726 54.6033 82.8905 54.1079C82.7667 53.9807 82.6858 53.8025 82.6069 53.6288C82.4806 53.3507 82.3596 53.0844 82.0766 53.0583C81.8066 53.0335 81.6865 52.6672 81.801 52.4215C81.9155 52.1757 82.1694 52.0311 82.4084 51.9031ZM73.9518 82.061C74.5594 82.6448 75.2285 83.1603 75.8961 83.6744L78.5933 85.7516C77.7627 86.4835 76.9501 87.2358 76.1563 88.0075C74.2667 86.8876 72.5801 85.4264 71.2023 83.7157C71.9565 82.9301 72.6805 82.1156 73.3721 81.2745C73.4807 81.5849 73.7147 81.8332 73.9518 82.061ZM56.6103 76.4436C55.1902 77.553 53.722 78.7209 52.9408 80.3449C52.7882 80.6622 52.6621 80.9962 52.5362 81.3296C52.2686 82.0383 52.0019 82.7447 51.483 83.2842C51.253 83.2167 51.1626 82.9456 51.1065 82.7125L50.5661 80.4648C50.4932 80.1616 50.4198 79.8498 50.4612 79.5407C50.5025 79.233 50.6542 78.9527 50.8032 78.6803L52.3888 75.7828C52.4241 75.7182 52.4608 75.652 52.5174 75.605C52.6577 75.4885 52.8652 75.5256 53.0424 75.569L56.6103 76.4436ZM79.6816 86.3977C80.65 87.3934 81.8536 88.1588 83.166 88.6136C83.4115 88.3827 83.8858 88.51 83.9826 88.8328C83.531 89.4188 83.0351 89.9707 82.5007 90.4823C82.2621 90.7107 81.8797 90.6625 81.5578 90.5886C79.9849 90.2276 78.4699 89.6158 77.0874 88.7834C76.9949 88.7277 76.8909 88.6485 76.9 88.5409C76.9061 88.4686 76.9631 88.4123 77.0166 88.3631L78.9576 86.5754C79.1611 86.388 79.4887 86.1993 79.6816 86.3977ZM104.463 61.4235C104.445 61.6426 104.415 61.8871 104.243 62.0248C104.242 60.3041 103.815 58.5853 103.012 57.0637C102.866 56.7877 102.708 56.518 102.532 56.26C102.51 56.227 102.487 56.1939 102.464 56.1608L102.464 56.1604C102.286 55.9045 102.105 55.6426 102.062 55.337L104.142 57.5098C104.333 57.7097 104.53 57.9183 104.62 58.1798C104.708 58.432 104.687 58.7071 104.665 58.9731L104.463 61.4235ZM102.075 58.6647L101.604 58.071C101.085 57.4179 100.45 56.7047 99.6157 56.7038C99.1318 56.7032 98.6868 56.951 98.267 57.1917L97.6148 57.5657C97.4366 57.6679 97.2537 57.7741 97.1281 57.9366C96.7658 58.4052 97.0302 59.0898 97.3725 59.5731C97.6094 59.9075 97.8934 60.2287 98.2703 60.3896C98.7579 60.5978 99.3187 60.5057 99.8297 60.3648C100.53 60.1718 101.206 59.8934 101.839 59.5376C102.041 59.4239 102.265 59.2572 102.254 59.0253C102.248 58.8888 102.16 58.7718 102.075 58.6647ZM97.9603 59.1259C97.8792 58.9969 97.7955 58.859 97.7941 58.7066C97.7916 58.4086 98.0889 58.2087 98.3505 58.066L99.28 57.5589C99.4206 57.4823 99.5669 57.4039 99.7267 57.3931C99.8864 57.3823 100.064 57.4592 100.118 57.6101C100.276 58.0553 100.667 58.4104 101.125 58.5258C101.273 58.5632 101.321 58.7686 101.251 58.9045C101.181 59.0405 101.037 59.12 100.9 59.188C100.41 59.4311 99.8981 59.6294 99.3721 59.7795C99.1613 59.8397 98.9381 59.8923 98.7248 59.8416C98.3759 59.7586 98.151 59.4295 97.9603 59.1259ZM91.3462 63.7102C90.4242 63.8175 90.2489 65.48 90.6771 66.3667C90.7652 66.5491 90.903 66.737 91.104 66.7625C91.4475 66.8061 91.6374 66.3821 91.7134 66.0442L91.7151 66.0364C91.8154 65.5911 92.2627 63.6034 91.3462 63.7102ZM86.5901 65.8914C86.7745 65.4614 86.836 64.9795 86.7655 64.5169C86.7328 64.302 86.6681 64.0837 86.5245 63.9205C86.3809 63.7573 86.1435 63.6624 85.9389 63.736C85.7538 63.8026 85.6374 63.9837 85.5497 64.1599C85.2403 64.7818 85.117 65.4948 85.1996 66.1845C85.238 66.5053 85.6423 66.6807 85.9491 66.5792C86.2559 66.4777 86.4628 66.1884 86.5901 65.8914ZM89.3079 64.9071C89.451 64.7885 89.6316 65.0039 89.6897 65.1805C89.8805 65.7608 90.0385 66.3519 90.1627 66.9501C90.2412 67.3281 90.306 67.7208 90.2224 68.0977C90.1045 68.6291 89.7006 69.0613 89.232 69.3382C88.7633 69.615 88.2299 69.7583 87.704 69.8986C87.565 69.9356 87.3904 69.962 87.3007 69.8497C87.2245 69.7543 87.2621 69.6049 87.3488 69.519C87.4338 69.4348 87.5523 69.3959 87.6662 69.3585L87.6729 69.3563C88.4928 69.087 89.3689 68.6009 89.5598 67.7593C89.6647 67.2965 89.537 66.8317 89.4088 66.3648C89.292 65.9397 89.1748 65.5129 89.2324 65.0846C89.2412 65.0193 89.2572 64.9491 89.3079 64.9071ZM83.5825 63.0148C83.3665 62.7157 83.5395 62.2613 83.8526 62.0662C84.1657 61.8712 84.5614 61.8738 84.9273 61.9211C85.364 61.9775 85.7936 62.0885 86.2029 62.2509C86.2901 62.2854 86.3839 62.3295 86.4222 62.415C86.4933 62.5734 86.3095 62.7468 86.1359 62.7467C85.9961 62.7465 85.8694 62.6793 85.7442 62.6128L85.7441 62.6128L85.7436 62.6125L85.7435 62.6124L85.7435 62.6124L85.7434 62.6124L85.7434 62.6124C85.7133 62.5964 85.6833 62.5805 85.6533 62.5656C84.97 62.2265 84.0639 62.4231 83.5825 63.0148ZM91.4582 62.91C91.7829 62.856 92.1272 62.931 92.4 63.1151C92.5141 63.1921 92.6774 63.0627 92.6781 62.925C92.6787 62.7874 92.5761 62.6717 92.468 62.5866C92.235 62.4033 91.945 62.2936 91.6491 62.2769C91.4582 62.2661 91.2468 62.303 91.1238 62.4495C91.0008 62.596 91.0379 62.871 91.2223 62.922C91.2881 62.9402 91.3571 62.9279 91.425 62.9158L91.4582 62.91ZM87.4281 71.3484C87.5195 71.2969 87.6401 71.3869 87.6537 71.491C87.6673 71.5951 87.6079 71.6946 87.5401 71.7747C87.1996 72.1765 86.613 72.3002 86.0949 72.206C85.5768 72.1118 85.1124 71.8333 84.6753 71.5394C84.4698 71.4013 84.2674 71.2585 84.0682 71.1114C83.8618 70.9589 83.6417 70.7723 83.617 70.5168C83.5923 70.2613 83.9196 70.0038 84.1065 70.1797C84.5658 70.6122 85.0355 71.052 85.6068 71.3196C86.1781 71.5872 86.8787 71.6585 87.4281 71.3484ZM77.5931 73.398C75.6792 69.2381 74.8808 64.5713 75.3028 60.0118C75.3101 59.9339 75.3199 59.8504 75.3714 59.7915C75.444 59.7084 75.593 59.7118 75.6617 59.7983C75.6371 62.3064 75.6137 64.8297 76.0232 67.3043C76.4327 69.779 77.3021 72.2273 78.8895 74.1694L78.9452 74.2371C78.9744 74.2724 79.0038 74.3077 79.0333 74.343C79.3063 74.6704 79.5817 75.0006 79.7366 75.3954C78.7043 75.3755 78.0246 74.3359 77.5931 73.398ZM79.4684 54.6086C79.4331 54.5704 79.3919 54.5366 79.344 54.5159C79.206 54.4563 79.0442 54.5174 78.9233 54.6069C78.4416 54.9635 78.4397 55.7975 78.9198 56.1563C79.154 55.9567 79.3944 55.7494 79.5317 55.474C79.6689 55.1986 79.6772 54.8346 79.4684 54.6086ZM83.6225 59.004C84.1417 59.4254 84.7333 59.7573 85.3635 59.9808C87.3973 60.702 89.6827 60.2492 91.6453 59.3522C91.9452 59.2151 92.3278 59.2874 92.557 59.5243C91.2969 60.4223 89.7531 60.9159 88.2057 60.9156C87.8645 60.9155 87.5236 60.8921 87.1837 60.8624C86.4882 60.8016 85.7874 60.7125 85.133 60.4689C84.4787 60.2253 83.8678 59.8132 83.4973 59.2213L83.6225 59.004ZM105.77 86.415C105.749 86.4842 105.805 86.5505 105.856 86.6013L106.629 87.3682C106.713 87.1476 106.619 86.8909 106.457 86.7192C106.295 86.5475 106.076 86.4431 105.862 86.3425C105.82 86.3443 105.781 86.3749 105.77 86.415Z" fill="white"/>
<path fill-rule="evenodd" clip-rule="evenodd" d="M156.52 56.586C157.467 56.9141 158.358 56.0603 159.174 55.4787C160.436 54.5787 162.083 54.2384 163.599 54.5643C163.85 54.6184 164.114 54.6995 164.279 54.8963C164.431 55.0762 164.474 55.3217 164.498 55.5556C164.647 56.9873 164.289 58.4669 163.502 59.672C163.119 60.2583 162.639 60.7803 162.296 61.3912C161.954 62.002 161.758 62.7483 162.002 63.4047C163.453 67.3074 162.849 71.9106 160.441 75.307C158.033 78.7035 153.889 80.7963 149.726 80.7185C147.597 80.6787 145.511 80.1105 143.505 79.3958C142.63 79.0841 141.668 78.742 140.799 79.0712C139.214 79.672 137.545 80.0514 135.856 80.1949C135.437 80.2305 134.999 80.2488 134.612 80.0833C134.033 79.8356 133.683 79.2078 133.617 78.5816C133.55 77.9554 133.724 77.3286 133.942 76.7381C134.602 74.9568 136.65 72.1741 137.889 71.533C137.789 69.3699 137.8 67.1814 138.268 65.067C138.735 62.9527 139.69 60.901 141.255 59.405C141.902 58.787 142.642 58.2727 143.417 57.8264C147.338 55.5691 152.245 55.1045 156.52 56.586ZM150.549 56.4091C147.551 56.4792 144.633 57.6835 142.289 59.5545C141.601 60.1039 140.954 60.7142 140.438 61.4273C140.031 61.9894 139.709 62.6097 139.44 63.2495C137.843 67.0461 138.208 71.6077 140.387 75.1027C140.434 75.1789 140.489 75.2597 140.573 75.2893C140.678 75.3258 140.791 75.2726 140.888 75.2205C147.731 71.5737 153.822 66.523 158.673 60.4733C158.789 60.3293 158.91 60.1619 158.885 59.9789C158.866 59.8417 158.768 59.7302 158.673 59.63C156.603 57.4599 153.547 56.3389 150.549 56.4091ZM154.741 79.0787C157.991 77.5528 160.46 74.5374 161.516 71.1055C161.755 70.3284 161.927 69.525 161.944 68.7121C161.958 68.0285 161.862 67.3479 161.767 66.6708C161.629 65.6892 161.491 64.7075 161.353 63.7258C161.317 63.4656 161.066 63.122 160.883 63.3105C155.798 68.5441 150.244 73.3231 144.311 77.5719C144.114 77.7133 143.897 77.8881 143.886 78.1307C143.874 78.4115 144.142 78.6152 144.385 78.7556C147.496 80.5493 151.491 80.6047 154.741 79.0787ZM134.693 78.6759C134.929 79.0551 135.442 79.1328 135.888 79.1452C138.232 79.21 140.551 78.5232 142.648 77.4743C144.745 76.4253 146.643 75.0223 148.488 73.5746C150.948 71.6438 153.334 69.6202 155.66 67.5297C158.541 64.9407 161.371 62.1946 163.263 58.8146C163.629 58.1608 163.966 57.4439 163.909 56.6969C163.852 55.9499 163.256 55.1957 162.507 55.2249C160.919 55.2869 159.357 55.8977 158.147 56.9298C157.907 57.1351 158.077 57.5721 158.373 57.6832C158.669 57.7943 158.999 57.6839 159.288 57.5562C159.577 57.4285 159.878 57.2792 160.193 57.3141C160.673 57.3675 161.014 57.859 161.042 58.3412C161.071 58.8233 160.858 59.2867 160.606 59.6993C160.141 60.4627 159.534 61.1282 158.921 61.7783C153.466 67.5567 147.175 72.5432 140.303 76.5334C139.684 76.8928 139.058 77.2453 138.392 77.5071C138.043 77.6445 137.642 77.7547 137.302 77.5977C136.743 77.3402 136.698 76.5553 136.865 75.9632C137.117 75.074 137.661 74.2703 138.393 73.7062C138.255 73.3156 138.116 72.925 137.977 72.5345C136.171 73.6885 134.903 75.6515 134.594 77.773C134.549 78.0791 134.529 78.4134 134.693 78.6759ZM139.83 75.9938C139.843 75.9535 139.819 75.9115 139.797 75.8757C139.563 75.5049 139.33 75.134 139.096 74.7632C138.991 74.5954 138.787 74.4053 138.628 74.5246C138.058 74.9543 137.649 75.5943 137.5 76.2927C137.47 76.4306 137.453 76.5844 137.528 76.7037C137.668 76.9257 138.001 76.8762 138.248 76.7878C138.775 76.5992 139.281 76.3568 139.759 76.0654C139.788 76.0475 139.819 76.0266 139.83 75.9938ZM160.134 58.341C160.11 58.2447 159.995 58.2028 159.896 58.1985C159.596 58.1854 159.281 58.4326 159.3 58.733C159.319 59.0333 159.766 59.2225 159.953 58.9863C160.009 58.915 160.033 58.8241 160.055 58.736C160.078 58.6488 160.1 58.5616 160.122 58.4744C160.133 58.4307 160.144 58.3848 160.134 58.341Z" fill="white"/>
</svg>
